<?xml version="1.0" encoding="UTF-8" standalone="no"?>
<!-- Created with Inkscape (http://www.inkscape.org/) -->

<svg
   xmlns:dc="http://purl.org/dc/elements/1.1/"
   xmlns:cc="http://creativecommons.org/ns#"
   xmlns:rdf="http://www.w3.org/1999/02/22-rdf-syntax-ns#"
   xmlns:svg="http://www.w3.org/2000/svg"
   xmlns="http://www.w3.org/2000/svg"
   xmlns:sodipodi="http://sodipodi.sourceforge.net/DTD/sodipodi-0.dtd"
   xmlns:inkscape="http://www.inkscape.org/namespaces/inkscape"
   sodipodi:docname="SpacePatternGrey.svg"
   inkscape:version="0.91 r13725"
   version="1.1"
   id="svg4133"
   viewBox="0 0 1200 1200"
   height="1200"
   width="1200">
  <sodipodi:namedview
     fit-margin-bottom="0"
     fit-margin-right="0"
     fit-margin-left="0"
     fit-margin-top="0"
     showguides="false"
     inkscape:window-maximized="1"
     inkscape:window-y="-8"
     inkscape:window-x="-8"
     inkscape:window-height="837"
     inkscape:window-width="1600"
     units="px"
     showgrid="false"
     inkscape:current-layer="layer1"
     inkscape:document-units="px"
     inkscape:cy="600"
     inkscape:cx="600"
     inkscape:zoom="0.55833333"
     inkscape:pageshadow="2"
     inkscape:pageopacity="0"
     borderopacity="1.0"
     bordercolor="#666666"
     pagecolor="#ffffff"
     id="base" />
  <defs
     id="defs4135" />
  <metadata
     id="metadata4138">
    <rdf:RDF>
      <cc:Work
         rdf:about="">
        <dc:format>image/svg+xml</dc:format>
        <dc:type
           rdf:resource="http://purl.org/dc/dcmitype/StillImage" />
        <dc:title></dc:title>
      </cc:Work>
    </rdf:RDF>
  </metadata>
  <g
     transform="translate(0,147.63783)"
     id="layer1"
     inkscape:groupmode="layer"
     inkscape:label="Layer 1">
    <g
       id="g7410">
      <path
         style="opacity:1;fill:#2a2a2a;fill-opacity:1;stroke:none;stroke-width:2.83259487;stroke-miterlimit:4;stroke-dasharray:none;stroke-opacity:1"
         d="m 0,-147.63783 1200,0 0,1200.00003 -1200,0 z"
         id="rect4141"
         inkscape:connector-curvature="0" />
      <path
         inkscape:connector-curvature="0"
         id="path4153"
         d="m 0,852.36219 200,0 0,200.00001 -200,0 z"
         style="opacity:1;fill:#8e8e8e;fill-opacity:1;stroke:none;stroke-width:2.83259487;stroke-miterlimit:4;stroke-dasharray:none;stroke-opacity:1" />
      <path
         style="opacity:1;fill:#383838;fill-opacity:1;stroke:none;stroke-width:2.83259487;stroke-miterlimit:4;stroke-dasharray:none;stroke-opacity:1"
         d="m 400,852.36219 200,0 0,200.00001 -200,0 z"
         id="path4155"
         inkscape:connector-curvature="0" />
      <path
         style="opacity:1;fill:#161616;fill-opacity:1;stroke:none;stroke-width:2.83259487;stroke-miterlimit:4;stroke-dasharray:none;stroke-opacity:1"
         d="m 200,652.36219 200,0 0,200.00001 -200,0 z"
         id="path4157"
         inkscape:connector-curvature="0" />
      <path
         inkscape:connector-curvature="0"
         id="path4159"
         d="m 600,652.36219 200,0 0,200.00001 -200,0 z"
         style="opacity:1;fill:#6d6d6d;fill-opacity:1;stroke:none;stroke-width:2.83259487;stroke-miterlimit:4;stroke-dasharray:none;stroke-opacity:1" />
      <path
         style="opacity:1;fill:#e6e6e6;fill-opacity:1;stroke:none;stroke-width:2.83259487;stroke-miterlimit:4;stroke-dasharray:none;stroke-opacity:1"
         d="m 0,452.36219 200,0 0,200.00001 -200,0 z"
         id="path4161"
         inkscape:connector-curvature="0" />
      <path
         inkscape:connector-curvature="0"
         id="path4163"
         d="m 400,452.36219 200,0 0,200.00001 -200,0 z"
         style="opacity:1;fill:#656565;fill-opacity:1;stroke:none;stroke-width:2.83259487;stroke-miterlimit:4;stroke-dasharray:none;stroke-opacity:1" />
      <path
         inkscape:connector-curvature="0"
         id="path4165"
         d="m 200,252.36219 200,0 0,200.00001 -200,0 z"
         style="opacity:1;fill:#858585;fill-opacity:1;stroke:none;stroke-width:2.83259487;stroke-miterlimit:4;stroke-dasharray:none;stroke-opacity:1" />
      <path
         style="opacity:1;fill:#6b6b6b;fill-opacity:1;stroke:none;stroke-width:2.83259487;stroke-miterlimit:4;stroke-dasharray:none;stroke-opacity:1"
         d="m 600,252.36219 200,0 0,200.00001 -200,0 z"
         id="path4167"
         inkscape:connector-curvature="0" />
      <g
         id="g4201"
         transform="matrix(1.3551283,0.78238535,-0.78238367,1.3551312,83.655036,837.20845)">
        <path
           id="path4168"
           d="m 13.777344,47.224609 a 66,12.902841 0 0 0 -33.9375,11.271485 66,12.902841 0 0 0 66,12.904297 A 66,12.902841 0 0 0 111.83984,58.496094 66,12.902841 0 0 0 78.013672,47.248047 c 0.468222,1.299756 0.849654,2.634954 1.152344,3.994141 A 52.799999,9.3626051 0 0 1 98.640625,58.496094 52.799999,9.3626051 0 0 1 45.839844,67.859375 52.799999,9.3626051 0 0 1 -6.9609375,58.496094 52.799999,9.3626051 0 0 1 12.599609,51.228516 c 0.303951,-1.360852 0.703158,-2.695891 1.177735,-4.003907 z"
           style="opacity:1;fill:#747474;fill-opacity:1;stroke:none;stroke-width:1;stroke-miterlimit:4;stroke-dasharray:none;stroke-opacity:1"
           inkscape:connector-curvature="0" />
        <path
           id="path4141"
           d="M 45.882812,25.460938 A 33,33 0 0 0 12.884766,58.40625 l 0,0.05469 0,0.05469 A 33,33 0 0 0 13.5,64.724609 c 21.430684,2.890748 43.325357,3.019813 64.757812,-0.0098 a 33,33 0 0 0 0.625,-6.253906 33,33 0 0 0 -33,-33 z M 15.367188,70.966797 A 33,33 0 0 0 45.882812,91.460938 33,33 0 0 0 76.369141,71.027344 c -13.195746,1.359239 -26.607827,1.31669 -39.777344,1.232422 -6.990455,-0.405069 -14.13013,-0.674129 -21.224609,-1.292969 z"
           style="opacity:1;fill:#dadada;fill-opacity:1;stroke:none;stroke-width:1;stroke-miterlimit:4;stroke-dasharray:none;stroke-opacity:1"
           inkscape:connector-curvature="0" />
      </g>
      <g
         id="g4773"
         transform="matrix(0.17006075,-0.14269792,0.14269792,0.17006075,239.28703,843.17004)"
         style="fill:#bfbfbf">
        <path
           id="path4764"
           d="M -70.029297,254.02148 A 312.85715,312.85715 0 0 0 -317.14258,559.50586 312.85715,312.85715 0 0 0 -69.263672,865.4043 625.7143,625.7143 0 0 1 -150,559.50586 625.7143,625.7143 0 0 1 -70.029297,254.02148 Z"
           style="opacity:1;fill:#828282;fill-opacity:1;stroke:none;stroke-width:1;stroke-miterlimit:4;stroke-dasharray:none;stroke-opacity:1"
           inkscape:connector-curvature="0" />
        <path
           inkscape:connector-curvature="0"
           id="path4770"
           d="m 65.830391,590.29368 -34.04278,-38.79416 -51.25706,6.05063 26.3756404,-44.36466 -21.5937904,-46.87863 50.34382,11.3753 37.91137,-35.02321 4.73855,51.39498 45.024309,25.23309 -47.415239,20.38855 z"
           inkscape:transform-center-y="1.2569857"
           inkscape:transform-center-x="-6.2162205"
           style="opacity:1;fill:#838383;fill-opacity:1;stroke:none;stroke-width:1;stroke-miterlimit:4;stroke-dasharray:none;stroke-opacity:1" />
      </g>
      <path
         id="path4"
         inkscape:connector-curvature="0"
         d="m 416,963.36219 c 0,-39.4 31.6,-77 74,-77 33.8,0 61,23.2 61,58 0,20.8 -16.2,44 -41,44 -22,0 -34,-14 -34,-31 -3.6,0 -6,6 -6,12 0,16.6 19.8,34.00001 43,34.00001 30.4,0 62,-27.80001 62,-69.00001 0,-25.6 -12.4,-47 -23,-60 13,11 32,32.8 32,67 0,39.4 -31.6,77.00001 -74,77.00001 -33.8,0 -61,-23.20004 -61,-58.00001 0,-20.8 16.2,-44 41,-44 22,0 34,14 34,31 3.6,0 6,-6 6,-12 0,-16.6 -19.8,-34 -43,-34 -30.4,0 -62,27.8 -62,69 0,25.59997 12.4,47.00001 23,60.00001 -13,-11 -32,-32.80004 -32,-67.00001 z" />
      <path
         inkscape:connector-curvature="0"
         id="path7236"
         d="m 800,852.36219 200,0 0,200.00001 -200,0 z"
         style="opacity:1;fill:#010101;fill-opacity:1;stroke:none;stroke-width:2.83259487;stroke-miterlimit:4;stroke-dasharray:none;stroke-opacity:1" />
      <path
         style="opacity:1;fill:#8f8f8f;fill-opacity:1;stroke:none;stroke-width:2.83259487;stroke-miterlimit:4;stroke-dasharray:none;stroke-opacity:1"
         d="m 1000,652.36219 200,0 0,200.00001 -200,0 z"
         id="path7238"
         inkscape:connector-curvature="0" />
      <path
         style="opacity:1;fill:#a3a3a3;fill-opacity:1;stroke:none;stroke-width:2.83259487;stroke-miterlimit:4;stroke-dasharray:none;stroke-opacity:1"
         d="m 800,452.36219 200,0 0,200.00001 -200,0 z"
         id="path7240"
         inkscape:connector-curvature="0" />
      <path
         inkscape:connector-curvature="0"
         id="path7242"
         d="m 1000,252.36219 200,0 0,200.00001 -200,0 z"
         style="opacity:1;fill:#212121;fill-opacity:1;stroke:none;stroke-width:2.83259487;stroke-miterlimit:4;stroke-dasharray:none;stroke-opacity:1" />
      <path
         inkscape:connector-curvature="0"
         id="path7244"
         d="m 0,52.36219 200,0 0,200.00001 -200,0 z"
         style="opacity:1;fill:#838383;fill-opacity:1;stroke:none;stroke-width:2.83259487;stroke-miterlimit:4;stroke-dasharray:none;stroke-opacity:1" />
      <path
         style="opacity:1;fill:#6c6c6c;fill-opacity:1;stroke:none;stroke-width:2.83259487;stroke-miterlimit:4;stroke-dasharray:none;stroke-opacity:1"
         d="m 400,52.36219 200,0 0,200.00001 -200,0 z"
         id="path7246"
         inkscape:connector-curvature="0" />
      <path
         style="opacity:1;fill:#4c4c4c;fill-opacity:1;stroke:none;stroke-width:2.83259487;stroke-miterlimit:4;stroke-dasharray:none;stroke-opacity:1"
         d="m 200,-147.63781 200,0 0,200.00001 -200,0 z"
         id="path7248"
         inkscape:connector-curvature="0" />
      <path
         inkscape:connector-curvature="0"
         id="path7250"
         d="m 600,-147.63781 200,0 0,200.00001 -200,0 z"
         style="opacity:1;fill:#d4d4d4;fill-opacity:1;stroke:none;stroke-width:2.83259487;stroke-miterlimit:4;stroke-dasharray:none;stroke-opacity:1" />
      <path
         inkscape:connector-curvature="0"
         id="path7252"
         d="m 800,52.36219 200,0 0,200.00001 -200,0 z"
         style="opacity:1;fill:#b2b2b2;fill-opacity:1;stroke:none;stroke-width:2.83259487;stroke-miterlimit:4;stroke-dasharray:none;stroke-opacity:1" />
      <path
         style="opacity:1;fill:#bdbdbd;fill-opacity:1;stroke:none;stroke-width:2.83259487;stroke-miterlimit:4;stroke-dasharray:none;stroke-opacity:1"
         d="m 1000,-147.63781 200,0 0,200.00001 -200,0 z"
         id="path7254"
         inkscape:connector-curvature="0" />
      <g
         transform="matrix(1.3551283,0.78238535,-0.78238367,1.3551312,683.65504,837.20845)"
         id="g7256"
         style="fill:#171717;fill-opacity:1">
        <path
           inkscape:connector-curvature="0"
           style="opacity:1;fill:#8c8c8c;fill-opacity:1;stroke:none;stroke-width:1;stroke-miterlimit:4;stroke-dasharray:none;stroke-opacity:1"
           d="m 13.777344,47.224609 a 66,12.902841 0 0 0 -33.9375,11.271485 66,12.902841 0 0 0 66,12.904297 A 66,12.902841 0 0 0 111.83984,58.496094 66,12.902841 0 0 0 78.013672,47.248047 c 0.468222,1.299756 0.849654,2.634954 1.152344,3.994141 A 52.799999,9.3626051 0 0 1 98.640625,58.496094 52.799999,9.3626051 0 0 1 45.839844,67.859375 52.799999,9.3626051 0 0 1 -6.9609375,58.496094 52.799999,9.3626051 0 0 1 12.599609,51.228516 c 0.303951,-1.360852 0.703158,-2.695891 1.177735,-4.003907 z"
           id="path7258" />
        <path
           inkscape:connector-curvature="0"
           style="opacity:1;fill:#131313;fill-opacity:1;stroke:none;stroke-width:1;stroke-miterlimit:4;stroke-dasharray:none;stroke-opacity:1"
           d="M 45.882812,25.460938 A 33,33 0 0 0 12.884766,58.40625 l 0,0.05469 0,0.05469 A 33,33 0 0 0 13.5,64.724609 c 21.430684,2.890748 43.325357,3.019813 64.757812,-0.0098 a 33,33 0 0 0 0.625,-6.253906 33,33 0 0 0 -33,-33 z M 15.367188,70.966797 A 33,33 0 0 0 45.882812,91.460938 33,33 0 0 0 76.369141,71.027344 c -13.195746,1.359239 -26.607827,1.31669 -39.777344,1.232422 -6.990455,-0.405069 -14.13013,-0.674129 -21.224609,-1.292969 z"
           id="path7260" />
      </g>
      <g
         style="fill:#aeaeae;fill-opacity:1"
         transform="matrix(0.17006075,-0.14269792,0.14269792,0.17006075,839.28703,843.17004)"
         id="g7262">
        <path
           inkscape:connector-curvature="0"
           style="opacity:1;fill:#979797;fill-opacity:1;stroke:none;stroke-width:1;stroke-miterlimit:4;stroke-dasharray:none;stroke-opacity:1"
           d="M -70.029297,254.02148 A 312.85715,312.85715 0 0 0 -317.14258,559.50586 312.85715,312.85715 0 0 0 -69.263672,865.4043 625.7143,625.7143 0 0 1 -150,559.50586 625.7143,625.7143 0 0 1 -70.029297,254.02148 Z"
           id="path7264" />
        <path
           style="opacity:1;fill:#989898;fill-opacity:1;stroke:none;stroke-width:1;stroke-miterlimit:4;stroke-dasharray:none;stroke-opacity:1"
           inkscape:transform-center-x="-6.2162205"
           inkscape:transform-center-y="1.2569857"
           d="m 65.830391,590.29368 -34.04278,-38.79416 -51.25706,6.05063 26.3756404,-44.36466 -21.5937904,-46.87863 50.34382,11.3753 37.91137,-35.02321 4.73855,51.39498 45.024309,25.23309 -47.415239,20.38855 z"
           id="path7266"
           inkscape:connector-curvature="0" />
      </g>
      <path
         d="m 1016,963.36219 c 0,-39.4 31.6,-77 74,-77 33.8,0 61,23.2 61,58 0,20.8 -16.2,44 -41,44 -22,0 -34,-14 -34,-31 -3.6,0 -6,6 -6,12 0,16.6 19.8,34.00001 43,34.00001 30.4,0 62,-27.80001 62,-69.00001 0,-25.6 -12.4,-47 -23,-60 13,11 32,32.8 32,67 0,39.4 -31.6,77.00001 -74,77.00001 -33.8,0 -61,-23.20004 -61,-58.00001 0,-20.8 16.2,-44 41,-44 22,0 34,14 34,31 3.6,0 6,-6 6,-12 0,-16.6 -19.8,-34 -43,-34 -30.4,0 -62,27.8 -62,69 0,25.59997 12.4,47.00001 23,60.00001 -13,-11 -32,-32.80004 -32,-67.00001 z"
         inkscape:connector-curvature="0"
         id="path7268"
         style="fill:#a6a6a6;fill-opacity:1" />
      <g
         transform="matrix(1.3551283,0.78238535,-0.78238367,1.3551312,283.65504,637.20845)"
         id="g7270">
        <path
           inkscape:connector-curvature="0"
           style="opacity:1;fill:#dbdbdb;fill-opacity:1;stroke:none;stroke-width:1;stroke-miterlimit:4;stroke-dasharray:none;stroke-opacity:1"
           d="m 13.777344,47.224609 a 66,12.902841 0 0 0 -33.9375,11.271485 66,12.902841 0 0 0 66,12.904297 A 66,12.902841 0 0 0 111.83984,58.496094 66,12.902841 0 0 0 78.013672,47.248047 c 0.468222,1.299756 0.849654,2.634954 1.152344,3.994141 A 52.799999,9.3626051 0 0 1 98.640625,58.496094 52.799999,9.3626051 0 0 1 45.839844,67.859375 52.799999,9.3626051 0 0 1 -6.9609375,58.496094 52.799999,9.3626051 0 0 1 12.599609,51.228516 c 0.303951,-1.360852 0.703158,-2.695891 1.177735,-4.003907 z"
           id="path7272" />
        <path
           inkscape:connector-curvature="0"
           style="opacity:1;fill:#7e7e7e;fill-opacity:1;stroke:none;stroke-width:1;stroke-miterlimit:4;stroke-dasharray:none;stroke-opacity:1"
           d="M 45.882812,25.460938 A 33,33 0 0 0 12.884766,58.40625 l 0,0.05469 0,0.05469 A 33,33 0 0 0 13.5,64.724609 c 21.430684,2.890748 43.325357,3.019813 64.757812,-0.0098 a 33,33 0 0 0 0.625,-6.253906 33,33 0 0 0 -33,-33 z M 15.367188,70.966797 A 33,33 0 0 0 45.882812,91.460938 33,33 0 0 0 76.369141,71.027344 c -13.195746,1.359239 -26.607827,1.31669 -39.777344,1.232422 -6.990455,-0.405069 -14.13013,-0.674129 -21.224609,-1.292969 z"
           id="path7274" />
      </g>
      <g
         style="fill:#898989"
         transform="matrix(0.17006075,-0.14269792,0.14269792,0.17006075,439.28703,643.17004)"
         id="g7276">
        <path
           inkscape:connector-curvature="0"
           style="opacity:1;fill:#fafafa;fill-opacity:1;stroke:none;stroke-width:1;stroke-miterlimit:4;stroke-dasharray:none;stroke-opacity:1"
           d="M -70.029297,254.02148 A 312.85715,312.85715 0 0 0 -317.14258,559.50586 312.85715,312.85715 0 0 0 -69.263672,865.4043 625.7143,625.7143 0 0 1 -150,559.50586 625.7143,625.7143 0 0 1 -70.029297,254.02148 Z"
           id="path7278" />
        <path
           style="opacity:1;fill:#696969;fill-opacity:1;stroke:none;stroke-width:1;stroke-miterlimit:4;stroke-dasharray:none;stroke-opacity:1"
           inkscape:transform-center-x="-6.2162205"
           inkscape:transform-center-y="1.2569857"
           d="m 65.830391,590.29368 -34.04278,-38.79416 -51.25706,6.05063 26.3756404,-44.36466 -21.5937904,-46.87863 50.34382,11.3753 37.91137,-35.02321 4.73855,51.39498 45.024309,25.23309 -47.415239,20.38855 z"
           id="path7280"
           inkscape:connector-curvature="0" />
      </g>
      <path
         d="m 616,763.36219 c 0,-39.4 31.6,-77 74,-77 33.8,0 61,23.2 61,58 0,20.8 -16.2,44 -41,44 -22,0 -34,-14 -34,-31 -3.6,0 -6,6 -6,12 0,16.6 19.8,34.00001 43,34.00001 30.4,0 62,-27.80001 62,-69.00001 0,-25.6 -12.4,-47 -23,-60 13,11 32,32.8 32,67 0,39.4 -31.6,77.00001 -74,77.00001 -33.8,0 -61,-23.20004 -61,-58.00001 0,-20.8 16.2,-44 41,-44 22,0 34,14 34,31 3.6,0 6,-6 6,-12 0,-16.6 -19.8,-34 -43,-34 -30.4,0 -62,27.8 -62,69 0,25.59997 12.4,47.00001 23,60.00001 -13,-11 -32,-32.80004 -32,-67.00001 z"
         inkscape:connector-curvature="0"
         id="path7282" />
      <g
         style="fill:#e3e3e3;fill-opacity:1"
         id="g7284"
         transform="matrix(1.3551283,0.78238535,-0.78238367,1.3551312,883.65504,637.20845)">
        <path
           id="path7286"
           d="m 13.777344,47.224609 a 66,12.902841 0 0 0 -33.9375,11.271485 66,12.902841 0 0 0 66,12.904297 A 66,12.902841 0 0 0 111.83984,58.496094 66,12.902841 0 0 0 78.013672,47.248047 c 0.468222,1.299756 0.849654,2.634954 1.152344,3.994141 A 52.799999,9.3626051 0 0 1 98.640625,58.496094 52.799999,9.3626051 0 0 1 45.839844,67.859375 52.799999,9.3626051 0 0 1 -6.9609375,58.496094 52.799999,9.3626051 0 0 1 12.599609,51.228516 c 0.303951,-1.360852 0.703158,-2.695891 1.177735,-4.003907 z"
           style="opacity:1;fill:#5b5b5b;fill-opacity:1;stroke:none;stroke-width:1;stroke-miterlimit:4;stroke-dasharray:none;stroke-opacity:1"
           inkscape:connector-curvature="0" />
        <path
           id="path7288"
           d="M 45.882812,25.460938 A 33,33 0 0 0 12.884766,58.40625 l 0,0.05469 0,0.05469 A 33,33 0 0 0 13.5,64.724609 c 21.430684,2.890748 43.325357,3.019813 64.757812,-0.0098 a 33,33 0 0 0 0.625,-6.253906 33,33 0 0 0 -33,-33 z M 15.367188,70.966797 A 33,33 0 0 0 45.882812,91.460938 33,33 0 0 0 76.369141,71.027344 c -13.195746,1.359239 -26.607827,1.31669 -39.777344,1.232422 -6.990455,-0.405069 -14.13013,-0.674129 -21.224609,-1.292969 z"
           style="opacity:1;fill:#616161;fill-opacity:1;stroke:none;stroke-width:1;stroke-miterlimit:4;stroke-dasharray:none;stroke-opacity:1"
           inkscape:connector-curvature="0" />
      </g>
      <g
         id="g7290"
         transform="matrix(0.17006075,-0.14269792,0.14269792,0.17006075,1039.287,643.17004)"
         style="fill:#e1e1e1;fill-opacity:1">
        <path
           id="path7292"
           d="M -70.029297,254.02148 A 312.85715,312.85715 0 0 0 -317.14258,559.50586 312.85715,312.85715 0 0 0 -69.263672,865.4043 625.7143,625.7143 0 0 1 -150,559.50586 625.7143,625.7143 0 0 1 -70.029297,254.02148 Z"
           style="opacity:1;fill:#dddddd;fill-opacity:1;stroke:none;stroke-width:1;stroke-miterlimit:4;stroke-dasharray:none;stroke-opacity:1"
           inkscape:connector-curvature="0" />
        <path
           inkscape:connector-curvature="0"
           id="path7294"
           d="m 65.830391,590.29368 -34.04278,-38.79416 -51.25706,6.05063 26.3756404,-44.36466 -21.5937904,-46.87863 50.34382,11.3753 37.91137,-35.02321 4.73855,51.39498 45.024309,25.23309 -47.415239,20.38855 z"
           inkscape:transform-center-y="1.2569857"
           inkscape:transform-center-x="-6.2162205"
           style="opacity:1;fill:#161616;fill-opacity:1;stroke:none;stroke-width:1;stroke-miterlimit:4;stroke-dasharray:none;stroke-opacity:1" />
      </g>
      <path
         style="fill:#c6c6c6;fill-opacity:1"
         id="path7296"
         inkscape:connector-curvature="0"
         d="m 16,763.36219 c 0,-39.4 31.6,-77 74,-77 33.8,0 61,23.2 61,58 0,20.8 -16.2,44 -41,44 -22,0 -34,-14 -34,-31 -3.6,0 -6,6 -6,12 0,16.6 19.8,34.00001 43,34.00001 30.4,0 62,-27.80001 62,-69.00001 0,-25.6 -12.4,-47 -23,-60 13,11 32,32.8 32,67 0,39.4 -31.6,77.00001 -74,77.00001 -33.8,0 -61,-23.20004 -61,-58.00001 0,-20.8 16.2,-44 41,-44 22,0 34,14 34,31 3.6,0 6,-6 6,-12 0,-16.6 -19.8,-34 -43,-34 -30.4,0 -62,27.8 -62,69 0,25.59997 12.4,47.00001 23,60.00001 -13,-11 -32,-32.80004 -32,-67.00001 z" />
      <g
         id="g7298"
         transform="matrix(1.3551283,0.78238535,-0.78238367,1.3551312,483.65504,437.20845)">
        <path
           id="path7300"
           d="m 13.777344,47.224609 a 66,12.902841 0 0 0 -33.9375,11.271485 66,12.902841 0 0 0 66,12.904297 A 66,12.902841 0 0 0 111.83984,58.496094 66,12.902841 0 0 0 78.013672,47.248047 c 0.468222,1.299756 0.849654,2.634954 1.152344,3.994141 A 52.799999,9.3626051 0 0 1 98.640625,58.496094 52.799999,9.3626051 0 0 1 45.839844,67.859375 52.799999,9.3626051 0 0 1 -6.9609375,58.496094 52.799999,9.3626051 0 0 1 12.599609,51.228516 c 0.303951,-1.360852 0.703158,-2.695891 1.177735,-4.003907 z"
           style="opacity:1;fill:#272727;fill-opacity:1;stroke:none;stroke-width:1;stroke-miterlimit:4;stroke-dasharray:none;stroke-opacity:1"
           inkscape:connector-curvature="0" />
        <path
           id="path7302"
           d="M 45.882812,25.460938 A 33,33 0 0 0 12.884766,58.40625 l 0,0.05469 0,0.05469 A 33,33 0 0 0 13.5,64.724609 c 21.430684,2.890748 43.325357,3.019813 64.757812,-0.0098 a 33,33 0 0 0 0.625,-6.253906 33,33 0 0 0 -33,-33 z M 15.367188,70.966797 A 33,33 0 0 0 45.882812,91.460938 33,33 0 0 0 76.369141,71.027344 c -13.195746,1.359239 -26.607827,1.31669 -39.777344,1.232422 -6.990455,-0.405069 -14.13013,-0.674129 -21.224609,-1.292969 z"
           style="opacity:1;fill:#282828;fill-opacity:1;stroke:none;stroke-width:1;stroke-miterlimit:4;stroke-dasharray:none;stroke-opacity:1"
           inkscape:connector-curvature="0" />
      </g>
      <g
         id="g7304"
         transform="matrix(0.17006075,-0.14269792,0.14269792,0.17006075,639.28703,443.17004)"
         style="fill:#393939">
        <path
           id="path7306"
           d="M -70.029297,254.02148 A 312.85715,312.85715 0 0 0 -317.14258,559.50586 312.85715,312.85715 0 0 0 -69.263672,865.4043 625.7143,625.7143 0 0 1 -150,559.50586 625.7143,625.7143 0 0 1 -70.029297,254.02148 Z"
           style="opacity:1;fill:#dfdfdf;fill-opacity:1;stroke:none;stroke-width:1;stroke-miterlimit:4;stroke-dasharray:none;stroke-opacity:1"
           inkscape:connector-curvature="0" />
        <path
           inkscape:connector-curvature="0"
           id="path7308"
           d="m 65.830391,590.29368 -34.04278,-38.79416 -51.25706,6.05063 26.3756404,-44.36466 -21.5937904,-46.87863 50.34382,11.3753 37.91137,-35.02321 4.73855,51.39498 45.024309,25.23309 -47.415239,20.38855 z"
           inkscape:transform-center-y="1.2569857"
           inkscape:transform-center-x="-6.2162205"
           style="opacity:1;fill:#cecece;fill-opacity:1;stroke:none;stroke-width:1;stroke-miterlimit:4;stroke-dasharray:none;stroke-opacity:1" />
      </g>
      <path
         id="path7310"
         inkscape:connector-curvature="0"
         d="m 816,563.36219 c 0,-39.4 31.6,-77 74,-77 33.8,0 61,23.2 61,58 0,20.8 -16.2,44 -41,44 -22,0 -34,-14 -34,-31 -3.6,0 -6,6 -6,12 0,16.6 19.8,34.00001 43,34.00001 30.4,0 62,-27.80001 62,-69.00001 0,-25.6 -12.4,-47 -23,-60 13,11 32,32.8 32,67 0,39.4 -31.6,77.00001 -74,77.00001 -33.8,0 -61,-23.20004 -61,-58.00001 0,-20.8 16.2,-44 41,-44 22,0 34,14 34,31 3.6,0 6,-6 6,-12 0,-16.6 -19.8,-34 -43,-34 -30.4,0 -62,27.8 -62,69 0,25.59997 12.4,47.00001 23,60.00001 -13,-11 -32,-32.80004 -32,-67.00001 z" />
      <g
         transform="matrix(1.3551283,0.78238535,-0.78238367,1.3551312,1083.655,437.20845)"
         id="g7312"
         style="fill:#646464;fill-opacity:1">
        <path
           inkscape:connector-curvature="0"
           style="opacity:1;fill:#b2b2b2;fill-opacity:1;stroke:none;stroke-width:1;stroke-miterlimit:4;stroke-dasharray:none;stroke-opacity:1"
           d="m 13.777344,47.224609 a 66,12.902841 0 0 0 -33.9375,11.271485 66,12.902841 0 0 0 66,12.904297 A 66,12.902841 0 0 0 111.83984,58.496094 66,12.902841 0 0 0 78.013672,47.248047 c 0.468222,1.299756 0.849654,2.634954 1.152344,3.994141 A 52.799999,9.3626051 0 0 1 98.640625,58.496094 52.799999,9.3626051 0 0 1 45.839844,67.859375 52.799999,9.3626051 0 0 1 -6.9609375,58.496094 52.799999,9.3626051 0 0 1 12.599609,51.228516 c 0.303951,-1.360852 0.703158,-2.695891 1.177735,-4.003907 z"
           id="path7314" />
        <path
           inkscape:connector-curvature="0"
           style="opacity:1;fill:#7e7e7e;fill-opacity:1;stroke:none;stroke-width:1;stroke-miterlimit:4;stroke-dasharray:none;stroke-opacity:1"
           d="M 45.882812,25.460938 A 33,33 0 0 0 12.884766,58.40625 l 0,0.05469 0,0.05469 A 33,33 0 0 0 13.5,64.724609 c 21.430684,2.890748 43.325357,3.019813 64.757812,-0.0098 a 33,33 0 0 0 0.625,-6.253906 33,33 0 0 0 -33,-33 z M 15.367188,70.966797 A 33,33 0 0 0 45.882812,91.460938 33,33 0 0 0 76.369141,71.027344 c -13.195746,1.359239 -26.607827,1.31669 -39.777344,1.232422 -6.990455,-0.405069 -14.13013,-0.674129 -21.224609,-1.292969 z"
           id="path7316" />
      </g>
      <g
         style="fill:#cfcfcf;fill-opacity:1"
         transform="matrix(0.17006075,-0.14269792,0.14269792,0.17006075,39.287,443.17004)"
         id="g7318">
        <path
           inkscape:connector-curvature="0"
           style="opacity:1;fill:#949494;fill-opacity:1;stroke:none;stroke-width:1;stroke-miterlimit:4;stroke-dasharray:none;stroke-opacity:1"
           d="M -70.029297,254.02148 A 312.85715,312.85715 0 0 0 -317.14258,559.50586 312.85715,312.85715 0 0 0 -69.263672,865.4043 625.7143,625.7143 0 0 1 -150,559.50586 625.7143,625.7143 0 0 1 -70.029297,254.02148 Z"
           id="path7320" />
        <path
           style="opacity:1;fill:#6b6b6b;fill-opacity:1;stroke:none;stroke-width:1;stroke-miterlimit:4;stroke-dasharray:none;stroke-opacity:1"
           inkscape:transform-center-x="-6.2162205"
           inkscape:transform-center-y="1.2569857"
           d="m 65.830391,590.29368 -34.04278,-38.79416 -51.25706,6.05063 26.3756404,-44.36466 -21.5937904,-46.87863 50.34382,11.3753 37.91137,-35.02321 4.73855,51.39498 45.024309,25.23309 -47.415239,20.38855 z"
           id="path7322"
           inkscape:connector-curvature="0" />
      </g>
      <path
         d="m 216,563.36219 c 0,-39.4 31.6,-77 74,-77 33.8,0 61,23.2 61,58 0,20.8 -16.2,44 -41,44 -22,0 -34,-14 -34,-31 -3.6,0 -6,6 -6,12 0,16.6 19.8,34.00001 43,34.00001 30.4,0 62,-27.80001 62,-69.00001 0,-25.6 -12.4,-47 -23,-60 13,11 32,32.8 32,67 0,39.4 -31.6,77.00001 -74,77.00001 -33.8,0 -61,-23.20004 -61,-58.00001 0,-20.8 16.2,-44 41,-44 22,0 34,14 34,31 3.6,0 6,-6 6,-12 0,-16.6 -19.8,-34 -43,-34 -30.4,0 -62,27.8 -62,69 0,25.59997 12.4,47.00001 23,60.00001 -13,-11 -32,-32.80004 -32,-67.00001 z"
         inkscape:connector-curvature="0"
         id="path7324"
         style="fill:#6b6b6b;fill-opacity:1" />
      <g
         transform="matrix(1.3551283,0.78238535,-0.78238367,1.3551312,683.65504,237.20845)"
         id="g7326">
        <path
           inkscape:connector-curvature="0"
           style="opacity:1;fill:#a7a7a7;fill-opacity:1;stroke:none;stroke-width:1;stroke-miterlimit:4;stroke-dasharray:none;stroke-opacity:1"
           d="m 13.777344,47.224609 a 66,12.902841 0 0 0 -33.9375,11.271485 66,12.902841 0 0 0 66,12.904297 A 66,12.902841 0 0 0 111.83984,58.496094 66,12.902841 0 0 0 78.013672,47.248047 c 0.468222,1.299756 0.849654,2.634954 1.152344,3.994141 A 52.799999,9.3626051 0 0 1 98.640625,58.496094 52.799999,9.3626051 0 0 1 45.839844,67.859375 52.799999,9.3626051 0 0 1 -6.9609375,58.496094 52.799999,9.3626051 0 0 1 12.599609,51.228516 c 0.303951,-1.360852 0.703158,-2.695891 1.177735,-4.003907 z"
           id="path7328" />
        <path
           inkscape:connector-curvature="0"
           style="opacity:1;fill:#2f2f2f;fill-opacity:1;stroke:none;stroke-width:1;stroke-miterlimit:4;stroke-dasharray:none;stroke-opacity:1"
           d="M 45.882812,25.460938 A 33,33 0 0 0 12.884766,58.40625 l 0,0.05469 0,0.05469 A 33,33 0 0 0 13.5,64.724609 c 21.430684,2.890748 43.325357,3.019813 64.757812,-0.0098 a 33,33 0 0 0 0.625,-6.253906 33,33 0 0 0 -33,-33 z M 15.367188,70.966797 A 33,33 0 0 0 45.882812,91.460938 33,33 0 0 0 76.369141,71.027344 c -13.195746,1.359239 -26.607827,1.31669 -39.777344,1.232422 -6.990455,-0.405069 -14.13013,-0.674129 -21.224609,-1.292969 z"
           id="path7330" />
      </g>
      <g
         style="fill:#050505"
         transform="matrix(0.17006075,-0.14269792,0.14269792,0.17006075,839.28703,243.17004)"
         id="g7332">
        <path
           inkscape:connector-curvature="0"
           style="opacity:1;fill:#474747;fill-opacity:1;stroke:none;stroke-width:1;stroke-miterlimit:4;stroke-dasharray:none;stroke-opacity:1"
           d="M -70.029297,254.02148 A 312.85715,312.85715 0 0 0 -317.14258,559.50586 312.85715,312.85715 0 0 0 -69.263672,865.4043 625.7143,625.7143 0 0 1 -150,559.50586 625.7143,625.7143 0 0 1 -70.029297,254.02148 Z"
           id="path7334" />
        <path
           style="opacity:1;fill:#646464;fill-opacity:1;stroke:none;stroke-width:1;stroke-miterlimit:4;stroke-dasharray:none;stroke-opacity:1"
           inkscape:transform-center-x="-6.2162205"
           inkscape:transform-center-y="1.2569857"
           d="m 65.830391,590.29368 -34.04278,-38.79416 -51.25706,6.05063 26.3756404,-44.36466 -21.5937904,-46.87863 50.34382,11.3753 37.91137,-35.02321 4.73855,51.39498 45.024309,25.23309 -47.415239,20.38855 z"
           id="path7336"
           inkscape:connector-curvature="0" />
      </g>
      <path
         d="m 1016,363.36219 c 0,-39.4 31.6,-77 74,-77 33.8,0 61,23.2 61,58 0,20.8 -16.2,44 -41,44 -22,0 -34,-14 -34,-31 -3.6,0 -6,6 -6,12 0,16.6 19.8,34.00001 43,34.00001 30.4,0 62,-27.80001 62,-69.00001 0,-25.6 -12.4,-47 -23,-60 13,11 32,32.8 32,67 0,39.4 -31.6,77.00001 -74,77.00001 -33.8,0 -61,-23.20004 -61,-58.00001 0,-20.8 16.2,-44 41,-44 22,0 34,14 34,31 3.6,0 6,-6 6,-12 0,-16.6 -19.8,-34 -43,-34 -30.4,0 -62,27.8 -62,69 0,25.59997 12.4,47.00001 23,60.00001 -13,-11 -32,-32.80004 -32,-67.00001 z"
         inkscape:connector-curvature="0"
         id="path7338" />
      <g
         style="fill:#929292;fill-opacity:1"
         id="g7340"
         transform="matrix(1.3551283,0.78238535,-0.78238367,1.3551312,83.655,237.20845)">
        <path
           id="path7342"
           d="m 13.777344,47.224609 a 66,12.902841 0 0 0 -33.9375,11.271485 66,12.902841 0 0 0 66,12.904297 A 66,12.902841 0 0 0 111.83984,58.496094 66,12.902841 0 0 0 78.013672,47.248047 c 0.468222,1.299756 0.849654,2.634954 1.152344,3.994141 A 52.799999,9.3626051 0 0 1 98.640625,58.496094 52.799999,9.3626051 0 0 1 45.839844,67.859375 52.799999,9.3626051 0 0 1 -6.9609375,58.496094 52.799999,9.3626051 0 0 1 12.599609,51.228516 c 0.303951,-1.360852 0.703158,-2.695891 1.177735,-4.003907 z"
           style="opacity:1;fill:#ececec;fill-opacity:1;stroke:none;stroke-width:1;stroke-miterlimit:4;stroke-dasharray:none;stroke-opacity:1"
           inkscape:connector-curvature="0" />
        <path
           id="path7344"
           d="M 45.882812,25.460938 A 33,33 0 0 0 12.884766,58.40625 l 0,0.05469 0,0.05469 A 33,33 0 0 0 13.5,64.724609 c 21.430684,2.890748 43.325357,3.019813 64.757812,-0.0098 a 33,33 0 0 0 0.625,-6.253906 33,33 0 0 0 -33,-33 z M 15.367188,70.966797 A 33,33 0 0 0 45.882812,91.460938 33,33 0 0 0 76.369141,71.027344 c -13.195746,1.359239 -26.607827,1.31669 -39.777344,1.232422 -6.990455,-0.405069 -14.13013,-0.674129 -21.224609,-1.292969 z"
           style="opacity:1;fill:#5b5b5b;fill-opacity:1;stroke:none;stroke-width:1;stroke-miterlimit:4;stroke-dasharray:none;stroke-opacity:1"
           inkscape:connector-curvature="0" />
      </g>
      <g
         id="g7346"
         transform="matrix(0.17006075,-0.14269792,0.14269792,0.17006075,239.287,243.17004)"
         style="fill:#181818;fill-opacity:1">
        <path
           id="path7348"
           d="M -70.029297,254.02148 A 312.85715,312.85715 0 0 0 -317.14258,559.50586 312.85715,312.85715 0 0 0 -69.263672,865.4043 625.7143,625.7143 0 0 1 -150,559.50586 625.7143,625.7143 0 0 1 -70.029297,254.02148 Z"
           style="opacity:1;fill:#c3c3c3;fill-opacity:1;stroke:none;stroke-width:1;stroke-miterlimit:4;stroke-dasharray:none;stroke-opacity:1"
           inkscape:connector-curvature="0" />
        <path
           inkscape:connector-curvature="0"
           id="path7350"
           d="m 65.830391,590.29368 -34.04278,-38.79416 -51.25706,6.05063 26.3756404,-44.36466 -21.5937904,-46.87863 50.34382,11.3753 37.91137,-35.02321 4.73855,51.39498 45.024309,25.23309 -47.415239,20.38855 z"
           inkscape:transform-center-y="1.2569857"
           inkscape:transform-center-x="-6.2162205"
           style="opacity:1;fill:#cacaca;fill-opacity:1;stroke:none;stroke-width:1;stroke-miterlimit:4;stroke-dasharray:none;stroke-opacity:1" />
      </g>
      <path
         style="fill:#e5e5e5;fill-opacity:1"
         id="path7352"
         inkscape:connector-curvature="0"
         d="m 416,363.36219 c 0,-39.4 31.6,-77 74,-77 33.8,0 61,23.2 61,58 0,20.8 -16.2,44 -41,44 -22,0 -34,-14 -34,-31 -3.6,0 -6,6 -6,12 0,16.6 19.8,34.00001 43,34.00001 30.4,0 62,-27.80001 62,-69.00001 0,-25.6 -12.4,-47 -23,-60 13,11 32,32.8 32,67 0,39.4 -31.6,77.00001 -74,77.00001 -33.8,0 -61,-23.20004 -61,-58.00001 0,-20.8 16.2,-44 41,-44 22,0 34,14 34,31 3.6,0 6,-6 6,-12 0,-16.6 -19.8,-34 -43,-34 -30.4,0 -62,27.8 -62,69 0,25.59997 12.4,47.00001 23,60.00001 -13,-11 -32,-32.80004 -32,-67.00001 z" />
      <g
         id="g7354"
         transform="matrix(1.3551283,0.78238535,-0.78238367,1.3551312,883.65504,37.20845)">
        <path
           id="path7356"
           d="m 13.777344,47.224609 a 66,12.902841 0 0 0 -33.9375,11.271485 66,12.902841 0 0 0 66,12.904297 A 66,12.902841 0 0 0 111.83984,58.496094 66,12.902841 0 0 0 78.013672,47.248047 c 0.468222,1.299756 0.849654,2.634954 1.152344,3.994141 A 52.799999,9.3626051 0 0 1 98.640625,58.496094 52.799999,9.3626051 0 0 1 45.839844,67.859375 52.799999,9.3626051 0 0 1 -6.9609375,58.496094 52.799999,9.3626051 0 0 1 12.599609,51.228516 c 0.303951,-1.360852 0.703158,-2.695891 1.177735,-4.003907 z"
           style="opacity:1;fill:#0f0f0f;fill-opacity:1;stroke:none;stroke-width:1;stroke-miterlimit:4;stroke-dasharray:none;stroke-opacity:1"
           inkscape:connector-curvature="0" />
        <path
           id="path7358"
           d="M 45.882812,25.460938 A 33,33 0 0 0 12.884766,58.40625 l 0,0.05469 0,0.05469 A 33,33 0 0 0 13.5,64.724609 c 21.430684,2.890748 43.325357,3.019813 64.757812,-0.0098 a 33,33 0 0 0 0.625,-6.253906 33,33 0 0 0 -33,-33 z M 15.367188,70.966797 A 33,33 0 0 0 45.882812,91.460938 33,33 0 0 0 76.369141,71.027344 c -13.195746,1.359239 -26.607827,1.31669 -39.777344,1.232422 -6.990455,-0.405069 -14.13013,-0.674129 -21.224609,-1.292969 z"
           style="opacity:1;fill:#464646;fill-opacity:1;stroke:none;stroke-width:1;stroke-miterlimit:4;stroke-dasharray:none;stroke-opacity:1"
           inkscape:connector-curvature="0" />
      </g>
      <g
         id="g7360"
         transform="matrix(0.17006075,-0.14269792,0.14269792,0.17006075,1039.287,43.17004)"
         style="fill:#9a9a9a">
        <path
           id="path7362"
           d="M -70.029297,254.02148 A 312.85715,312.85715 0 0 0 -317.14258,559.50586 312.85715,312.85715 0 0 0 -69.263672,865.4043 625.7143,625.7143 0 0 1 -150,559.50586 625.7143,625.7143 0 0 1 -70.029297,254.02148 Z"
           style="opacity:1;fill:#ebebeb;fill-opacity:1;stroke:none;stroke-width:1;stroke-miterlimit:4;stroke-dasharray:none;stroke-opacity:1"
           inkscape:connector-curvature="0" />
        <path
           inkscape:connector-curvature="0"
           id="path7364"
           d="m 65.830391,590.29368 -34.04278,-38.79416 -51.25706,6.05063 26.3756404,-44.36466 -21.5937904,-46.87863 50.34382,11.3753 37.91137,-35.02321 4.73855,51.39498 45.024309,25.23309 -47.415239,20.38855 z"
           inkscape:transform-center-y="1.2569857"
           inkscape:transform-center-x="-6.2162205"
           style="opacity:1;fill:#8e8e8e;fill-opacity:1;stroke:none;stroke-width:1;stroke-miterlimit:4;stroke-dasharray:none;stroke-opacity:1" />
      </g>
      <path
         id="path7366"
         inkscape:connector-curvature="0"
         d="m 16,163.36219 c 0,-39.4 31.6,-77 74,-77 33.8,0 61,23.2 61,58 0,20.8 -16.2,44 -41,44 -22,0 -34,-14 -34,-31 -3.6,0 -6,6 -6,12 0,16.6 19.8,34.00001 43,34.00001 30.4,0 62,-27.80001 62,-69.00001 0,-25.6 -12.4,-47 -23,-60 13,11 32,32.8 32,67 0,39.4 -31.6,77.00001 -74,77.00001 -33.8,0 -61,-23.20004 -61,-58.00001 0,-20.8 16.2,-44 41,-44 22,0 34,14 34,31 3.6,0 6,-6 6,-12 0,-16.6 -19.8,-34 -43,-34 -30.4,0 -62,27.8 -62,69 0,25.59997 12.4,47.00001 23,60.00001 -13,-11 -32,-32.80004 -32,-67.00001 z" />
      <g
         transform="matrix(1.3551283,0.78238535,-0.78238367,1.3551312,283.655,37.20845)"
         id="g7368"
         style="fill:#949494;fill-opacity:1">
        <path
           inkscape:connector-curvature="0"
           style="opacity:1;fill:#555555;fill-opacity:1;stroke:none;stroke-width:1;stroke-miterlimit:4;stroke-dasharray:none;stroke-opacity:1"
           d="m 13.777344,47.224609 a 66,12.902841 0 0 0 -33.9375,11.271485 66,12.902841 0 0 0 66,12.904297 A 66,12.902841 0 0 0 111.83984,58.496094 66,12.902841 0 0 0 78.013672,47.248047 c 0.468222,1.299756 0.849654,2.634954 1.152344,3.994141 A 52.799999,9.3626051 0 0 1 98.640625,58.496094 52.799999,9.3626051 0 0 1 45.839844,67.859375 52.799999,9.3626051 0 0 1 -6.9609375,58.496094 52.799999,9.3626051 0 0 1 12.599609,51.228516 c 0.303951,-1.360852 0.703158,-2.695891 1.177735,-4.003907 z"
           id="path7370" />
        <path
           inkscape:connector-curvature="0"
           style="opacity:1;fill:#595959;fill-opacity:1;stroke:none;stroke-width:1;stroke-miterlimit:4;stroke-dasharray:none;stroke-opacity:1"
           d="M 45.882812,25.460938 A 33,33 0 0 0 12.884766,58.40625 l 0,0.05469 0,0.05469 A 33,33 0 0 0 13.5,64.724609 c 21.430684,2.890748 43.325357,3.019813 64.757812,-0.0098 a 33,33 0 0 0 0.625,-6.253906 33,33 0 0 0 -33,-33 z M 15.367188,70.966797 A 33,33 0 0 0 45.882812,91.460938 33,33 0 0 0 76.369141,71.027344 c -13.195746,1.359239 -26.607827,1.31669 -39.777344,1.232422 -6.990455,-0.405069 -14.13013,-0.674129 -21.224609,-1.292969 z"
           id="path7372" />
      </g>
      <g
         style="fill:#8f8f8f;fill-opacity:1"
         transform="matrix(0.17006075,-0.14269792,0.14269792,0.17006075,439.287,43.17004)"
         id="g7374">
        <path
           inkscape:connector-curvature="0"
           style="opacity:1;fill:#464646;fill-opacity:1;stroke:none;stroke-width:1;stroke-miterlimit:4;stroke-dasharray:none;stroke-opacity:1"
           d="M -70.029297,254.02148 A 312.85715,312.85715 0 0 0 -317.14258,559.50586 312.85715,312.85715 0 0 0 -69.263672,865.4043 625.7143,625.7143 0 0 1 -150,559.50586 625.7143,625.7143 0 0 1 -70.029297,254.02148 Z"
           id="path7376" />
        <path
           style="opacity:1;fill:#fdfdfd;fill-opacity:1;stroke:none;stroke-width:1;stroke-miterlimit:4;stroke-dasharray:none;stroke-opacity:1"
           inkscape:transform-center-x="-6.2162205"
           inkscape:transform-center-y="1.2569857"
           d="m 65.830391,590.29368 -34.04278,-38.79416 -51.25706,6.05063 26.3756404,-44.36466 -21.5937904,-46.87863 50.34382,11.3753 37.91137,-35.02321 4.73855,51.39498 45.024309,25.23309 -47.415239,20.38855 z"
           id="path7378"
           inkscape:connector-curvature="0" />
      </g>
      <path
         d="m 616,163.36219 c 0,-39.4 31.6,-77 74,-77 33.8,0 61,23.2 61,58 0,20.8 -16.2,44 -41,44 -22,0 -34,-14 -34,-31 -3.6,0 -6,6 -6,12 0,16.6 19.8,34.00001 43,34.00001 30.4,0 62,-27.80001 62,-69.00001 0,-25.6 -12.4,-47 -23,-60 13,11 32,32.8 32,67 0,39.4 -31.6,77.00001 -74,77.00001 -33.8,0 -61,-23.20004 -61,-58.00001 0,-20.8 16.2,-44 41,-44 22,0 34,14 34,31 3.6,0 6,-6 6,-12 0,-16.6 -19.8,-34 -43,-34 -30.4,0 -62,27.8 -62,69 0,25.59997 12.4,47.00001 23,60.00001 -13,-11 -32,-32.80004 -32,-67.00001 z"
         inkscape:connector-curvature="0"
         id="path7380"
         style="fill:#858585;fill-opacity:1" />
      <g
         transform="matrix(1.3551283,0.78238535,-0.78238367,1.3551312,1083.655,-162.79155)"
         id="g7382">
        <path
           inkscape:connector-curvature="0"
           style="opacity:1;fill:#292929;fill-opacity:1;stroke:none;stroke-width:1;stroke-miterlimit:4;stroke-dasharray:none;stroke-opacity:1"
           d="m 13.777344,47.224609 a 66,12.902841 0 0 0 -33.9375,11.271485 66,12.902841 0 0 0 66,12.904297 A 66,12.902841 0 0 0 111.83984,58.496094 66,12.902841 0 0 0 78.013672,47.248047 c 0.468222,1.299756 0.849654,2.634954 1.152344,3.994141 A 52.799999,9.3626051 0 0 1 98.640625,58.496094 52.799999,9.3626051 0 0 1 45.839844,67.859375 52.799999,9.3626051 0 0 1 -6.9609375,58.496094 52.799999,9.3626051 0 0 1 12.599609,51.228516 c 0.303951,-1.360852 0.703158,-2.695891 1.177735,-4.003907 z"
           id="path7384" />
        <path
           inkscape:connector-curvature="0"
           style="opacity:1;fill:#878787;fill-opacity:1;stroke:none;stroke-width:1;stroke-miterlimit:4;stroke-dasharray:none;stroke-opacity:1"
           d="M 45.882812,25.460938 A 33,33 0 0 0 12.884766,58.40625 l 0,0.05469 0,0.05469 A 33,33 0 0 0 13.5,64.724609 c 21.430684,2.890748 43.325357,3.019813 64.757812,-0.0098 a 33,33 0 0 0 0.625,-6.253906 33,33 0 0 0 -33,-33 z M 15.367188,70.966797 A 33,33 0 0 0 45.882812,91.460938 33,33 0 0 0 76.369141,71.027344 c -13.195746,1.359239 -26.607827,1.31669 -39.777344,1.232422 -6.990455,-0.405069 -14.13013,-0.674129 -21.224609,-1.292969 z"
           id="path7386" />
      </g>
      <g
         style="fill:#636363"
         transform="matrix(0.17006075,-0.14269792,0.14269792,0.17006075,39.287,-156.82996)"
         id="g7388">
        <path
           inkscape:connector-curvature="0"
           style="opacity:1;fill:#bababa;fill-opacity:1;stroke:none;stroke-width:1;stroke-miterlimit:4;stroke-dasharray:none;stroke-opacity:1"
           d="M -70.029297,254.02148 A 312.85715,312.85715 0 0 0 -317.14258,559.50586 312.85715,312.85715 0 0 0 -69.263672,865.4043 625.7143,625.7143 0 0 1 -150,559.50586 625.7143,625.7143 0 0 1 -70.029297,254.02148 Z"
           id="path7390" />
        <path
           style="opacity:1;fill:#1e1e1e;fill-opacity:1;stroke:none;stroke-width:1;stroke-miterlimit:4;stroke-dasharray:none;stroke-opacity:1"
           inkscape:transform-center-x="-6.2162205"
           inkscape:transform-center-y="1.2569857"
           d="m 65.830391,590.29368 -34.04278,-38.79416 -51.25706,6.05063 26.3756404,-44.36466 -21.5937904,-46.87863 50.34382,11.3753 37.91137,-35.02321 4.73855,51.39498 45.024309,25.23309 -47.415239,20.38855 z"
           id="path7392"
           inkscape:connector-curvature="0" />
      </g>
      <path
         d="m 216,-36.63781 c 0,-39.4 31.6,-77 74,-77 33.8,0 61,23.2 61,58 0,20.8 -16.2,44 -41,44 -22,0 -34,-14 -34,-31 -3.6,0 -6,6 -6,12 0,16.6 19.8,34.00001 43,34.00001 30.4,0 62,-27.80001 62,-69.00001 0,-25.6 -12.4,-47 -23,-60 13,11 32,32.8 32,67 0,39.4 -31.6,77.00001 -74,77.00001 -33.8,0 -61,-23.20004 -61,-58.00001 0,-20.8 16.2,-44 41,-44 22,0 34,14 34,31 3.6,0 6,-6 6,-12 0,-16.6 -19.8,-34 -43,-34 -30.4,0 -62,27.8 -62,69 0,25.59997 12.4,47.00001 23,60.00001 -13,-11 -32,-32.80004 -32,-67.00001 z"
         inkscape:connector-curvature="0"
         id="path7394" />
      <g
         style="fill:#cfcfcf;fill-opacity:1"
         id="g7396"
         transform="matrix(1.3551283,0.78238535,-0.78238367,1.3551312,483.655,-162.79155)">
        <path
           id="path7398"
           d="m 13.777344,47.224609 a 66,12.902841 0 0 0 -33.9375,11.271485 66,12.902841 0 0 0 66,12.904297 A 66,12.902841 0 0 0 111.83984,58.496094 66,12.902841 0 0 0 78.013672,47.248047 c 0.468222,1.299756 0.849654,2.634954 1.152344,3.994141 A 52.799999,9.3626051 0 0 1 98.640625,58.496094 52.799999,9.3626051 0 0 1 45.839844,67.859375 52.799999,9.3626051 0 0 1 -6.9609375,58.496094 52.799999,9.3626051 0 0 1 12.599609,51.228516 c 0.303951,-1.360852 0.703158,-2.695891 1.177735,-4.003907 z"
           style="opacity:1;fill:#646464;fill-opacity:1;stroke:none;stroke-width:1;stroke-miterlimit:4;stroke-dasharray:none;stroke-opacity:1"
           inkscape:connector-curvature="0" />
        <path
           id="path7400"
           d="M 45.882812,25.460938 A 33,33 0 0 0 12.884766,58.40625 l 0,0.05469 0,0.05469 A 33,33 0 0 0 13.5,64.724609 c 21.430684,2.890748 43.325357,3.019813 64.757812,-0.0098 a 33,33 0 0 0 0.625,-6.253906 33,33 0 0 0 -33,-33 z M 15.367188,70.966797 A 33,33 0 0 0 45.882812,91.460938 33,33 0 0 0 76.369141,71.027344 c -13.195746,1.359239 -26.607827,1.31669 -39.777344,1.232422 -6.990455,-0.405069 -14.13013,-0.674129 -21.224609,-1.292969 z"
           style="opacity:1;fill:#b3b3b3;fill-opacity:1;stroke:none;stroke-width:1;stroke-miterlimit:4;stroke-dasharray:none;stroke-opacity:1"
           inkscape:connector-curvature="0" />
      </g>
      <g
         id="g7402"
         transform="matrix(0.17006075,-0.14269792,0.14269792,0.17006075,639.287,-156.82996)"
         style="fill:#8a8a8a;fill-opacity:1">
        <path
           id="path7404"
           d="M -70.029297,254.02148 A 312.85715,312.85715 0 0 0 -317.14258,559.50586 312.85715,312.85715 0 0 0 -69.263672,865.4043 625.7143,625.7143 0 0 1 -150,559.50586 625.7143,625.7143 0 0 1 -70.029297,254.02148 Z"
           style="opacity:1;fill:#c2c2c2;fill-opacity:1;stroke:none;stroke-width:1;stroke-miterlimit:4;stroke-dasharray:none;stroke-opacity:1"
           inkscape:connector-curvature="0" />
        <path
           inkscape:connector-curvature="0"
           id="path7406"
           d="m 65.830391,590.29368 -34.04278,-38.79416 -51.25706,6.05063 26.3756404,-44.36466 -21.5937904,-46.87863 50.34382,11.3753 37.91137,-35.02321 4.73855,51.39498 45.024309,25.23309 -47.415239,20.38855 z"
           inkscape:transform-center-y="1.2569857"
           inkscape:transform-center-x="-6.2162205"
           style="opacity:1;fill:#7a7a7a;fill-opacity:1;stroke:none;stroke-width:1;stroke-miterlimit:4;stroke-dasharray:none;stroke-opacity:1" />
      </g>
      <path
         style="fill:#404040;fill-opacity:1"
         id="path7408"
         inkscape:connector-curvature="0"
         d="m 816,-36.63781 c 0,-39.4 31.6,-77 74,-77 33.8,0 61,23.2 61,58 0,20.8 -16.2,44 -41,44 -22,0 -34,-14 -34,-31 -3.6,0 -6,6 -6,12 0,16.6 19.8,34.00001 43,34.00001 30.4,0 62,-27.80001 62,-69.00001 0,-25.6 -12.4,-47 -23,-60 13,11 32,32.8 32,67 0,39.4 -31.6,77.00001 -74,77.00001 -33.8,0 -61,-23.20004 -61,-58.00001 0,-20.8 16.2,-44 41,-44 22,0 34,14 34,31 3.6,0 6,-6 6,-12 0,-16.6 -19.8,-34 -43,-34 -30.4,0 -62,27.8 -62,69 0,25.59997 12.4,47.00001 23,60.00001 -13,-11 -32,-32.80004 -32,-67.00001 z" />
    </g>
  </g>
</svg>
