<?xml version="1.0" encoding="UTF-8" standalone="no"?>
<!-- Created with Inkscape (http://www.inkscape.org/) -->

<svg
   xmlns:dc="http://purl.org/dc/elements/1.1/"
   xmlns:cc="http://creativecommons.org/ns#"
   xmlns:rdf="http://www.w3.org/1999/02/22-rdf-syntax-ns#"
   xmlns:svg="http://www.w3.org/2000/svg"
   xmlns="http://www.w3.org/2000/svg"
   xmlns:sodipodi="http://sodipodi.sourceforge.net/DTD/sodipodi-0.dtd"
   xmlns:inkscape="http://www.inkscape.org/namespaces/inkscape"
   width="88.175537mm"
   height="375.20358mm"
   viewBox="0 0 312.43301 1329.4615"
   id="svg15629"
   version="1.1"
   inkscape:version="0.91 r13725"
   sodipodi:docname="space babe.svg">
  <defs
     id="defs15631" />
  <sodipodi:namedview
     id="base"
     pagecolor="#ffffff"
     bordercolor="#666666"
     borderopacity="1.0"
     inkscape:pageopacity="0.0"
     inkscape:pageshadow="2"
     inkscape:zoom="0.26062891"
     inkscape:cx="956.62964"
     inkscape:cy="229.37102"
     inkscape:document-units="px"
     inkscape:current-layer="layer1"
     showgrid="false"
     fit-margin-top="0"
     fit-margin-left="0"
     fit-margin-right="0"
     fit-margin-bottom="0"
     inkscape:window-width="1366"
     inkscape:window-height="705"
     inkscape:window-x="-8"
     inkscape:window-y="-8"
     inkscape:window-maximized="1" />
  <metadata
     id="metadata15634">
    <rdf:RDF>
      <cc:Work
         rdf:about="">
        <dc:format>image/svg+xml</dc:format>
        <dc:type
           rdf:resource="http://purl.org/dc/dcmitype/StillImage" />
        <dc:title></dc:title>
      </cc:Work>
    </rdf:RDF>
  </metadata>
  <g
     inkscape:label="Layer 1"
     inkscape:groupmode="layer"
     id="layer1"
     transform="translate(-2045.661,-9.7846677)">
    <path
       style="fill:#000000"
       d="m 2045.6621,9.7846677 0,1072.3708323 c 0.2455,-0.9581 0.9969,-2.0285 1.9199,-2.5987 0.2914,-0.181 0.5336,-0.2659 0.7189,-0.2612 0.5558,0.021 0.615,0.8244 0.088,2.1971 -1.1526,3.0036 -2.3704,3.9069 -2.7272,2.3535 l 0,67.01 6.5708,-2.3295 c 5.9169,-2.0975 6.2916,-2.6643 3.2775,-4.9162 -2.9166,-2.1786 -2.2591,-2.587 4.5747,-2.8597 9.7445,-0.3884 12.1653,2.4336 4.4823,5.2254 -3.1088,1.1298 -7.5019,3.473 -9.764,5.2093 -3.7704,2.8931 -2.3576,3.1238 16.9654,2.7673 11.593,-0.2139 21.0781,0.3096 21.0781,1.1608 0,0.8513 1.3075,1.5462 2.9039,1.5462 1.656,0 2.606,1.5456 2.2131,3.5987 -0.3788,1.9793 -0.7611,4.876 -0.8475,6.4343 -0.1172,2.1055 -2.1374,2.5207 -7.8682,1.6186 -5.3748,-0.8462 -10.4282,2e-4 -16.6762,2.8236 -4.9304,2.2197 -10.1975,4.0324 -11.7038,4.0324 -1.5063,0 -3.3154,0.9359 -4.0203,2.0766 -0.8446,1.3663 5.7789,1.7257 19.4153,1.0603 20.6737,-1.0093 22.1134,-0.5832 20.7728,6.1009 -1.088,5.4256 1.1862,39.3909 3.0445,45.486 1.1592,3.8025 0.088,4.6623 -8.6112,6.9161 -8.2151,2.128 -9.2213,2.8634 -5.8198,4.2535 2.262,0.9246 6.629,1.7432 9.7038,1.8234 4.1555,0.107 5.2859,-0.6469 4.406,-2.94 -0.6517,-1.6966 -0.3124,-3.0846 0.751,-3.0846 2.5273,0 2.5639,6.8262 0.044,8.4746 -1.0718,0.7013 1.2923,1.8837 5.2535,2.6269 3.9613,0.743 7.7268,2.7122 8.3661,4.3779 1.211,3.1561 13.7261,4.3038 16.5156,1.5141 0.8335,-0.8333 4.4603,-1.6137 8.0568,-1.735 3.5964,-0.1213 9.6877,-0.9729 13.5393,-1.8919 4.7931,-1.1434 6.5781,-0.9793 5.6552,0.5141 -1.5292,2.4741 12.2586,1.4093 22.0944,-1.7068 3.2791,-1.0389 9.3799,-1.8919 13.5554,-1.8919 4.1755,0 12.1322,-1.3766 17.6842,-3.0603 11.6802,-3.5438 15.508,-3.8971 11.1254,-1.0243 -4.9816,3.2655 10.0106,0.023 20.3111,-4.394 4.9506,-2.1226 10.5662,-3.8598 12.483,-3.8598 4.1597,0 23.2647,-6.3161 22.2308,-7.35 -0.3967,-0.3967 -5.4923,0.5346 -11.3222,2.0724 -6.0654,1.6001 -10.8726,1.9881 -11.2339,0.9038 -0.3525,-1.0572 -5.1698,-0.5201 -10.8965,1.217 -5.6457,1.7124 -13.7946,3.1163 -18.1101,3.1368 -4.3158,0.021 -9.6131,0.9651 -11.7721,2.1206 -2.1593,1.1555 -8.8617,2.4812 -14.8929,2.9441 -6.0313,0.4629 -16.0028,2.7571 -22.1586,5.0968 -12.7178,4.8336 -21.0171,5.6788 -10.3663,1.0562 3.8469,-1.6696 6.6041,-3.4245 6.1291,-3.8998 -0.4753,-0.475 -7.785,0.062 -16.2464,1.1889 -18.6609,2.4847 -30.6304,3.3449 -31.6977,2.2772 -0.4368,-0.4364 2.9419,-11.1356 7.5108,-23.773 7.3356,-20.2931 13.5947,-40.5563 20.2789,-65.6485 1.4528,-5.4536 3.2347,-7.7703 6.0849,-7.9163 2.2168,-0.1131 6.1338,-0.2966 8.7035,-0.4097 2.5695,-0.1131 5.7875,0.4856 7.1532,1.3295 1.3656,0.8442 4.2915,0.5651 6.5025,-0.6186 5.5205,-2.954 6.4366,-2.7144 4.9,1.2894 -1.0598,2.7622 -0.54,3.1155 2.6349,1.7913 2.1757,-0.9073 6.0892,-2.1105 8.6996,-2.6749 3.1001,-0.6702 4.3508,-2.0628 3.6027,-4.0125 -0.9191,-2.3947 0.1747,-2.7005 5.5346,-1.5544 3.6745,0.7857 7.6687,2.2213 8.8762,3.189 2.8146,2.2557 30.4266,0.7549 35.1919,-1.9118 3.0301,-1.6957 2.378,-2.2553 -4.0125,-3.4541 -12.7959,-2.4007 -6.5763,-5.7975 7.5228,-4.1087 6.9136,0.8281 15.1162,1.5392 18.2265,1.5824 6.8591,0.095 7.2501,2.1407 1.0282,5.382 -3.8372,1.999 -2.6966,2.1833 6.6833,1.0845 6.2206,-0.7285 18.1143,-1.6144 26.432,-1.9681 8.318,-0.3538 15.6363,-1.1531 16.2625,-1.7793 0.6261,-0.6261 2.3864,-0.1052 3.9121,1.1609 2.9641,2.4597 20.273,-1.1436 22.4557,-4.6752 0.6031,-0.9758 2.4309,-1.7753 4.0606,-1.7753 2.0677,0 2.9641,2.3965 2.9641,7.9284 0,7.1615 -0.6463,8.1255 -6.6833,9.9407 -3.6759,1.1053 -6.4481,3.1089 -6.1571,4.4542 0.291,1.3451 -1.7911,3.3278 -4.6269,4.406 -2.8358,1.0782 -5.1532,2.4021 -5.1532,2.944 0,1.1145 13.5425,-0.372 19.0218,-2.0885 3.3279,-1.0424 3.5987,1.4372 3.5987,32.9425 0,31.0641 -0.3175,34.0708 -3.5987,34.0995 -2.7151,0.025 -2.9353,0.4537 -0.8956,1.7472 1.8866,1.1964 -0.4043,3.0504 -7.5791,6.1369 -5.6551,2.4329 -11.3246,4.4221 -12.5955,4.4221 -1.2702,0 -1.7831,0.8526 -1.1406,1.8919 0.6615,1.0703 3.8668,0.5427 7.3942,-1.217 4.8983,-2.4436 6.8638,-2.5777 9.2098,-0.6307 1.6402,1.3603 4.4058,1.9285 6.1449,1.2612 2.8081,-1.0776 3.1389,6.3637 2.9724,66.4556 l -0.077,28.4563 2.1931,0 0,-1329.4614323 -6.4223,0 c 0.2761,1.1105203 0.5174,2.3134343 0.6467,3.6709903 0.4395,4.608649 0.074,8.826622 -0.8115,9.374325 -0.8863,0.547723 -1.6105,0.01645 -1.6105,-1.180828 0,-1.197774 -1.2224,-2.18092 -2.7151,-2.18092 -2.355,0 -8.1711,-5.645468 -10.792,-9.6835673 l -9.4669,0 c 2.0112,1.4391543 4.6611,3.6825263 7.4304,6.3740513 5.2572,5.109219 10.2111,9.451441 11.009,9.647416 6.805,1.670726 9.3352,6.000526 3.5064,6.000526 -1.6966,0 -3.0846,-1.359304 -3.0846,-3.020344 0,-1.83275 -1.2078,-2.55755 -3.0686,-1.843525 -1.7488,0.671066 -3.6065,-0.235006 -4.3257,-2.108617 -1.6977,-4.424621 -4.9512,-2.106663 -4.9121,3.498294 0.025,3.662929 0.4037,3.925532 2.0243,1.417788 1.0965,-1.696534 2.0038,-2.082171 2.0244,-0.859516 0.021,1.222656 2.3157,3.443573 5.1048,4.936173 2.7889,1.492621 4.5471,3.560541 3.908,4.594789 -0.6392,1.034227 -2.923,0.286724 -5.0728,-1.658778 -2.1497,-1.945482 -3.908,-2.897268 -3.908,-2.116657 0,2.532996 -8.2221,-2.904795 -8.2897,-5.482395 -0.035,-1.373986 -1.4245,-4.295047 -3.0846,-6.490547 -2.9006,-3.833055 -3.0205,-3.774201 -3.0205,1.46198 0,5.407398 1.3194,7.223203 9.2499,12.715983 6.6911,4.634354 2.6415,5.299148 -6.7275,1.104515 -6.1053,-2.733393 -8.6916,-5.137186 -8.6916,-8.085062 0,-2.307697 -1.8508,-5.35498 -4.1128,-6.767648 -2.2621,-1.412667 -4.1128,-3.183005 -4.1128,-3.936081 0,-0.753076 1.8507,-0.884748 4.1128,-0.293202 2.262,0.591545 4.1128,1.892714 4.1128,2.891818 0,0.999104 0.9254,1.815415 2.0564,1.815415 4.3454,0 1.8,-5.786743 -3.0846,-7.012648 -2.8276,-0.709686 -5.141,-2.196055 -5.141,-3.305526 0,-1.109471 -1.3881,-2.020253 -3.0846,-2.020253 -1.4418,0 -2.6505,-0.62346 -2.9843,-1.4579493 l -33.055,0 c -0.1152,0.8363193 -0.45,1.4579493 -0.8555,1.4579493 -0.4053,0 -1.1191,-0.622124 -1.751,-1.4579493 l -8.4708,0 c -4.9187,8.4692193 -11.491,16.1217583 -11.491,12.9529413 0,-0.816269 2.4243,-4.663822 5.3862,-8.546951 1.2869,-1.68693 2.2511,-3.183581 2.9279,-4.4059903 l -211.7856,0 z m 267.1679,0 c 5.4825,3.3905993 11.0729,7.2217633 14.5755,10.2498803 1.7673,1.527765 4.4682,2.358346 6.0006,1.847556 1.8648,-0.621589 0.4652,-2.823669 -4.2294,-6.655203 -2.4882,-2.030802 -4.4208,-4.056073 -5.2975,-5.4422333 l -11.0492,0 z m 31.4124,0 c 0.076,0.8570883 0.5184,1.4579493 1.3214,1.4579493 0.8028,0 1.4781,-0.601148 1.8837,-1.4579493 l -3.2051,0 z m -77.3521,2.1527883 c 0.4571,0.09521 0.751,0.484386 0.751,1.120576 0,1.131022 -0.9254,2.626583 -2.0564,3.325596 -1.131,0.699013 -2.0564,0.347821 -2.0564,-0.783202 0,-1.131022 0.9254,-2.630594 2.0564,-3.329607 0.2827,-0.174794 0.5534,-0.28185 0.7993,-0.329333 0.1851,-0.03557 0.3535,-0.0357 0.5061,-0.004 z m -44.4698,8.133244 c 2.1428,-0.07156 4.4398,0.35111 5.0446,1.329424 0.5672,0.91767 -1.2659,1.666819 -4.0727,1.666819 -2.807,0 -5.1048,-0.612603 -5.1048,-1.361566 0,-0.998529 1.9902,-1.563053 4.1329,-1.634677 z m 12.4388,1.453939 c 1.1979,0 1.6067,0.925382 0.9077,2.056405 -0.699,1.131022 -1.6782,2.056404 -2.1769,2.056404 -0.4989,0 -0.9077,-0.925382 -0.9077,-2.056404 0,-1.131023 0.9793,-2.056405 2.1769,-2.056405 z m -65.5559,5.141011 2.8597,10.282022 c 1.5735,5.655112 2.8773,13.909108 2.8999,18.338953 0.023,4.429824 0.7341,7.358884 1.5824,6.510617 0.8483,-0.848266 1.5949,-2.157908 1.6628,-2.911909 0.068,-0.754022 0.8456,-5.309698 1.7272,-10.121376 1.9772,-10.79016 5.848,-9.374325 4.5786,1.674859 -0.5069,4.408767 -0.4274,9.908641 0.1768,12.217921 1.5978,6.110524 6.7635,1.205197 6.7635,-6.422233 0,-3.254589 0.832,-5.920203 1.8477,-5.920203 2.9843,0 2.451,41.074827 -0.6868,52.964459 -3.0892,11.70471 -2.8519,13.03413 6.651,37.51733 2.8537,7.35165 6.4258,14.83032 7.9406,16.61592 1.5147,1.78559 2.7552,3.90599 2.7552,4.71527 0,1.29296 5.5965,9.17072 25.6248,36.0674 2.8726,3.85794 5.2212,8.2535 5.2212,9.76792 0,1.5144 0.9254,2.75124 2.0564,2.75124 1.1311,0 2.0564,0.94307 2.0564,2.09657 0,1.1535 2.4731,6.01175 5.4945,10.79612 9.2989,14.72443 15.1603,32.31749 16.1099,48.34159 0.4876,8.23024 1.7539,18.40946 2.8154,22.62045 2.2263,8.83238 3.4349,32.05864 3.125,60.09358 -0.2589,23.42829 -2.1467,55.4885 -3.3378,56.67965 -1.6667,1.66675 -9.7887,-15.12447 -12.5673,-25.98218 -2.7036,-10.56344 -2.8563,-10.73969 -3.7996,-4.31364 -0.5409,3.68557 -0.2155,7.17725 0.7269,7.75972 0.9425,0.58246 1.7151,2.63401 1.7151,4.55862 0,5.65417 18.1446,31.05415 25.2995,35.41675 3.6168,2.20525 8.603,4.01232 11.0811,4.01641 6.079,0.0103 7.8144,3.37591 2.4622,4.77552 -2.363,0.61797 -3.6942,2.10336 -2.9561,3.29749 0.8001,1.29471 0.1213,1.70015 -1.683,1.00811 -2.8691,-1.10096 -15.9673,10.31949 -15.2061,13.2582 0.1872,0.72389 -0.3718,4.90933 -1.2451,9.29799 -1.1806,5.93262 -2.1839,7.38319 -3.9119,5.65511 -3.0071,-3.00597 -7.6714,-2.99509 -7.6714,0.0201 0,1.28904 1.5127,3.44762 3.3618,4.79961 2.7227,1.99088 1.6476,2.22739 -5.6551,1.22903 -13.4425,-1.83775 -36.7784,5.4519 -36.7784,11.49096 0,1.51497 -0.861,2.75525 -1.9158,2.75525 -1.0547,0 -2.4759,1.75457 -3.1569,3.89995 -1.7916,5.64489 -25.6734,29.00252 -29.6532,29.00252 -1.1471,0 -3.0283,1.61942 -4.1811,3.59871 -1.1528,1.97929 -2.1218,2.74435 -2.1567,1.69894 -0.033,-1.04544 -2.2452,0.14929 -4.9122,2.65486 l -4.8518,4.55461 -2.936,-4.71125 c -9.1972,-14.74872 -8.7522,-22.92765 1.3856,-25.4721 2.7949,-0.70148 5.0808,-2.63781 5.0808,-4.30159 0,-2.31802 1.4997,-2.69578 6.4223,-1.61459 3.5334,0.77603 7.6737,1.59579 9.1975,1.81943 1.5236,0.22361 3.4145,1.04874 4.2013,1.8355 2.4197,2.41977 4.8557,1.58899 4.8557,-1.65476 0,-1.69654 -0.9253,-3.08461 -2.0564,-3.08461 -1.131,0 -2.0564,-1.37409 -2.0564,-3.05247 0,-4.51788 -14.9144,-2.96938 -22.022,2.28533 -3.1576,2.33445 -8.5156,5.68661 -11.9086,7.45045 -6.8372,3.55413 -13.3136,9.12221 -16.4513,14.14582 -10.5532,16.89616 -19.5979,29.21246 -28.1108,38.27243 -13.32,14.17602 -16.2789,21.41247 -13.9208,34.03509 1.0062,5.38572 1.3263,16.94089 0.7148,25.67695 -0.6116,8.73581 -1.3591,20.3963 -1.6628,25.91382 l -0.5542,10.03299 -9.0772,0.34157 c -4.994,0.18713 -11.6162,1.0903 -14.7161,2.00808 -7.4863,2.21659 -7.3533,2.67414 -12.0211,-40.96337 -2.6511,-24.78317 -1.2215,-36.81388 6.35,-53.4344 2.2594,-4.95978 4.1087,-9.77433 4.1087,-10.69972 0,-3.64281 14.717,-23.22659 29.8178,-39.67414 14.6371,-15.94267 19.3817,-23.36582 25.6329,-40.09989 3.2037,-8.57562 12.7092,-18.55483 22.3634,-23.47996 4.477,-2.28407 10.0213,-7.18958 12.3224,-10.90055 5.0641,-8.16699 12.2037,-16.0014 14.5834,-16.0014 0.9583,0 3.2306,3.13713 5.0487,6.96848 4.0585,8.55283 13.3899,10.97715 27.9181,7.25366 7.2953,-1.86973 11.4082,-1.92338 16.3147,-0.21288 6.0808,2.11974 6.7039,1.90439 8.5349,-2.91189 2.5481,-6.70006 2.5156,-11.09737 -0.08,-11.09737 -1.131,0 -2.0564,1.74572 -2.0564,3.87585 0,2.27809 -1.9054,4.3836 -4.6269,5.11288 -9.8452,2.63841 -10.4846,1.17299 -2.8837,-6.61101 8.9627,-9.17862 13.8851,-23.04131 11.3865,-32.07107 -1.0267,-3.71059 -0.8417,-7.05241 0.4821,-8.64734 1.3611,-1.64009 1.629,-7.54742 0.7228,-16.00944 -1.211,-11.31002 -0.7821,-14.66496 2.7512,-21.44363 5.1581,-9.89614 6.7547,-24.73392 4.125,-38.33668 -6.6309,-34.29661 -12.7172,-50.02833 -24.0906,-62.27451 -3.45,-3.71479 -8.9349,-12.50592 -12.1897,-19.53584 -3.2549,-7.02992 -8.4387,-15.77618 -11.5192,-19.43543 -5.403,-6.41816 -8.0607,-13.20797 -10.282,-26.2553 -0.8919,-5.23707 -8.0889,-23.15886 -19.817,-49.3497 -1.5194,-3.39307 -6.7413,-10.52838 -11.6034,-15.85681 -4.862,-5.32843 -9.9522,-12.2688 -11.3103,-15.423034 -4.2261,-9.815485 -13.6329,-17.045659 -22.1785,-17.045659 -2.4031,0 -3.7957,-0.925382 -3.0967,-2.056405 1.65,-2.669953 12.7448,-2.669953 14.3948,0 0.699,1.131023 3.0427,2.056405 5.2054,2.056405 6.1221,0 26.0018,9.455717 28.2233,13.422871 1.0959,1.958499 3.2654,3.136778 4.8196,2.618687 3.6518,-1.217268 -7.5287,-11.928749 -12.4509,-11.928749 -1.8808,0 -5.1895,-1.292924 -7.3539,-2.875759 -3.4609,-2.530344 -3.6096,-3.487538 -1.233,-7.928405 2.8512,-5.327301 2.4707,-28.295816 -0.5785,-34.950834 -2.7328,-5.96384 1.7564,-4.042953 5.5467,2.373707 1.9405,3.284818 3.5264,9.762492 3.5264,14.394831 0,4.632339 0.8098,8.422416 1.7993,8.422416 2.4731,0 4.3351,-10.399505 4.5547,-25.448005 l 0.1847,-12.595477 z m 131.2404,1.028202 c 1.131,0 2.0564,0.925382 2.0564,2.056405 0,1.131022 -0.9254,2.056404 -2.0564,2.056404 -1.1311,0 -2.0564,-0.925382 -2.0564,-2.056404 0,-1.131023 0.9253,-2.056405 2.0564,-2.056405 z m 5.3701,2.843617 c 0.2455,-0.01028 0.5163,0.06622 0.7991,0.24099 1.131,0.699013 2.0564,2.14485 2.0564,3.209122 0,1.064271 -0.9254,1.931889 -2.0564,1.931889 -1.131,0 -2.0564,-1.441807 -2.0564,-3.205091 0,-1.322495 0.5194,-2.144254 1.2573,-2.17691 z m -27.7656,2.353637 c 2.1561,0.195153 6.3769,2.102159 8.1855,4.281496 2.6906,3.241962 2.523,3.279574 -3.5746,0.819333 -2.4291,-0.980062 -4.9722,-2.686692 -5.6552,-3.791496 -0.4694,-0.759553 -0.301,-1.161909 0.261,-1.285252 0.2108,-0.04627 0.4752,-0.05211 0.7833,-0.02408 z m 35.3082,3.944101 c 0.975,-0.133666 2.0073,0.326557 2.5747,1.245092 1.889,3.056022 0.388,4.136087 -2.9119,2.096566 -1.7681,-1.092671 -1.9801,-2.150341 -0.5986,-3.004263 0.2934,-0.181375 0.6109,-0.292832 0.9358,-0.337395 z m 24.6689,7.004628 c 1.0964,-0.101175 3.662,0.883061 6.6311,2.634768 3.9585,2.335623 7.1974,4.618931 7.1974,5.072738 0,1.104207 -0.047,1.090121 -7.7115,-2.241151 -3.6759,-1.597662 -6.6834,-3.844942 -6.6834,-4.992416 0,-0.286868 0.2016,-0.440193 0.5664,-0.473939 z m -40.1801,1.490091 c 0.307,-0.02673 0.6502,-0.02104 1.02,0.02009 2.4652,0.267806 6.1077,1.959692 8.0047,4.245344 1.8547,2.234078 1.8718,3.526693 0.068,5.329789 -1.8031,1.803117 -2.3817,1.590691 -2.3817,-0.875576 0,-1.790819 -1.8508,-3.738152 -4.1128,-4.329697 -2.2621,-0.591546 -4.1128,-2.001787 -4.1128,-3.132809 0,-0.784827 0.5934,-1.177065 1.5143,-1.257142 z m -215.3804,2.92797 c 1.131,0 2.0564,0.925382 2.0564,2.056405 0,1.131022 -0.9254,2.056404 -2.0564,2.056404 -1.131,0 -2.0564,-0.925382 -2.0564,-2.056404 0,-1.131023 0.9254,-2.056405 2.0564,-2.056405 z m 209.5805,1.277213 c 1.2805,-0.141851 3.9384,1.021477 6.3701,2.855687 6.7097,5.061099 4.6218,6.557134 -2.7753,1.988111 -3.207,-1.980996 -5.0293,-4.095576 -4.0526,-4.699192 0.1214,-0.07547 0.275,-0.124412 0.4578,-0.144606 z m 19.9457,4.245364 c 1.0362,-0.05306 2.4342,0.845121 4.5144,2.783364 2.4772,2.307738 4.5023,4.619548 4.5023,5.141011 0,1.128226 0.3566,1.22753 -6.5708,-1.847535 -3.5582,-1.579545 -4.9901,-3.361851 -3.9923,-4.976355 0.4308,-0.697265 0.9247,-1.068713 1.5464,-1.100485 z m -22.6848,1.582465 c 0.1583,-0.03187 0.3598,-0.03218 0.6025,0.004 0.3235,0.04812 0.7152,0.157726 1.1728,0.333364 1.7551,0.673575 3.1929,1.587791 3.1929,2.032303 0,1.665503 -3.9174,0.729016 -5.1249,-1.225 -0.4053,-0.655705 -0.3196,-1.049116 0.1567,-1.144677 z m 57.8002,3.209122 c 1.3469,-0.01645 3.0202,0.89324 3.7192,2.024263 1.5778,2.553088 0.8659,2.553088 -3.0846,0 -1.8535,-1.197774 -2.1062,-2.005817 -0.6346,-2.024263 z m -42.3852,0.236959 c 0.2465,-0.130581 1.3362,0.404475 3.434,1.522213 2.5448,1.356013 4.6269,2.896281 4.6269,3.422001 0,2.178123 -3.8023,0.71933 -6.4302,-2.466082 -1.2795,-1.551146 -1.8773,-2.347509 -1.6307,-2.478132 z m 34.7941,1.787304 c 1.1311,0 2.0564,0.925382 2.0564,2.056404 0,1.131023 -0.9253,2.056405 -2.0564,2.056405 -1.131,0 -2.0564,-0.925382 -2.0564,-2.056405 0,-1.131022 0.9254,-2.056404 2.0564,-2.056404 z m -13.1375,2.763293 c 0.2455,0.04133 0.5164,0.146622 0.7991,0.321313 1.131,0.699013 2.0564,1.68216 2.0564,2.18092 0,0.49876 -0.9254,0.903687 -2.0564,0.903687 -1.131,0 -2.0564,-0.979116 -2.0564,-2.176889 0,-0.89834 0.5199,-1.353011 1.2573,-1.229031 z m 19.3068,1.349516 c 1.131,0 2.0564,0.925382 2.0564,2.056404 0,1.131022 -0.9254,2.056404 -2.0564,2.056404 -1.1311,0 -2.0564,-0.925382 -2.0564,-2.056404 0,-1.131022 0.9253,-2.056404 2.0564,-2.056404 z m -43.1845,0.164676 c 1.6965,-0.08801 5.7441,2.126261 8.9928,4.920112 3.2485,2.793873 7.6441,5.631711 9.7679,6.305759 2.1237,0.674048 3.8597,2.090047 3.8597,3.144859 0,1.054792 -0.2313,1.82584 -0.5141,1.715021 -3.254,-1.276184 -10.9874,-6.284043 -14.7401,-9.547022 -2.597,-2.258035 -6.0115,-4.617019 -7.5871,-5.241425 -2.3172,-0.918288 -2.274,-1.167956 0.2209,-1.297304 z m -131.2163,2.096566 -5.5346,0.204839 5.141,1.646727 c 7.3002,2.337598 8.642,2.337598 7.1974,0 -0.699,-1.131022 -3.7603,-1.964257 -6.8038,-1.851566 z m 165.7053,1.851566 c 1.1485,0 2.6182,1.388073 3.2694,3.084607 0.6503,1.696534 0.8654,3.084607 0.4738,3.084607 -0.3915,0 -1.8653,-1.388073 -3.2734,-3.084607 -1.4754,-1.777947 -1.6735,-3.084607 -0.4698,-3.084607 z m -14.7805,0.935829 c 0.1584,-0.03187 0.3599,-0.03218 0.6026,0.004 0.3234,0.04812 0.7152,0.157726 1.1727,0.333364 1.7552,0.673575 3.193,1.587791 3.193,2.032303 0,1.665502 -3.9174,0.729016 -5.125,-1.225 -0.4053,-0.655705 -0.3195,-1.049116 0.1567,-1.144677 z m 26.5606,7.289789 c 1.6965,0 3.0846,0.925382 3.0846,2.056404 0,1.131023 -1.3881,2.056405 -3.0846,2.056405 -1.6966,0 -3.0846,-0.925382 -3.0846,-2.056405 0,-1.131022 1.388,-2.056404 3.0846,-2.056404 z m -165.1108,4.112809 c -2.1424,0 -6.599,4.446234 -6.599,6.5829 0,3.029906 3.0967,1.684709 5.6913,-2.470091 1.4128,-2.262045 1.822,-4.112809 0.9077,-4.112809 z m -101.2981,3.361748 c 0.9085,-0.01028 2.1101,1.599862 3.3779,4.614859 3.655,8.693018 11.9327,16.062516 25.5163,22.716836 16.2248,7.94825 27.9463,15.73521 31.6493,21.02192 3.6859,5.26246 2.7584,7.619 -1.5825,4.0164 -2.4335,-2.02017 -2.8668,-1.45577 -2.5221,3.30553 0.2286,3.15804 1.4851,7.59021 2.7913,9.85225 2.1556,3.73386 2.3363,3.5444 1.9559,-2.0564 -0.6776,-9.97533 4.5794,-7.35601 9.7399,4.85184 2.5621,6.0609 4.4363,13.92667 4.1651,17.47944 -0.2713,3.55283 -0.5956,9.46587 -0.7231,13.1417 -0.1275,3.67582 -1.1293,6.68331 -2.225,6.68331 -1.0952,0 -1.4584,-1.38807 -0.8073,-3.08461 1.2895,-3.36082 -2.3692,-4.30574 -4.3378,-1.12057 -1.9855,3.21253 1.1869,12.4308 4.2775,12.4308 1.574,0 2.8597,0.98314 2.8597,2.18092 0,1.19777 0.9046,1.61781 2.0082,0.93583 1.1393,-0.70422 1.8058,-10.08848 1.5423,-21.71677 -0.2554,-11.26163 0.1995,-20.47282 1.0122,-20.47167 0.8125,0.001 0.9457,-1.38252 0.2972,-3.07255 -0.6484,-1.69004 -1.9968,-2.5657 -2.9962,-1.94797 -0.999,0.61782 -1.2551,-0.33653 -0.5705,-2.12065 0.9875,-2.5733 1.8547,-2.73812 4.2052,-0.78723 4.531,3.76061 8.1075,13.90384 9.4185,26.70915 0.6521,6.3699 3.0743,15.16103 5.382,19.53585 4.2909,8.13523 6.1256,8.22533 2.2131,0.10845 -1.5715,-3.26024 -0.6628,-2.803 3.3176,1.67484 3.1365,3.52825 4.9706,4.62866 4.2856,2.57051 -0.6589,-1.97929 -0.4609,-3.59871 0.4376,-3.59871 3.0908,0 10.2024,9.28512 17.8812,23.3434 6.5291,11.95324 7.02,13.66665 3.2533,11.31425 -2.4416,-1.52476 -4.0039,-3.9017 -3.4743,-5.28159 0.5295,-1.37989 0.1419,-3.0139 -0.8555,-3.63085 -0.9976,-0.61694 -1.4025,2.19225 -0.8997,6.24553 0.5742,4.6294 0.144,6.89667 -1.1567,6.0929 -1.2197,-0.7538 -1.5528,0.0679 -0.8113,2.00018 0.6922,1.80407 1.7533,2.7854 2.3577,2.18092 0.605,-0.60446 2.5156,0.0499 4.2453,1.45394 2.6482,2.14962 2.9246,1.9627 1.7471,-1.17682 -2.3252,-6.19901 9.7656,3.44789 15.0617,12.01712 3.9434,6.38036 4.1953,8.27918 2.2491,16.92918 -1.2057,5.35833 -2.7229,12.39615 -3.3698,15.63992 -0.647,3.24378 -1.5931,5.47966 -2.1046,4.96832 -0.5112,-0.51137 -0.1252,-5.24982 0.8596,-10.52702 l 1.7953,-9.59523 -7.0529,0 c -4.2541,0 -6.5427,0.83206 -5.7635,2.09256 0.7103,1.14947 2.2894,1.47499 3.5064,0.72295 1.4481,-0.89499 1.8573,0.48638 1.1847,4.00437 -0.5696,2.97963 -0.02,5.71672 1.2412,6.1411 1.5436,0.52011 1.3671,1.86218 -0.5503,4.18509 -2.0463,2.47886 -2.139,3.41798 -0.3413,3.41798 1.3638,0 2.0767,1.15672 1.5824,2.5705 -0.4944,1.41378 -2.655,2.302 -4.7997,1.97207 -2.9417,-0.45249 -3.2152,-0.13552 -1.1125,1.28525 2.2941,1.55012 2.121,2.92872 -0.9801,7.79585 -3.947,6.19463 -7.3193,9.31247 -8.6391,7.99267 -0.4292,-0.42923 1.1627,-2.86401 3.5384,-5.41412 2.376,-2.55009 4.2905,-5.61937 4.2494,-6.81988 -0.041,-1.20051 -2.4626,0.59122 -5.3781,3.98428 -3.1163,3.62649 -4.789,4.64433 -4.0606,2.46609 0.7578,-2.26686 0.4152,-3.198 -0.8795,-2.39781 -1.1642,0.71943 -1.5773,3.00105 -0.9199,5.07273 1.6816,5.29784 -2.4238,7.13125 -5.0365,2.2492 -2.8549,-5.33427 -2.728,-6.93062 0.4096,-5.12495 1.4138,0.81359 1.8751,0.71289 1.0243,-0.22491 -0.8507,-0.93783 -0.072,-3.33738 1.7311,-5.32979 3.0233,-3.34092 2.9834,-3.54115 -0.5102,-2.59058 -4.2927,1.16804 -13.8297,18.36733 -11.9086,21.47577 0.6911,1.11852 4.696,1.83055 8.9003,1.58247 4.2043,-0.24807 8.9007,0.32123 10.4346,1.26917 1.8623,1.15099 2.3083,0.94593 1.3416,-0.61852 -0.8289,-1.34109 2.5693,-6.53174 7.9484,-12.14161 10.3573,-10.80133 17.3497,-26.53611 17.8691,-40.20834 0.3161,-8.31621 0.3609,-8.37561 1.1728,-1.46599 0.4652,3.95858 1.7089,8.07893 2.7593,9.1534 1.0504,1.07447 1.9077,4.59841 1.9077,7.83202 0,3.92044 0.7907,5.38844 2.3737,4.41003 1.5172,-0.93764 1.815,-0.56029 0.8234,1.04426 -0.9114,1.47452 0.021,3.66891 2.2532,5.31371 3.4289,2.52433 3.4714,2.93052 0.4339,4.10879 -2.8024,1.08716 -2.9955,2.29941 -1.1407,7.21348 1.2269,3.25017 2.8829,5.50849 3.6789,5.01652 1.8,-1.11244 1.0844,25.23136 -0.7349,27.05054 -1.8681,1.86812 -7.6875,-4.39448 -7.6875,-8.2738 0,-5.01399 -2.5752,-3.86742 -8.7759,3.90394 -3.8379,4.81003 -5.5389,9.14571 -5.2212,13.31441 l 0.4699,6.1853 4.3458,-4.0847 c 2.3901,-2.24545 4.9709,-3.45538 5.7353,-2.69101 0.7644,0.76436 1.3897,-0.15135 1.3897,-2.03631 0,-1.88505 0.9118,-3.43002 2.0285,-3.43002 1.1158,0 -2e-4,4.16421 -2.4663,9.25381 -2.4726,5.08961 -5.2574,9.25382 -6.1891,9.25382 -0.9318,0 -0.1565,-2.3424 1.7189,-5.20527 1.8759,-2.86284 2.9472,-5.66796 2.3817,-6.23347 -0.5655,-0.56552 -2.458,1.15321 -4.2051,3.8196 -4.1842,6.38578 -1.8995,19.22543 3.2612,18.3269 1.9088,-0.33233 3.4702,0.41542 3.4702,1.66281 0,1.24736 1.0136,1.64177 2.2532,0.87558 1.4202,-0.87204 1.9439,0.0448 1.4218,2.45 -0.4586,2.11324 -2.0471,3.57358 -3.5304,3.24527 -2.1146,-0.46806 -2.399,2.20241 -1.3093,12.37859 1.2301,11.4873 0.8427,13.78901 -3.3738,20.04593 -2.6198,3.88772 -8.7578,10.11706 -13.6397,13.84057 -10.842,8.26954 -23.4605,8.71751 -25.9341,0.92376 -0.6147,-1.93748 -7.5974,-10.27705 -15.5193,-18.53575 -7.9217,-8.25869 -14.9509,-17.19594 -15.6198,-19.86117 -1.0747,-4.28437 -0.5219,-4.82605 4.7834,-4.67511 3.3003,0.0938 7.7574,-0.81462 9.9044,-2.01624 2.6606,-1.48878 5.1411,-1.52102 7.7881,-0.10443 3.7977,2.03235 3.8018,1.93259 0.076,-4.37387 -2.0956,-3.54785 -5.9024,-6.97357 -8.4586,-7.61513 -2.5563,-0.64158 -4.647,-1.96483 -4.647,-2.94 0,-0.97512 -3.7015,-1.25535 -8.2256,-0.62255 -5.2001,0.72735 -8.3203,0.32711 -8.4827,-1.08844 -0.1419,-1.23156 -0.4884,-3.16655 -0.7712,-4.29758 -0.2827,-1.13102 -0.6292,-4.0177 -0.7711,-6.41822 -0.2161,-3.66988 -0.7584,-3.95039 -3.3939,-1.7632 -1.7239,1.43068 -3.7784,1.95293 -4.5667,1.16475 -0.7882,-0.78818 -0.07,-2.39438 1.5946,-3.5706 2.3591,-1.66776 2.1189,-1.81488 -1.0885,-0.67074 -2.262,0.80692 -5.2695,1.51253 -6.6833,1.56641 -3.0823,0.11721 -3.383,2.77746 -0.5141,4.55059 1.131,0.69902 2.0817,0.0627 2.1167,-1.41778 0.035,-1.49121 1.0993,-0.90834 2.3858,1.30935 1.7391,2.99639 1.7243,4.20457 -0.06,4.79961 -4.0318,1.3439 -2.6528,4.05282 2.7551,5.41011 2.8276,0.70968 5.141,2.2604 5.141,3.44608 0,2.47241 -7.0855,0.75696 -13.4871,-3.26534 -2.7938,-1.75547 -5.3843,-2.01433 -7.6272,-0.75911 -2.6575,1.4872 -4.0877,0.56428 -6.5667,-4.22928 -1.743,-3.37073 -7.24,-8.92837 -12.214,-12.35048 -20.6741,-14.22429 -32.2531,-40.25915 -27.0385,-60.79646 1.5779,-6.21435 3.0717,-8.94859 3.884,-7.10905 0.7261,1.64391 0.7806,0.84255 0.1244,-1.7833 -0.6922,-2.76668 0.037,-6.22558 1.7352,-8.22561 1.6122,-1.89825 4.1243,-6.46162 5.5788,-10.13744 1.4545,-3.67582 3.4276,-6.68331 4.3859,-6.68331 0.9583,0 1.2326,-1.61942 0.6103,-3.59871 -0.9661,-3.07274 -0.6564,-3.01473 2.1208,0.39361 3.7947,4.65735 4.3086,8.21213 0.8795,6.0929 -1.4826,-0.91639 -1.8168,-0.55983 -0.8875,0.94385 0.8184,1.32429 2.202,1.96379 3.0725,1.42583 0.8704,-0.53797 3.675,2.74939 6.2335,7.30184 2.5588,4.55245 5.0321,7.89655 5.4985,7.43037 1.0783,-1.07846 -4.1355,-12.43496 -10.5953,-23.0743 -2.7469,-4.52409 -4.9417,-11.00176 -4.88,-14.39483 0.1069,-5.89318 0.2922,-5.75748 4.1891,3.03239 4.2191,9.51663 7.4966,12.92568 10.5913,11.01302 0.9854,-0.60897 -0.1008,-2.43288 -2.4138,-4.05256 -2.3904,-1.67416 -6.0022,-8.77166 -8.3743,-16.45124 -4.8478,-15.69526 -4.8644,-15.80392 -1.9801,-14.0213 1.2067,0.74575 2.0249,0.1094 1.8154,-1.41781 -0.6998,-5.09857 0.5673,-15.16658 1.4781,-11.73997 0.5849,2.20004 2.4753,3.0911 5.4182,2.55041 2.4854,-0.4566 3.3616,-0.28271 1.9479,0.38961 -1.4138,0.6723 -2.5821,3.22868 -2.6026,5.67921 -0.025,3.63056 -0.4,3.88305 -2.0244,1.36959 -1.6506,-2.55426 -1.992,-2.37749 -1.992,1.0282 0,2.26205 0.8956,5.50088 1.992,7.19742 1.6419,2.54048 1.9976,2.33833 2.0244,-1.14869 0.021,-2.32863 1.392,-6.03016 3.0525,-8.22562 3.6322,-4.80306 4.3407,-20.39392 0.8273,-18.22248 -1.4177,0.87605 -1.933,0.32518 -1.3215,-1.41778 0.5512,-1.57122 2.5833,-2.7205 4.5186,-2.55044 2.1989,0.1933 3.1128,-0.74374 2.4381,-2.50223 -0.5943,-1.54757 -0.1936,-3.36399 0.8875,-4.03247 1.0817,-0.66849 1.968,1.15424 1.968,4.04855 0,2.89431 -0.9254,5.26149 -2.0564,5.26149 -1.131,0 -2.0564,3.7593 -2.0564,8.35014 0,5.55029 0.7602,7.87461 2.2653,6.94437 1.2873,-0.7955 1.7496,-3.95175 1.0763,-7.3179 -0.651,-3.2559 -0.3489,-5.9202 0.6708,-5.9202 1.0198,0 2.1525,1.37863 2.5183,3.0605 0.4578,2.10601 1.3821,1.5178 2.9641,-1.88771 1.8553,-3.99364 1.7564,-4.73903 -0.5141,-3.86781 -1.546,0.59331 -2.8115,0.0551 -2.8115,-1.19689 0,-1.25204 0.9254,-2.2773 2.0564,-2.2773 2.559,0 2.7418,-13.72603 0.2048,-15.29451 -1.0191,-0.62986 -1.7617,-4.35127 -1.6507,-8.26578 0.1501,-5.32574 0.8273,-6.5953 2.691,-5.04864 1.947,1.61588 1.9614,0.28103 0.072,-6.117 -1.329,-4.50128 -3.0949,-8.86253 -3.924,-9.69161 -0.8289,-0.82908 -1.5061,-3.72046 -1.5061,-6.42626 0,-2.70582 -0.8438,-4.39705 -1.8757,-3.75936 -2.7305,1.68753 -26.952,-24.08199 -33.7579,-35.91479 -3.1992,-5.562203 -5.1554,-11.185194 -4.3458,-12.495062 0.2297,-0.371695 0.5005,-0.554942 0.8032,-0.558273 z m 95.5908,28.741455 c -0.6885,0.082 -1.6818,0.48634 -2.9481,1.27722 -2.2621,1.41266 -4.1128,3.26993 -4.1128,4.12889 0,2.34714 2.9742,1.88167 5.7596,-0.90371 2.4572,-2.45722 2.956,-4.20265 1.8877,-4.47829 -0.1604,-0.0413 -0.357,-0.0515 -0.5864,-0.0241 z m -48.9361,20.23873 c -0.8429,-0.0776 -1.3093,0.95921 -1.3093,3.18099 0,2.57965 -0.9011,3.80054 -2.209,2.99223 -1.5474,-0.95611 -1.5816,-0.22193 -0.1244,2.45002 1.1446,2.09763 3.4663,8.20012 5.1609,13.56343 2.6168,8.2814 2.654,10.17833 0.2491,12.58342 -1.595,1.59441 -2.3238,4.78497 -1.6667,7.29783 1.3311,5.09032 2.3301,4.7882 3.225,-0.96797 0.3412,-2.19336 1.2337,-4.96371 1.9801,-6.15716 0.7457,-1.19346 0.5333,-5.79589 -0.4657,-10.22578 -0.9986,-4.42991 -1.4027,-8.46564 -0.8997,-8.96866 0.503,-0.50302 0.9157,0.0144 0.9157,1.14468 0,1.13102 1.3881,2.0564 3.0846,2.0564 3.8883,0 3.8922,0.051 -1.0002,-9.53898 -3.0735,-6.02461 -5.5266,-9.27004 -6.9363,-9.41045 l 0,0 z m 23.3675,7.29379 c 0.107,-0.10611 0.9396,0.51639 2.5705,1.79535 1.9793,1.55227 3.5988,3.17169 3.5988,3.59871 0,1.6925 -1.6873,0.60191 -4.3738,-2.82355 -1.2789,-1.63079 -1.9016,-2.46435 -1.7955,-2.57051 z m -6.9765,2.35362 c -0.1049,-0.008 -0.2036,0.0267 -0.2891,0.11247 -0.539,0.53898 0.1151,4.1156 1.4499,7.94446 1.3348,3.82886 2.7568,5.96752 3.1609,4.75544 0.8399,-2.51959 -2.7399,-12.683 -4.3217,-12.81237 z m 161.4117,6.64315 c 5.609,-0.12832 11.2378,1.6572 15.2303,5.39807 12.7829,11.97726 14.7321,30.9008 4.2132,40.90718 -6.817,6.48475 -22.0391,10.38193 -26.4038,6.75963 -1.3747,-1.14087 -3.3213,-2.23323 -4.3257,-2.42592 -1.0045,-0.19268 -2.4333,0.63586 -3.1771,1.83952 -1.952,3.15833 -7.3371,-3.79158 -7.7997,-10.06514 -0.2084,-2.82755 -0.8864,-7.16391 -1.5064,-9.63939 -0.62,-2.4755 -0.185,-5.08672 0.968,-5.7997 3.1936,-1.9737 0.298,-5.11568 -4.7715,-5.17716 -4.201,-0.051 -4.1241,-0.29339 1.1487,-3.56256 3.1103,-1.92839 5.6551,-4.17477 5.6551,-4.99241 0,-0.81765 2.5448,-4.03483 5.6551,-7.14922 3.9167,-3.92164 9.5047,-5.96468 15.1138,-6.0929 z m -168.1874,22.50398 c -0.095,-0.0286 -0.1933,0.0907 -0.2932,0.37352 -1.2867,3.66192 -1.5699,18.3289 -0.6667,34.44478 0.1748,3.11031 0.78,5.65511 1.3455,5.65511 0.5655,0 0.9717,-9.94786 0.8997,-22.10635 -0.062,-10.63868 -0.6163,-18.1664 -1.2853,-18.36706 z m 10.3906,2.11262 c -0.3115,-0.0471 -0.5289,0.70778 -0.5906,2.20502 -0.088,2.16778 0.3971,3.38236 1.0805,2.69904 0.6835,-0.68333 0.759,-2.45967 0.1647,-3.94413 -0.2462,-0.61517 -0.4674,-0.93161 -0.6546,-0.95993 z m -3.904,0.24099 c -0.372,-0.1386 -0.6347,1.04026 -0.6347,3.16092 0,2.82756 0.4658,3.98429 1.0363,2.57051 0.5704,-1.41378 0.5704,-3.72723 0,-5.14101 -0.1419,-0.35344 -0.2776,-0.54423 -0.4016,-0.59042 z m 21.1624,0.0884 c -0.5667,0.2044 -0.9959,3.10932 -0.9959,7.0729 0,4.52978 0.692,7.80868 1.5382,7.28578 0.846,-0.52291 2.6114,3.31373 3.924,8.52686 1.3128,5.21313 2.7677,9.09671 3.2333,8.63126 1.0537,-1.05366 -5.7423,-29.72428 -7.4506,-31.43245 -0.086,-0.0858 -0.1686,-0.11355 -0.249,-0.0844 z m -44.4455,1.96804 c 0.9762,-0.12174 2.1712,1.2172 2.8276,3.28543 1.8242,5.74755 0.3895,6.79786 -2.647,1.9359 -1.3932,-2.23111 -1.6435,-4.42094 -0.5824,-5.07675 0.1275,-0.0794 0.2624,-0.1271 0.4018,-0.14458 z m 156.2304,3.16092 c 1.131,0 1.4862,0.92538 0.7872,2.0564 -0.699,1.13102 -2.1946,2.05641 -3.3256,2.05641 -1.131,0 -1.4862,-0.92539 -0.7872,-2.05641 0.699,-1.13102 2.1946,-2.0564 3.3256,-2.0564 z m -122.4765,12.33842 c 0.4988,0 0.9077,0.92539 0.9077,2.05641 0,1.13102 -0.9793,2.0564 -2.177,2.0564 -1.1978,0 -1.6066,-0.92538 -0.9077,-2.0564 0.699,-1.13102 1.6783,-2.05641 2.177,-2.05641 z m 11.0291,1.08846 c -1.5699,0.60018 -0.027,14.28689 2.5705,21.30305 1,2.70167 2.2822,4.44938 2.8477,3.88389 0.5655,-0.56551 0.074,-3.52889 -1.0885,-6.58693 -1.1627,-3.05804 -2.1127,-8.22222 -2.1127,-11.4749 0,-3.2527 -0.8362,-6.43235 -1.8596,-7.06488 -0.1337,-0.082 -0.2528,-0.10013 -0.3574,-0.0602 z m -56.9046,5.1129 c 1.9792,-0.0164 3.5987,0.89324 3.5987,2.02426 0,2.50801 -0.232,2.50801 -4.1128,0 -2.6362,-1.70359 -2.5613,-1.99732 0.5141,-2.02426 z m 31.0831,17.12999 c -0.3115,-0.0473 -0.5289,0.70777 -0.5906,2.20502 -0.088,2.16778 0.3971,3.38236 1.0805,2.69903 0.6835,-0.68332 0.759,-2.45966 0.1647,-3.94412 -0.2462,-0.61517 -0.4674,-0.93161 -0.6546,-0.95993 z m 32.9667,6.1411 c -0.6419,-0.0701 0.4234,1.44971 3.2493,5.41816 4.5843,6.4381 7.3309,7.42376 5.1971,1.86361 -0.6138,-1.6 -3.071,-4.13368 -5.4622,-5.627 -1.5984,-0.99822 -2.5993,-1.61263 -2.9842,-1.65477 z m -4.2052,6.32988 c -0.2603,-0.008 -0.5441,0.0761 -0.8435,0.26106 -2.5442,1.57237 2.4099,10.20571 5.856,10.20571 1.1816,0 2.8428,0.69404 3.691,1.54231 3.0912,3.0912 2.9279,1.42327 -0.3493,-3.57862 -1.8465,-2.81785 -4.182,-4.61486 -5.1894,-3.99232 -1.0072,0.62255 -1.8314,-0.36695 -1.8314,-2.19698 0,-1.37253 -0.5528,-2.21677 -1.3334,-2.24116 z m -5.7997,3.38984 c -0.5517,-0.11306 -0.5348,1.02259 0.3856,3.47823 1.1541,3.07921 0.8721,3.21267 -1.94,0.92778 -3.8926,-3.16273 -6.359,-0.38722 -4.3378,4.87995 1.0194,2.65663 0.6683,3.16345 -1.3375,1.92387 -1.649,-1.01864 -2.2297,-0.87987 -1.4699,0.34943 1.9129,3.09513 7.9474,2.45779 6.7314,-0.7109 -0.9539,-2.48619 1.2952,-3.67508 5.591,-2.95608 0.8968,0.15011 0.6328,-1.58964 -0.5865,-3.86781 -1.3624,-2.54634 -2.4839,-3.91128 -3.0363,-4.02447 z m -8.575,0.13657 c -0.4363,-0.0522 -0.7432,0.53874 -0.7432,1.57845 0,1.38629 -0.9142,1.95616 -2.0323,1.26516 -1.1946,-0.73824 -1.4932,0.15323 -0.7228,2.16083 1.2174,3.17213 1.4493,3.16794 3.2493,-0.0482 1.066,-1.90517 1.392,-4.00993 0.7228,-4.67912 -0.1665,-0.16739 -0.3284,-0.2597 -0.4738,-0.27714 z m -9.4185,3.85576 c -1.8368,0 -0.7222,2.79967 3.0766,7.71151 3.1693,4.09774 3.648,2.99433 1.1125,-2.5705 -1.2881,-2.82756 -3.173,-5.14101 -4.1891,-5.14101 z m 40.5496,0 c -3.7089,0 -3.7494,0.40548 -0.6988,7.10103 2.5595,5.61713 7.1158,7.4135 5.0325,1.9841 -0.6867,-1.78903 -1.2491,-4.56518 -1.2491,-6.16921 0,-1.60402 -1.3881,-2.91592 -3.0846,-2.91592 z m -51.6791,4.32568 c -0.4668,-0.16533 -0.2959,0.61425 0.4016,2.44599 0.7722,2.02807 1.9213,3.17149 2.5545,2.53839 0.6332,-0.63319 -2e-4,-2.29209 -1.4018,-3.68707 -0.7617,-0.75592 -1.274,-1.1981 -1.5543,-1.29731 z m 30.8782,2.51427 c -0.08,0.0212 -0.1584,0.0651 -0.225,0.13255 -0.539,0.53905 -0.3681,1.96671 0.3776,3.17295 2.028,3.28093 3.2139,2.64361 1.8234,-0.98 -0.5861,-1.52715 -1.4165,-2.47385 -1.976,-2.3255 z m -38.5576,4.90405 c -0.2747,0.0263 -0.2529,0.50343 0.076,1.4459 0.95,2.71912 0.6299,3.47719 -1.0323,2.45002 -3.1509,-1.94721 -3.1064,1.34709 0.06,4.51444 3.3246,3.32459 3.7772,3.11379 2.442,-1.13262 -0.9739,-3.09697 -0.6801,-3.04469 2.1006,0.3655 1.7772,2.17948 3.6621,3.5314 4.1891,3.00427 0.5273,-0.52714 -1.3124,-3.69993 -4.0885,-7.0488 -2.0145,-2.42995 -3.2897,-3.64262 -3.7474,-3.59871 z m 26.0906,1.01615 c -0.424,-0.0537 -0.6628,0.23935 -0.6628,0.88362 0,1.16873 0.6155,2.74028 1.3696,3.49428 0.7539,0.75402 1.8495,0.89365 2.434,0.30926 0.5844,-0.58432 -0.031,-2.15992 -1.3696,-3.49831 -0.7378,-0.7378 -1.3474,-1.13512 -1.7712,-1.18885 z m 6.2978,0.24901 c -0.08,0.0212 -0.1584,0.0651 -0.225,0.13256 -0.539,0.53904 -0.3681,1.9667 0.3775,3.17295 2.0281,3.28093 3.214,2.64361 1.8235,-0.98 -0.5861,-1.52715 -1.4165,-2.47386 -1.976,-2.32551 z m -14.3186,0.10442 c -0.6362,-0.12513 -0.8873,0.37604 -0.8997,1.47805 -0.025,2.2788 -0.3855,2.33138 -1.707,0.24903 -0.9212,-1.45213 -3.1393,-2.08014 -4.9281,-1.39371 -2.9514,1.13236 -2.9395,1.79674 0.1246,7.13718 3.7667,6.56337 6.0908,6.82587 2.5945,0.2932 -3.0955,-5.78411 -2.7749,-7.44251 0.8596,-4.4261 1.6965,1.408 3.0846,1.84322 3.0846,0.96394 0,-0.8793 1.8508,0.0736 4.1128,2.12067 2.2621,2.04713 4.1128,2.79784 4.1128,1.66682 0,-1.13103 -1.8507,-3.7325 -4.1128,-5.77963 -1.57,-1.42091 -2.5968,-2.17905 -3.2374,-2.30945 l 0,0 z m 45.522,3.33765 c -0.4986,0 -1.4779,0.92538 -2.1769,2.05641 -0.699,1.13102 -0.2901,2.0564 0.9077,2.0564 1.1977,0 2.1769,-0.92538 2.1769,-2.0564 0,-1.13103 -0.4088,-2.05641 -0.9077,-2.05641 z m -68.5601,6.28569 c -0.1295,0.12852 0.5108,1.22414 1.8113,3.38986 1.4973,2.49337 3.1662,4.0915 3.7073,3.5505 0.541,-0.54099 -0.685,-2.58216 -2.7233,-4.53453 -1.7704,-1.6958 -2.6674,-2.53425 -2.7953,-2.40583 z m -24.5604,4.12085 c -1.012,-0.21977 -0.2663,2.65556 2.3175,9.60324 1.5861,4.26422 3.4079,9.3711 4.0485,11.35039 0.6407,1.97929 1.5737,3.59871 2.0724,3.59871 1.5904,0 -4.5938,-21.08533 -6.8439,-23.33536 -0.7245,-0.72441 -1.2573,-1.14373 -1.5945,-1.21698 z m 6.7836,0.14859 c -0.066,0.0123 -0.1312,0.0471 -0.1888,0.10443 -0.5217,0.52171 0.5701,4.81425 2.426,9.539 3.5627,9.06883 6.0898,11.81958 3.6429,3.96419 -2.8127,-9.02905 -4.8776,-13.80143 -5.8801,-13.60762 z m 89.8754,0.64263 c -0.3249,0.0446 -0.6424,0.1561 -0.9359,0.3374 -1.3815,0.85394 -1.1695,1.91159 0.5986,3.00426 3.2999,2.03952 4.8009,0.95945 2.9119,-2.09657 -0.5674,-0.91853 -1.5997,-1.37876 -2.5746,-1.24509 z m 6.3541,1.35355 c -0.4668,-0.16534 -0.2959,0.61425 0.4016,2.44599 0.7722,2.02806 1.9213,3.17149 2.5545,2.53838 0.6331,-0.63319 -3e-4,-2.29209 -1.4019,-3.68707 -0.7617,-0.75591 -1.2739,-1.1981 -1.5542,-1.2973 z m 115.6606,0.76311 c 0.4822,0.0267 0.9704,0.0854 1.466,0.17269 3.3984,0.59875 6.9529,1.56571 7.8962,2.1488 2.9951,1.85101 1.8701,16.81847 -1.5181,20.20658 -3.0724,3.07252 -9.1758,3.67957 -18.4515,1.83551 -3.524,-0.70041 -4.0688,-2.06907 -3.3698,-8.45857 1.093,-9.99392 6.7428,-16.30628 13.9772,-15.90501 z m -150.6275,1.79131 c -0.3116,-0.0473 -0.5289,0.70777 -0.5906,2.20502 -0.088,2.16778 0.3971,3.38236 1.0804,2.69903 0.6836,-0.68332 0.759,-2.45966 0.1647,-3.94412 -0.2461,-0.61517 -0.4674,-0.93161 -0.6545,-0.95993 z m -70.693,0.35747 c -0.5407,0.21721 0.2255,5.27691 1.8154,11.78416 1.6957,6.94106 3.4775,11.44438 3.9561,10.00891 0.9936,-2.9809 -3.543,-20.46881 -5.6471,-21.76897 -0.046,-0.0287 -0.088,-0.0369 -0.1244,-0.0241 z m 101.7358,3.04444 c -2.6155,0 -2.705,0.52436 -0.5141,3.00829 3.3707,3.82177 3.6789,3.82654 3.6789,0.0763 0,-1.69654 -1.4236,-3.08461 -3.1648,-3.08461 z m -6.8721,1.03624 c -0.3771,0.006 -0.8036,0.0969 -1.2733,0.27713 -1.6965,0.65103 -3.0846,2.52676 -3.0846,4.16905 0,1.64226 -0.9389,2.40533 -2.0885,1.69493 -1.1495,-0.71041 -1.6548,-1.99934 -1.1205,-2.86371 0.5342,-0.86437 -0.3776,-1.57042 -2.0243,-1.57042 -1.6468,0 -2.9923,0.77247 -2.9923,1.715 0,0.94252 0.9793,1.71099 2.1769,1.71099 1.1979,0 1.5756,0.97381 0.8394,2.16486 -0.7362,1.19105 0.6832,3.91877 3.1529,6.06076 2.6326,2.28329 3.856,4.92217 2.9561,6.37806 -0.975,1.57751 -0.6688,1.94826 0.8394,1.01616 1.3058,-0.80702 2.3737,-3.7257 2.3737,-6.4865 0,-3.09096 1.1851,-5.02053 3.0846,-5.02053 1.6966,0 3.0846,-0.92538 3.0846,-2.0564 0,-1.13102 -0.9253,-2.05641 -2.0564,-2.05641 -1.131,0 -2.0564,-1.3593 -2.0564,-3.02034 0,-1.38038 -0.6794,-2.12891 -1.8113,-2.11263 z m 29.5045,1.97205 c 0.1234,0.0463 0.2591,0.23698 0.4016,0.59042 0.5705,1.41378 0.5705,3.72723 0,5.14101 -0.5704,1.41378 -1.0362,0.25705 -1.0362,-2.57051 0,-2.12066 0.2626,-3.29948 0.6346,-3.16092 z m -6.9765,3.45814 c -0.5946,-0.0164 -1.3141,0.17829 -2.1046,0.66672 -1.2246,0.75693 -1.6476,2.31876 -0.9358,3.47019 0.868,1.40458 2.0214,1.36837 3.4983,-0.10844 1.9795,-1.97953 1.326,-3.97632 -0.4579,-4.02847 z m -120.5969,1.34149 c -0.2661,0.14354 -0.4563,1.38164 -0.482,3.50231 -0.041,3.39306 0.3848,5.03111 0.948,3.63886 0.5635,-1.39224 0.598,-4.16839 0.076,-6.16921 -0.1953,-0.7503 -0.3827,-1.05798 -0.5423,-0.97196 z m 142.5547,0.4177 c -0.221,0 -0.6627,1.0282 -1.5464,3.08461 -0.972,2.26204 -1.7673,5.96357 -1.7673,8.22561 0,4.11281 0,4.11281 1.7673,0 0.9721,-2.26204 1.7673,-5.96357 1.7673,-8.22561 0,-2.05641 0,-3.08461 -0.2209,-3.08461 z m -63.2988,4.16502 c -2.1286,-0.0751 -4.0525,0.50729 -4.0525,1.8114 0,1.02514 1.8507,1.38279 4.1128,0.79125 2.5349,-0.66291 4.1128,-0.0642 4.1128,1.56237 0,1.45133 0.5544,2.08452 1.233,1.40576 0.6788,-0.67876 0.626,-2.22376 -0.1205,-3.43002 -0.8238,-1.33317 -3.157,-2.06568 -5.2856,-2.14076 z m -84.3728,2.00419 c -1.1979,0 -1.6067,0.92538 -0.9077,2.05641 0.699,1.13102 1.6782,2.0564 2.1769,2.0564 0.4989,0 0.9077,-0.92538 0.9077,-2.0564 0,-1.13103 -0.9793,-2.05641 -2.1769,-2.05641 z m 60.5155,4.32569 c -0.4668,-0.16534 -0.296,0.61425 0.4016,2.44599 0.7722,2.02807 1.9213,3.17149 2.5544,2.53838 0.6332,-0.63318 -2e-4,-2.29208 -1.4018,-3.68707 -0.7615,-0.75591 -1.274,-1.1981 -1.5542,-1.2973 z m -4.133,0.52615 c -0.08,0.0103 -0.1542,0.0504 -0.225,0.12049 -0.5608,0.56158 -0.4736,2.44782 0.1968,4.19313 1.7788,4.63587 3.2053,3.8801 1.924,-1.02016 -0.5279,-2.01857 -1.3252,-3.36482 -1.8917,-3.29346 l 0,0 z m 12.7481,1.31738 c -1.7632,0 -3.2052,0.92538 -3.2052,2.0564 0,1.13102 0.8715,2.0564 1.9359,2.0564 1.0642,0 2.5062,-0.92538 3.2052,-2.0564 0.6989,-1.13102 -0.1728,-2.0564 -1.9359,-2.0564 z m -72.3717,2.7673 c -0.3115,-0.0473 -0.5289,0.70777 -0.5906,2.20502 -0.088,2.16778 0.3971,3.38235 1.0804,2.69903 0.6836,-0.68332 0.7591,-2.45967 0.1648,-3.94412 -0.2462,-0.61518 -0.4675,-0.93161 -0.6546,-0.95993 z m 30.4885,3.67101 c -0.589,-0.17233 -0.3523,1.56359 0.8877,4.7956 0.7054,1.8378 1.7157,2.90718 2.2452,2.37771 0.5295,-0.52946 -0.021,-2.65115 -1.217,-4.71527 -0.9089,-1.56328 -1.5627,-2.35462 -1.9159,-2.45804 z m 19.5278,6.75562 c -0.078,-0.0185 -0.1431,-0.0167 -0.2007,0.008 -0.3722,0.16328 -0.27,1.27612 0.2891,3.41396 0.7271,2.78067 1.6593,3.71302 2.1728,2.17288 0.4944,-1.48358 -0.078,-3.67293 -1.2731,-4.8679 -0.4294,-0.4292 -0.7564,-0.67267 -0.9881,-0.72696 z m -10.9045,1.87163 c -0.08,0.0212 -0.1584,0.0651 -0.225,0.13256 -0.539,0.53904 -0.3681,1.9667 0.3776,3.17295 2.028,3.28093 3.2139,2.64361 1.8234,-0.98 -0.5861,-1.52715 -1.4165,-2.47386 -1.976,-2.32551 z m 18.7445,0.0161 c -1.597,0 -2.4261,0.77247 -1.8435,1.715 0.5825,0.94252 1.4115,1.71099 1.8435,1.71099 0.4321,0 1.261,-0.76847 1.8436,-1.71099 0.5826,-0.94253 -0.2466,-1.715 -1.8436,-1.715 z m 213.9866,1.36959 c 0.4989,0 0.9077,0.92538 0.9077,2.0564 0,1.13103 -0.9793,2.05641 -2.1769,2.05641 -1.1979,0 -1.6067,-0.92538 -0.9077,-2.05641 0.6989,-1.13102 1.6782,-2.0564 2.1769,-2.0564 z m -134.6945,2.0564 c -1.1977,0 -2.1769,0.92539 -2.1769,2.05641 0,1.13102 0.4088,2.0564 0.9077,2.0564 0.4987,0 1.4779,-0.92538 2.1769,-2.0564 0.699,-1.13102 0.2901,-2.05641 -0.9077,-2.05641 z m -42.4214,1.63871 c -0.2663,0.14354 -0.4563,1.38164 -0.482,3.50231 -0.041,3.39306 0.3848,5.03111 0.948,3.63887 0.5635,-1.39225 0.598,-4.1684 0.076,-6.16922 -0.1954,-0.7503 -0.3825,-1.05798 -0.5423,-0.97196 z m -6.5868,0.56632 c -0.304,-0.0323 -0.3737,0.7229 -0.4017,2.2532 -0.033,1.88679 0.6028,5.12563 1.4177,7.19741 1.3529,3.44016 1.5417,3.4605 2.193,0.23295 0.3923,-1.94375 -0.2449,-5.18259 -1.4177,-7.19741 -0.9513,-1.63415 -1.4874,-2.45393 -1.7913,-2.48615 z m -102.0491,2.45804 c 3.1761,-0.0967 6.9885,2.26167 6.9885,5.50649 0,6.13171 -5.1392,9.07506 -9.0369,5.17716 -3.7546,-3.75441 -3.9536,-4.96082 -1.4701,-8.88029 0.7639,-1.20553 2.0747,-1.75942 3.5185,-1.80336 z m 165.5245,1.74714 c -1.1639,-0.006 -3.3711,1.54131 -7.3903,4.83576 -4.3557,3.57028 -5.1865,5.08073 -2.8234,5.13299 1.8406,0.0407 4.4903,-1.30415 5.8881,-2.98823 1.3975,-1.68407 3.21,-2.65208 4.0243,-2.14877 0.8146,0.5033 1.478,-0.42971 1.478,-2.0765 0,-1.80236 -0.2723,-2.74993 -1.1767,-2.75525 z m -164.5687,2.06845 c -0.2149,-0.0273 -0.4178,-0.0229 -0.6064,0.0121 -1.2569,0.23114 -1.8438,1.77127 -0.6225,3.74731 0.7566,1.22471 2.3188,1.64343 3.4702,0.93182 1.406,-0.86805 1.3689,-2.01742 -0.1086,-3.49429 -0.7424,-0.74232 -1.4882,-1.11515 -2.1327,-1.19689 z m 96.9683,0.61049 c -0.1871,0.12133 -0.2905,0.6447 -0.3253,1.56239 -0.072,1.89852 1.3274,4.90601 3.1048,6.68332 1.7773,1.77733 2.4713,3.24488 1.5423,3.26133 -0.9291,0.0164 -0.3029,0.92787 1.3936,2.02426 1.6965,1.0964 3.1627,2.0079 3.2573,2.02429 0.095,0.0165 0.1687,-1.31627 0.1687,-2.96413 0,-1.64785 -1.2561,-3.47548 -2.7914,-4.0646 -1.5351,-0.58912 -3.6349,-3.17361 -4.667,-5.74348 -0.8316,-2.07037 -1.3723,-2.98561 -1.683,-2.78338 z m -62.3829,3.24928 c -1.0195,0 -0.7261,1.80982 0.6546,4.02044 1.3805,2.21061 2.8008,3.73001 3.1531,3.3778 1.2184,-1.21897 -1.9614,-7.39824 -3.8077,-7.39824 z m 114.1946,0.93583 c -0.1583,-0.0319 -0.3596,-0.0322 -0.6023,0.004 -0.3234,0.0483 -0.7152,0.15773 -1.1727,0.33336 -1.7552,0.67358 -3.1932,1.58779 -3.1932,2.03231 0,1.6655 3.9174,0.72901 5.1249,-1.225 0.4054,-0.65571 0.3196,-1.04912 -0.1567,-1.14468 z m -74.1671,2.31746 c -0.3238,-0.0241 -0.5694,0.0274 -0.7109,0.16869 -0.5655,0.56551 0.7504,2.33168 2.9282,3.92405 2.1777,1.59238 4.4227,2.43314 4.9882,1.86763 0.5655,-0.56551 -0.7541,-2.33165 -2.9318,-3.92403 -1.6332,-1.1943 -3.3016,-1.96397 -4.2737,-2.03634 z m 15.4031,2.01625 c -0.2562,0.0249 -0.505,0.084 -0.7471,0.17672 -2.5396,0.97451 -2.1536,2.09912 2.0604,6.00454 2.852,2.64316 5.1852,5.77543 5.1852,6.96046 0,1.185 1.8507,2.15279 4.1128,2.15279 4.5265,0 4.6734,-0.25518 2.8678,-4.96028 -0.6839,-1.78253 -1.971,-2.79046 -2.8598,-2.24115 -0.8888,0.54931 -3.1056,-1.2791 -4.9282,-4.0606 -1.7964,-2.74172 -3.8971,-4.20647 -5.6911,-4.03248 z m 39.4009,0.89967 c -1.131,0 -2.0564,0.92539 -2.0564,2.05641 0,1.13102 0.9254,2.0564 2.0564,2.0564 1.1311,0 2.0564,-0.92538 2.0564,-2.0564 0,-1.13102 -0.9253,-2.05641 -2.0564,-2.05641 z m 4.5587,0.0161 c -0.7249,-0.0393 -0.2581,0.71321 1.1888,2.4942 1.465,1.80307 4.9352,3.02791 7.7115,2.72313 2.7766,-0.30476 5.0487,0.35604 5.0487,1.47002 0,1.11397 1.3881,0.87381 3.0846,-0.53419 4.5117,-3.74449 3.7667,-6.08961 -1.5423,-4.85585 -6.5108,1.51306 -8.1866,1.45542 -12.8525,-0.42574 -1.3406,-0.54048 -2.2039,-0.84796 -2.6388,-0.87157 z m -63.8851,4.69922 c -0.1522,0.0991 0.773,0.86196 2.6548,2.36967 2.1956,1.75895 4.8932,3.19708 5.9965,3.19708 2.6127,0 1.4469,-0.95029 -4.8478,-3.94814 -2.4239,-1.15432 -3.6517,-1.71767 -3.8035,-1.61861 z m 9.9727,9.67956 c -1.131,0 -2.0564,1.38807 -2.0564,3.0846 0,1.69654 0.9254,3.08461 2.0564,3.08461 1.1311,0 2.0564,-1.38807 2.0564,-3.08461 0,-1.69653 -0.9253,-3.0846 -2.0564,-3.0846 z m 56.8685,11.11342 c -3.4209,0.004 -7.967,2.63553 -11.0331,7.18537 -2.5898,3.84309 -4.7073,7.8089 -4.7073,8.812 0,1.00311 2.8934,-1.47403 6.4304,-5.50249 4.7694,-5.43205 7.4905,-6.98836 10.5269,-6.02461 2.8992,0.92018 3.8227,0.4869 3.1651,-1.48608 -0.6811,-2.04285 -2.3295,-2.98651 -4.382,-2.98419 z m 108.8689,4.18912 c 4.4535,0.42936 9.9372,7.26139 7.1092,10.08924 -3.4768,3.47653 -9.8969,3.53284 -11.214,0.10041 -2.0996,-5.47117 -1.3788,-8.54352 2.3457,-9.97276 0.284,-0.10899 0.5795,-0.17934 0.8835,-0.21288 0.285,-0.0312 0.5786,-0.0326 0.8756,-0.004 z m -114.3231,7.3179 c -2.4344,0.009 -6.1921,8.39949 -4.8118,10.74792 2.3887,4.06371 23.3194,-3.95041 23.3194,-8.92847 0,-2.88454 -3.4831,-2.14405 -10.748,2.28532 -8.5213,5.19594 -10.537,5.19754 -7.7596,0.008 1.5503,-2.90839 1.553,-4.11046 0,-4.11281 l 0,0 z m -37.5777,4.20922 c 2.6027,0.0393 4.9199,0.69919 5.6993,1.96 0.699,1.13102 -0.5816,2.0564 -2.8436,2.0564 -2.2621,0 -4.6831,0.92538 -5.382,2.05641 -1.6787,2.71597 -4.5537,2.61214 -6.3097,-0.22894 -0.7771,-1.2575 -0.14,-3.09341 1.4177,-4.08067 1.9258,-1.21988 4.8157,-1.80252 7.4183,-1.7632 z m -33.7057,0.28516 c 1.0512,0.0206 2.5386,0.21022 4.4461,0.55025 4.5241,0.80632 9.9972,1.69226 12.1618,1.96804 2.1644,0.27581 4.7437,2.68737 5.7314,5.3579 3.3456,9.04347 0.9069,9.72523 -10.3865,2.90788 -12.8934,-7.78328 -16.5084,-10.87215 -11.9528,-10.78407 z m 39.0114,5.93223 c 4.3439,0.13943 4.3587,0.2079 0.3936,1.91182 -5.6603,2.43227 -7.6725,2.43227 -6.1692,0 0.6989,-1.13102 3.2976,-1.9914 5.7756,-1.91182 z m 21.9858,1.91182 c -1.131,0 -2.0564,0.92538 -2.0564,2.0564 0,1.13103 0.9254,2.05641 2.0564,2.05641 1.131,0 2.0564,-0.92538 2.0564,-2.05641 0,-1.13102 -0.9254,-2.0564 -2.0564,-2.0564 z m -105.8445,13.11359 c 1.7888,-0.008 3.0243,0.42098 3.0243,1.43387 0,1.04866 1.3449,1.90378 2.9882,1.90378 3.3838,0 7.6806,13.04856 5.8601,17.79273 -0.6519,1.69877 -3.4303,3.94397 -6.1774,4.98838 -7.1948,2.73541 -15.6332,2.19797 -18.608,-1.18083 -3.3744,-3.83252 -3.1768,-15.48873 0.3413,-20.12625 2.0231,-2.667 8.6361,-4.79406 12.5715,-4.81168 z m 112.0137,7.45045 c -1.131,0 -2.0564,0.92539 -2.0564,2.05641 0,1.13102 0.9254,2.0564 2.0564,2.0564 1.1311,0 2.0564,-0.92538 2.0564,-2.0564 0,-1.13102 -0.9253,-2.05641 -2.0564,-2.05641 z m -11.6154,0.87558 c -2.3624,0.0103 -1.3942,3.7779 2.8798,11.69179 4.4618,8.26091 6.4351,10.05308 11.0571,10.05308 5.3901,0 14.1298,-8.6699 14.1298,-14.01729 0,-2.5293 -13.0796,-0.79503 -14.0535,1.86363 -0.3771,1.02901 -2.5641,1.87164 -4.8638,1.87164 -3.1788,0 -3.9234,-0.99057 -3.1006,-4.13691 0.6977,-2.668 -0.2178,-4.83557 -2.5747,-6.09691 -1.5281,-0.81781 -2.6867,-1.23236 -3.4741,-1.22903 z m -84.176,36.24816 c 2.028,0.0257 4.4513,2.42925 4.9321,6.59495 0.4353,3.77066 -0.3039,5.63502 -2.2292,5.63502 -4.1251,0 -5.6189,-2.0466 -5.6189,-7.69143 0,-3.14214 1.3385,-4.55851 2.916,-4.53854 z m 135.4375,17.27057 c -0.1748,0.0685 0.6249,0.62675 2.3095,1.70698 2.1518,1.37984 5.3658,4.12566 7.1411,6.10495 3.8819,4.32786 6.4263,4.62756 6.4263,0.75509 0,-1.56462 -1.6195,-3.40177 -3.5987,-4.08069 -1.9793,-0.67894 -5.9122,-2.14573 -8.7398,-3.26131 -2.2137,-0.87332 -3.3636,-1.29342 -3.5384,-1.22502 z m -65.339,0.23295 c -0.6475,0.11084 -1.0403,0.47455 -1.0403,1.06838 0,1.15229 3.1757,3.42291 7.0569,5.04461 3.8813,1.62168 7.6367,3.88843 8.3462,5.03658 1.5215,2.46183 5.1609,2.79585 5.1609,0.47394 0,-1.64296 -10.3984,-8.49831 -16.9493,-11.17368 -1.0243,-0.41837 -1.927,-0.56072 -2.5744,-0.44983 z m 119.5847,10.12538 c 0.2299,0.0687 0.3656,1.25239 0.4659,3.62281 0.1728,4.11649 -0.7421,5.64586 -3.3618,5.62299 -2.2838,-0.0206 -2.7455,-0.58348 -1.2651,-1.5423 1.283,-0.83095 2.7926,-3.36095 3.3577,-5.62299 0.2953,-1.18213 0.5219,-1.87047 0.6988,-2.04035 0.037,-0.0354 0.072,-0.05 0.1045,-0.0402 z m -101.3662,7.93242 c -0.3115,-0.0473 -0.5289,0.70777 -0.5906,2.20502 -0.088,2.16778 0.3971,3.38235 1.0805,2.69903 0.6835,-0.68332 0.759,-2.45967 0.1647,-3.94412 -0.2462,-0.61518 -0.4674,-0.93162 -0.6546,-0.95993 z m 112.9978,7.66734 c 0.1234,0.004 0.2149,0.0299 0.269,0.0844 0.4329,0.43595 -0.8349,2.79074 -2.8154,5.23338 -2.2818,2.81413 -4.5743,3.83809 -6.2616,2.79541 -1.9673,-1.21615 -1.2359,-2.5814 2.8115,-5.23338 2.6355,-1.72687 5.1258,-2.90405 5.9965,-2.87977 z m -59.0252,12.89269 c 0.2456,0.0413 0.5164,0.14662 0.7991,0.32131 1.1311,0.69902 2.0564,1.68216 2.0564,2.18092 0,0.49876 -0.9253,0.90369 -2.0564,0.90369 -1.131,0 -2.0564,-0.97912 -2.0564,-2.17689 0,-0.89834 0.5199,-1.35301 1.2573,-1.22903 z m 49.0967,0.83541 c 8.1791,0 9.634,2.75606 9.8802,18.72854 0.2484,16.11845 -1.1703,19.43998 -5.7715,13.51124 -2.8664,-3.69355 -2.9411,-3.58014 -1.0603,1.6909 1.1096,3.11031 1.2122,5.65511 0.2289,5.65511 -0.9834,0 -1.7698,2.08211 -1.7472,4.62691 0.062,7.17584 -10.5783,32.17862 -23.4076,55.00882 -4.7129,8.38684 -8.057,17.5802 -8.9768,24.67685 -0.8061,6.22062 -2.4568,13.16099 -3.667,15.42303 -1.2102,2.26205 -2.7862,7.35175 -3.5062,11.31017 -1.2961,7.1279 -1.3346,7.08595 -3.8759,-4.61079 -2.5637,-11.79883 -1.6517,-19.82543 2.5625,-22.52405 1.2287,-0.78678 1.6342,-2.03275 0.8997,-2.7673 -0.7344,-0.73455 -3.0205,0.6532 -5.0808,3.08058 -2.7461,3.23554 -3.7474,7.813 -3.7474,17.15812 0,10.14278 -0.6163,12.61417 -3.0202,12.08547 -1.6612,-0.36542 -7.4861,-1.19374 -12.941,-1.83966 -9.8878,-1.17112 -15.7144,-6.19722 -12.748,-10.99687 0.7152,-1.15734 -0.144,-4.30714 -1.9077,-7.00062 -2.4184,-3.69022 -2.588,-5.15516 -0.691,-5.94831 1.7907,-0.74894 1.4796,-1.89856 -1.0804,-3.98025 -1.9793,-1.60955 -3.5987,-3.86596 -3.5987,-5.01652 0,-1.15077 -1.3881,-3.247 -3.0846,-4.65502 -3.4375,-2.85285 -4.2846,0.033 -0.9799,3.33765 2.5906,2.59086 4.0221,23.18018 1.7109,24.60858 -0.9215,0.56962 -6.5653,-2.57627 -12.5432,-6.9926 -5.978,-4.41613 -12.9398,-8.68858 -15.4673,-9.49078 -6.1402,-1.94886 -5.798,-3.90191 1.699,-9.6876 6.7331,-5.19612 14.2743,-17.75244 14.2743,-23.79725 0,-3.98119 -8.1509,-21.382 -11.0009,-23.4639 -3.3994,-2.48372 -0.2104,-8.83917 6.366,-12.67981 10.6734,-6.23368 26.9389,-9.64521 46.1124,-9.67154 16.9454,-0.0232 18.2695,-0.35693 26.5445,-6.70741 11.5325,-8.8506 15.9604,-15.24536 17.4432,-25.19096 1.487,-9.97298 4.9167,-13.88073 12.182,-13.88073 z m -15.4592,4.62691 c 1.0952,0 1.4584,1.38808 0.8073,3.08461 -0.6517,1.69654 -1.5477,3.08461 -1.9922,3.08461 -0.4444,0 -0.8074,-1.38807 -0.8074,-3.08461 0,-1.69653 0.8966,-3.08461 1.9923,-3.08461 z m -28.2355,1.53026 c 1.0928,0.10878 2.5142,1.6496 2.8919,4.12486 0.3883,2.5448 -0.2134,4.62691 -1.3375,4.62691 -1.9077,0 -2.3445,-0.9363 -2.8678,-6.16922 -0.1892,-1.88662 0.4635,-2.66724 1.3134,-2.58255 z m -13.692,5.44225 c 0.2583,-0.0321 0.6509,0.21714 1.1808,0.74705 1.145,1.1484 1.6721,4.27718 1.1648,6.95242 -0.5071,2.67526 -1.1169,3.47579 -1.3575,1.77926 -0.2406,-1.69653 -0.7682,-4.82529 -1.1688,-6.95242 -0.3081,-1.63582 -0.2499,-2.47278 0.1807,-2.52631 z m 9.8683,14.39483 c 0.7494,0.0253 1.2772,0.83836 1.2772,2.16083 0,3.61214 -1.2334,4.14559 -2.9961,1.29327 -0.6507,-1.05288 -0.2419,-2.49869 0.9077,-3.2091 0.2872,-0.17767 0.5614,-0.25345 0.8112,-0.245 z m 21.8976,1.05231 c 0.1625,0.12852 -0.9784,1.54433 -3.2413,3.94813 -3.4486,3.66291 -8.7695,7.11337 -11.8243,7.66732 -8.2756,1.50064 -6.7148,-2.67339 1.8878,-5.04864 4.0922,-1.12995 9.4132,-3.6802 11.8243,-5.66714 0.6027,-0.49672 0.9992,-0.78197 1.2049,-0.87559 0.076,-0.0352 0.126,-0.0424 0.1486,-0.0241 z m 63.3749,3.29746 c 0.4016,-0.0103 0.8781,0.0919 1.434,0.30525 1.7442,0.66936 2.8431,2.20219 2.4419,3.40592 -1.3773,4.13187 -5.615,3.82913 -5.615,-0.40163 0,-2.21802 0.5345,-3.27814 1.7391,-3.30954 z m -119.9823,9.24177 c 1.6965,0 3.0846,0.36682 3.0846,0.81131 0,0.44452 -1.3881,1.3371 -3.0846,1.98813 -1.6966,0.65102 -3.0846,0.28821 -3.0846,-0.8073 0,-1.09553 1.388,-1.99214 3.0846,-1.99214 z m 73.0866,2.0564 c -0.9262,0 -2.2661,3.0075 -2.976,6.68332 -0.7105,3.67582 -3.5855,8.86368 -6.3942,11.52711 -2.8088,2.66366 -5.1089,5.67115 -5.1089,6.68332 0,1.01236 -1.3342,1.83951 -2.9641,1.83951 -3.384,0 -5.1517,2.30873 -6.2897,8.21758 -1.2771,6.63129 2.6007,4.76528 8.4464,-4.06862 2.9818,-4.50537 6.1269,-7.75813 6.9887,-7.22552 1.6548,1.02264 4.9257,-5.84468 8.085,-16.97338 1.0436,-3.67582 1.139,-6.68332 0.2128,-6.68332 z m -28.2192,33.07519 c -1.1797,-0.0411 -3.0747,1.61372 -5.5667,4.93214 -2.1076,2.80617 -4.6468,4.59617 -5.6431,3.98028 -0.9964,-0.61569 -4.503,0.79879 -7.792,3.14083 -3.289,2.34203 -10.2209,4.83978 -15.4068,5.55068 -5.186,0.7109 -9.4306,2.09114 -9.4306,3.06855 0,2.75311 11.6166,2.10058 23.3313,-1.30935 11.6722,-3.3976 21.9096,-10.95371 21.9096,-16.1741 0,-2.09609 -0.4843,-3.15633 -1.4017,-3.18903 z m -102.1817,3.22115 c 4.9631,0.0843 7.5678,4.07228 6.0929,9.94866 -0.9266,3.69207 -2.6801,5.16511 -6.1451,5.16511 -10.3709,0 -12.3014,-12.98125 -2.217,-14.90893 0.8001,-0.15217 1.5602,-0.21635 2.2692,-0.20484 z m -16.8368,39.78662 c 1.7632,0 3.2051,0.92538 3.2051,2.0564 0,1.13102 -0.8715,2.05641 -1.9359,2.05641 -1.0642,0 -2.5061,-0.92539 -3.2051,-2.05641 -0.699,-1.13102 0.1727,-2.0564 1.9359,-2.0564 z m -6.3058,8.94455 c 0.6715,-0.13366 2.0497,0.8091 3.3016,2.31747 1.6221,1.95441 1.7774,3.13281 0.4138,3.13281 -2.4854,0 -5.3825,-3.89967 -3.9564,-5.32578 0.066,-0.0658 0.146,-0.10393 0.241,-0.1245 z m 11.8083,3.39387 c 1.1311,0 1.4862,0.92539 0.7872,2.05641 -0.6989,1.13102 -2.1946,2.0564 -3.3256,2.0564 -1.131,0 -1.4862,-0.92538 -0.7872,-2.0564 0.699,-1.13102 2.1946,-2.05641 3.3256,-2.05641 z m 29.2958,4.21323 c 0.8764,0.0987 1.3093,0.75299 1.3093,1.95599 0,1.13102 1.408,2.0564 3.1288,2.0564 1.7208,0 4.1346,2.21335 5.366,4.91608 1.2316,2.70294 4.4577,5.92586 7.1692,7.16122 2.7114,1.23529 6.5441,5.7312 8.5148,9.9929 1.9706,4.26169 4.7782,8.51043 6.2416,9.44259 1.5147,0.96507 2.1214,3.40047 1.4057,5.65512 -0.6911,2.17814 -0.3179,3.96022 0.8314,3.96022 1.1496,0 3.7293,5.19612 5.7314,11.54712 2.0022,6.35121 4.817,12.00262 6.2577,12.55538 1.6899,0.64859 2.1567,2.86128 1.3093,6.23748 -0.8499,3.38711 -0.5583,4.76819 0.8273,3.9119 2.3188,-1.43331 5.2831,4.15188 3.6269,6.83199 -0.5569,0.90092 0.3683,2.77924 2.0523,4.17697 1.6842,1.39754 3.0605,3.74821 3.0605,5.22553 0,1.47732 1.2484,3.93534 2.7753,5.46222 2.8272,2.82715 10.3894,38.50679 8.551,40.34481 -0.5544,0.55502 -0.1563,2.03584 0.8836,3.28963 1.0408,1.25379 3.566,11.05502 5.6109,21.78102 3.0381,15.93487 3.7207,30.21907 3.7435,78.10718 0.026,57.83267 -0.035,58.70952 -4.7676,66.31904 -2.6369,4.24133 -5.6444,7.71151 -6.6833,7.71151 -1.0387,0 -1.8878,0.91428 -1.8878,2.02824 0,1.11416 -2.7761,6.53484 -6.1692,12.04929 -3.3931,5.51446 -6.1692,11.01575 -6.1692,12.22594 0,1.2104 -6.9404,14.42157 -15.423,29.356 -8.4827,14.9346 -15.4231,28.3403 -15.4231,29.7897 0,1.4496 -0.8431,2.9444 -1.8756,3.3215 -1.0327,0.3769 -7.0362,11.3248 -13.3385,24.3316 -8.9087,18.3867 -11.4663,22.276 -11.491,17.4794 -0.064,-12.2847 -6.2426,-35.3465 -14.3265,-53.4665 -4.5414,-10.1792 -8.2694,-20.0485 -8.29,-21.9336 -0.021,-1.88512 -0.9768,-3.74328 -2.1327,-4.12906 -4.8879,-1.62888 9.9614,-33.81757 20.4355,-44.29701 16.6444,-16.65297 39.7088,-38.30033 38.4211,-36.05926 -0.9094,1.58261 -0.261,2.57051 1.6868,2.57051 5.2153,0 1.8658,-17.69721 -6.1651,-32.57715 -3.8711,-7.17294 -7.0368,-14.80735 -7.0368,-16.96534 0,-2.15799 -0.7757,-3.92403 -1.723,-3.92403 -1.7126,0 -12.6718,-20.81019 -12.6718,-24.0624 0,-0.93607 -1.7107,-4.92632 -3.8035,-8.86824 -5.3742,-10.12265 -20.3111,-54.04909 -24.1548,-71.03828 -1.7759,-7.85053 -3.9682,-21.21469 -4.8718,-29.69736 -0.9038,-8.48267 -3.2602,-19.58725 -5.2374,-24.67686 -8.9224,-22.96613 0.9802,-55.13919 22.3633,-72.66101 6.3348,-5.19078 10.4102,-7.65636 12.3385,-7.43838 z m -59.0774,19.10212 c 0.4571,0.0946 0.751,0.48449 0.751,1.12054 0,1.13102 -0.9254,2.62664 -2.0564,3.32561 -1.1311,0.69898 -2.0564,0.34774 -2.0564,-0.78328 0,-1.13102 0.9253,-2.63055 2.0564,-3.32953 0.2827,-0.17479 0.5533,-0.28193 0.7993,-0.32943 0.1851,-0.035 0.3535,-0.035 0.5061,0 l 0,-0.004 z m -16.7083,11.71986 c 6.3411,0.13572 11.29,1.62723 11.29,4.21316 0,0.98564 -2.2406,0.77054 -4.9804,-0.47791 -5.987,-2.72782 -21.622,-0.76477 -27.1307,3.40582 -3.2703,2.47591 -3.3577,2.94518 -0.5622,3.0003 2.5573,0.0494 3.5758,2.99021 4.4741,12.89674 0.6405,7.05737 0.8853,13.11204 0.5423,13.45505 -1.1798,1.17976 -3.1805,-6.06701 -3.201,-11.54733 0,-3.01777 -1.4223,-8.18737 -3.1449,-11.49077 -3.5274,-6.76414 -2.8195,-7.89043 7.0609,-11.19384 4.9444,-1.65293 10.7198,-2.36712 15.6519,-2.26122 z m -3.5625,6.09292 c 3.3383,0 4.5705,5.56155 4.5705,20.61217 0,7.75778 -0.9254,14.67594 -2.0564,15.37491 -1.131,0.69897 -2.0858,-0.40018 -2.1205,-2.44609 -0.035,-2.04613 -0.6028,-10.43214 -1.2653,-18.63206 -0.764,-9.45493 -0.4446,-14.90893 0.8717,-14.90893 z m -7.7679,2.05641 0,0 c 2.5944,0.0103 4.3939,10.54051 3.8477,22.51598 -0.3582,7.85073 -1.4666,11.1671 -4.2252,12.6436 -2.4957,1.33563 -3.7394,1.29101 -3.7394,-0.12853 0,-1.17092 0.789,-2.12858 1.7512,-2.12858 0.9655,0 0.9641,-4.85826 0,-10.79613 -1.8148,-11.17902 -0.6486,-22.09688 2.3616,-22.10634 z m 17.6964,2.78725 c 0.5057,-0.0494 0.928,0.1604 1.1487,0.6346 0.4415,0.94677 0.3017,6.34607 -0.3134,12.00118 l -1.1205,10.28202 -1.6709,-10.01304 c -1.0138,-6.07298 -0.8877,-10.80003 0.3173,-12.00509 0.5464,-0.54659 1.1331,-0.85155 1.6388,-0.89967 z m 156.0457,13.66398 c 0.4726,0 2.4315,3.31472 4.3538,7.36604 1.9226,4.05132 10.3145,14.79213 18.6481,23.86951 8.3338,9.07718 18.2825,20.33722 22.1064,25.02233 8.751,10.72024 26.1578,39.11548 29.8059,48.61875 1.5195,3.95857 5.3473,12.34747 8.5067,18.64007 4.9819,9.92174 12.226,32.65076 12.226,38.36078 0,4.03672 -19.9188,22.91369 -27.5003,26.06267 -8.4167,3.49588 -21.3118,4.04906 -30.3922,1.3052 -2.9993,-0.90626 -12.8526,-2.30379 -21.8977,-3.10456 l -16.4471,-1.45408 -1.3054,-20.88135 c -1.32,-21.07012 -1.756,-32.02212 -1.3735,-34.65761 0.3871,-2.66675 11.62,2.51848 17.6882,8.16536 10.39,9.66819 32.3509,25.18664 37.4572,26.46819 8.8643,2.22503 7.1746,-0.78411 -4.0486,-7.20543 -15.0538,-8.61284 -54.2383,-42.42383 -55.764,-48.11658 -0.6798,-2.53616 -1.2445,-7.55996 -1.2651,-11.16566 -0.031,-6.99897 -4.9937,-30.52876 -8.599,-40.76266 -1.8522,-5.2574 -1.3978,-7.58752 3.0081,-15.47917 2.8528,-5.11017 6.1651,-14.59081 7.3621,-21.06622 2.0165,-10.90758 5.3913,-19.98558 7.4304,-19.98558 z m -157.2909,10.28202 c 1.1311,0 2.0564,0.92539 2.0564,2.05641 0,1.13102 -0.9253,2.0564 -2.0564,2.0564 -1.131,0 -2.0564,-0.92538 -2.0564,-2.0564 0,-1.13102 0.9254,-2.05641 2.0564,-2.05641 z m 145.0489,0 c 2.5197,0 2.7126,0.83017 0.9558,4.11281 -1.2106,2.26205 -2.6309,4.11281 -3.1567,4.11281 -0.5257,0 -0.9561,-1.85076 -0.9561,-4.11281 0,-2.32682 1.371,-4.11281 3.157,-4.11281 z m -153.2303,10.99683 c 1.6061,0.0432 3.2027,0.35247 4.9644,0.91181 5.9481,1.8886 5.7464,1.99862 -3.6148,1.98011 -5.4535,-0.0206 -10.749,0.81249 -11.7681,1.83144 -1.0994,1.09956 1.2609,1.86125 5.8038,1.87564 16.2497,0.0494 17.3108,3.24295 12.3865,37.30051 -2.2633,15.65376 -2.1327,17.87529 1.6106,26.84163 4.0531,9.70828 4.3538,16.96944 0.7029,16.96944 -1.0482,0 -1.931,-2.0821 -1.968,-4.62691 -0.035,-2.5448 -1.4245,-6.42379 -3.0846,-8.61921 -2.9888,-3.95138 -3.0519,-3.95138 -6.0407,0 -1.66,2.19542 -3.0497,5.46119 -3.0846,7.25356 -0.035,1.79215 -2.7194,5.62344 -5.9644,8.51474 -6.4392,5.73737 -14.664,9.17075 -14.664,6.1211 0,-1.05453 1.9174,-4.35793 4.2614,-7.33808 5.2607,-6.68783 1.1732,-7.37406 -5.6631,-0.9517 -7.9823,7.49909 -7.0652,3.18434 1.3093,-6.16119 8.9544,-9.99269 10.5895,-16.74942 8.2055,-33.87865 -1.145,-8.22747 -0.808,-15.19971 1.0845,-22.49583 1.7885,-6.89492 2.1,-12.26295 0.8956,-15.43105 -1.6464,-4.33017 -1.0243,-5.20558 5.7234,-8.02491 3.5286,-1.47445 6.2278,-2.14278 8.9044,-2.07245 z m 20.6404,128.83867 c 1.1978,0 1.6066,0.92538 0.9077,2.05641 -0.699,1.13102 -1.6783,2.0564 -2.1769,2.0564 -0.4989,0 -0.9077,-0.92538 -0.9077,-2.0564 0,-1.13103 0.9792,-2.05641 2.1769,-2.05641 z m 39.4893,2.50614 c 1.5057,0.0514 1.2406,0.52706 -0.5622,1.66692 -3.7599,2.37721 -6.1452,2.52342 -6.1452,0.37756 0,-0.89042 2.0723,-1.77344 4.6029,-1.96407 0.904,-0.0679 1.6027,-0.0969 2.1045,-0.0804 z m 27.0265,36.93899 c 0.2015,-0.0308 0.3794,-0.0308 0.5343,0 1.8337,0.3609 4.3587,2.33196 5.6109,4.38199 1.8302,2.99639 1.4409,4.41798 -1.9841,7.23361 -3.9191,3.22218 -16.6143,17.23452 -26.5847,29.34386 -4.9432,6.00347 -8.8105,13.72588 -9.6795,19.33103 -0.4471,2.8841 -2.4741,4.28945 -6.7878,4.7032 -3.3832,0.3245 -5.2256,-0.13778 -4.0927,-1.0282 1.1329,-0.89022 3.4441,-4.39475 5.1369,-7.78781 1.6929,-3.39307 3.9767,-6.81225 5.0769,-7.59903 1.0999,-0.78678 1.3584,-2.07574 0.5702,-2.86375 -0.7882,-0.78822 -2.7582,-0.33191 -4.3779,1.01216 -2.8767,2.38748 -10.2925,16.08046 -10.4467,19.29483 -0.043,0.8894 -1.0017,2.27747 -2.1327,3.08461 -1.131,0.80693 -3.3779,3.77946 -4.9923,6.60702 -7.5993,13.31028 -8.224,15.18161 -5.9805,17.88496 1.6131,1.94371 1.5541,2.67908 -0.2089,2.67908 -1.3432,0 -1.9301,0.80632 -1.3214,1.79134 1.3625,2.20487 -5.6105,10.54709 -8.8161,10.54709 -1.2811,0 -2.3938,1.15673 -2.4699,2.5705 -0.076,1.41378 -1.1125,0.55935 -2.3015,-1.89991 -1.8913,-3.91087 -2.8381,-4.18272 -7.5709,-2.1767 -2.9756,1.2614 -7.3932,4.03179 -9.8162,6.16119 -3.3968,2.98384 -4.6522,3.25035 -5.4904,1.15262 -0.8051,-2.01446 -1.1339,-2.0562 -1.2532,-0.15259 -0.091,1.41378 -1.152,2.57051 -2.3655,2.57051 -2.982,0 -22.4354,20.93087 -22.4559,24.16277 0,1.4138 0.7436,2.5705 1.6708,2.5705 1.7325,0 10.6516,-9.4973 10.6516,-11.3423 0,-2.8181 11.0291,-12.91794 13.198,-12.08551 1.3732,0.52685 6.0324,-1.85117 10.3542,-5.28558 7.3494,-5.84059 11.4066,-7.68067 11.4066,-5.17309 0,3.19751 -11.1562,17.29107 -12.266,15.49522 -0.7237,-1.17092 -2.4848,1.0975 -3.9121,5.04456 -1.4274,3.9473 -3.4461,7.1775 -4.4863,7.1775 -1.0403,0 -5.6911,6.015 -10.3342,13.3666 -4.643,7.3517 -9.1136,13.3666 -9.9366,13.3666 -0.8233,0 -3.1037,5.0896 -5.0647,11.3103 -4.0986,13.0024 -6.4886,14.8996 -4.5346,3.5987 0.9622,-5.5649 0.7494,-6.853 -0.767,-4.6269 -1.1557,1.6965 -2.1123,4.6501 -2.1329,6.5628 -0.021,1.9124 -0.8423,3.9793 -1.8314,4.5907 -0.9992,0.6181 -1.3698,-6.4014 -0.8314,-15.8166 1.0119,-17.702 6.5667,-33.1382 15.2865,-42.49771 2.3159,-2.48598 3.8592,-4.87223 3.43,-5.30161 -1.4549,-1.4547 -5.1239,2.05188 -11.6435,11.12952 l -6.4987,9.049 0,-11.0051 c 0,-10.72436 0.3079,-11.30077 12.1336,-22.80121 11.3915,-11.07785 12.9097,-11.89137 24.8134,-13.23811 10.0367,-1.13554 13.3276,-2.4173 15.7805,-6.16119 1.7045,-2.60135 5.836,-5.3339 9.1816,-6.06886 4.2913,-0.94245 8.1831,-4.45335 13.214,-11.92468 3.9233,-5.82497 7.1331,-11.69313 7.1331,-13.0413 0,-1.34818 1.4323,-3.88229 3.181,-5.63106 1.749,-1.74876 4.4131,-5.55764 5.9202,-8.46251 6.8481,-13.19944 34.8396,-42.84909 41.0839,-43.80306 z m 90.4376,0.25705 c 0.4279,0.0452 1.0835,0.4193 1.9721,1.15673 1.5178,1.25975 3.3233,1.72532 4.0124,1.03622 0.6893,-0.6891 1.8901,1.40329 2.667,4.64706 0.7769,3.24377 1.9643,6.82151 2.6388,7.95253 0.6747,1.13102 1.305,3.44448 1.4016,5.14101 0.097,1.69653 1.4029,7.24883 2.9039,12.33843 2.4993,8.47588 3.4315,13.13672 4.631,23.13455 0.2371,1.97929 1.8002,3.5987 3.4702,3.5987 2.232,0 1.9776,0.77753 -0.9561,2.93203 -3.5109,2.57873 -4.1823,2.51683 -5.5666,-0.51411 -1.5294,-3.34844 -1.0731,0.20606 1.7391,13.51922 0.9262,4.38487 0.7008,4.96231 -1.0122,2.5705 -3.799,-5.30388 -0.9653,24.4231 3.0365,31.85412 3.7644,6.99013 3.004,15.37039 -1.8035,19.86114 -4.0347,3.769 0.6782,20.6702 6.5067,23.3314 2.4599,1.1232 4.0168,3.231 3.458,4.6871 -0.5587,1.456 1.2505,3.6822 4.0205,4.9443 2.7698,1.262 4.5891,3.0204 4.0404,3.9079 -0.5484,0.8874 -0.043,2.2023 1.1247,2.924 1.1678,0.7221 1.5916,2.1731 0.9439,3.2212 -0.6478,1.0479 1.1894,2.9801 4.0807,4.2975 2.8913,1.3173 5.2574,3.6341 5.2574,5.149 0,1.515 0.9254,2.7554 2.0564,2.7554 1.131,0 2.0564,1.7401 2.0564,3.8638 0,2.1234 1.3599,4.988 3.0205,6.366 1.6599,1.3778 2.9381,3.108 2.8394,3.8477 -0.5624,4.2555 1.2201,6.0181 9.5631,9.4586 5.0896,2.0988 9.2539,4.9597 9.2539,6.3539 0,1.3943 1.8507,3.0192 4.1128,3.6109 2.7922,0.73 4.1128,2.8055 4.1128,6.4624 l 0,5.386 -6.6833,-3.4542 c -7.43,-3.8393 -12.08,-8.9447 -11.001,-12.0773 0.3897,-1.131 -2.4107,-2.0564 -6.2253,-2.0564 -7.1164,0 -9.2444,2.3281 -3.9763,4.3497 1.6274,0.6246 3.5477,3.8235 4.2693,7.109 0.7218,3.2858 2.1654,6.504 3.2092,7.1493 1.0441,0.6451 1.8997,3.8953 1.8997,7.2215 0,3.3262 -0.9253,6.0448 -2.0564,6.0448 -1.131,0 -2.0564,-0.9254 -2.0564,-2.0564 0,-1.131 -2.0821,-2.087 -4.6269,-2.1247 -2.5448,-0.037 -6.7791,-1.8596 -9.4105,-4.0525 -4.2927,-3.5778 -4.4844,-4.4149 -1.8715,-8.1454 1.6015,-2.2866 3.7539,-3.4678 4.7836,-2.6267 1.0296,0.8411 1.1836,0.6856 0.3452,-0.3414 -0.8386,-1.0269 -0.5836,-2.9965 0.5625,-4.3778 1.5275,-1.8403 0.715,-2.7725 -3.0404,-3.4904 -2.8183,-0.5387 -4.6345,-0.1892 -4.0365,0.7792 2.5158,4.0707 -3.067,1.3574 -5.9003,-2.8677 -1.7066,-2.5448 -5.8716,-7.4153 -9.2577,-10.8242 -5.6777,-5.7158 -13.2204,-19.9583 -12.3063,-23.243 0.2146,-0.7713 -0.7253,-3.4212 -2.0926,-5.8842 -1.3665,-2.4627 -1.9234,-5.9485 -1.2331,-7.7475 0.6902,-1.7987 0.2236,-6.0298 -1.0362,-9.4025 -1.2599,-3.3729 -3.3266,-8.9091 -4.5948,-12.3022 -1.2682,-3.3931 -3.6886,-6.1692 -5.3779,-6.1692 -2.6571,0 -2.624,0.6839 0.249,5.0686 1.8265,2.7877 3.3511,6.7205 3.3859,8.7397 0.035,2.019 1.4244,5.4678 3.0846,7.6634 4.0799,5.394 3.8673,9.1453 -0.233,4.1128 -3.2066,-3.9353 -3.2323,-3.9351 -1.8115,0.1205 0.7925,2.2621 1.4576,5.5009 1.4781,7.1975 0.021,1.6965 0.713,4.0099 1.5424,5.141 1.6243,2.2149 5.0159,17.5105 4.4461,20.0499 -0.1912,0.8483 0.6338,1.5423 1.8314,1.5423 1.1979,0 1.6137,0.9161 0.9238,2.0324 -0.6899,1.1164 0.6442,4.0649 2.9641,6.5547 5.7408,6.1623 5.2958,8.2004 -1.4379,6.5908 -8.232,-1.9675 -8.7397,-2.4909 -8.7397,-8.9967 0,-12.8121 -6.1147,-21.1927 -20.564,-28.1872 -9.6777,-4.6847 -10.5469,-6.2969 -9.2096,-17.0657 2.4132,-19.4316 1.7454,-24.2263 -5.2776,-37.91905 -3.8054,-7.4193 -7.4244,-13.51942 -8.0409,-13.55541 -0.6168,-0.037 -2.9088,-1.42138 -5.0968,-3.07658 -3.8344,-2.90056 -3.5603,-3.61969 7.6233,-19.98167 6.3814,-9.33628 12.1023,-19.88975 12.7118,-23.45186 3.2923,-19.24301 4.0581,-29.14336 2.8919,-37.34862 -0.999,-7.02776 0.6844,-25.0614 2.2491,-24.09448 1.0794,0.6671 4.4639,5.81037 7.5228,11.43073 3.0589,5.62036 6.3384,10.21786 7.2897,10.21786 2.7102,0 1.8909,-8.71936 -1.3535,-14.39483 -2.8012,-4.90041 -3.5812,-7.73043 -2.2974,-7.59512 z m -81.8264,16.01754 c 0.2636,0 0.589,0.0613 0.9679,0.18878 1.5164,0.50567 4.3578,3.7844 6.3138,7.28563 3.5019,6.26833 3.4642,6.50462 -2.3574,15.28649 -3.2522,4.90535 -7.146,10.30464 -8.6554,12.00118 -1.5094,1.69653 -5.2747,5.33822 -8.3663,8.09298 l -5.6189,5.00857 1.3414,-7.06498 c 0.7382,-3.88578 2.115,-8.05843 3.0605,-9.27377 0.9459,-1.21513 1.2902,-5.57882 0.7631,-9.69574 -0.8118,-6.3403 -0.4384,-7.2846 2.4581,-6.17312 2.5832,0.9914 3.0969,0.47215 2.1006,-2.12467 -0.887,-2.3112 0.3391,-4.52368 3.7393,-6.75159 2.7815,-1.82239 4.4727,-4.25614 3.7593,-5.4102 -0.5348,-0.86574 -0.2971,-1.37943 0.494,-1.36956 z m -94.0484,3.06857 c 3.5798,0 5.3876,3.55079 3.6631,8.04486 -1.2207,3.18105 -5.752,4.13275 -8.1695,1.71504 -2.8765,-2.8763 -1.1923,-8.47732 2.8678,-9.53905 0.5787,-0.15217 1.1271,-0.22168 1.6386,-0.22085 z m 179.3209,4.96025 c -1.1976,0 -2.1769,0.92538 -2.1769,2.0564 0,1.13103 0.4088,2.05641 0.9077,2.05641 0.4987,0 1.4779,-0.92538 2.1769,-2.05641 0.699,-1.13102 0.2902,-2.0564 -0.9077,-2.0564 z m -2.6507,9.97664 c -1.5012,0.0411 -0.5176,22.72985 1.4378,28.89022 0.7562,2.38441 0.047,4.27979 -1.8717,5.0164 -3.2388,1.24268 -4.0486,15.75247 -0.8795,15.75247 0.9124,0 1.1265,1.38231 0.4779,3.07247 -0.6484,1.68995 -2.0077,2.56166 -3.0203,1.9359 -1.0125,-0.62576 -1.8396,-0.20132 -1.8396,0.93998 0,1.14172 1.1567,2.81481 2.5705,3.71901 1.4138,0.90502 2.6974,3.25426 2.8516,5.22142 0.1542,1.96715 -0.5143,3.08111 -1.4901,2.47817 -3.1528,-1.94865 -0.5369,14.71686 3.3417,21.28296 2.0685,3.50165 4.5323,5.89181 5.4743,5.30964 0.9421,-0.58217 1.0735,-2.09692 0.2894,-3.36572 -2.2008,-3.56128 -0.8216,-19.52926 2.5462,-29.44833 1.6676,-4.91151 2.6269,-11.04741 2.1288,-13.63581 -2.4553,-12.75834 -5.7443,-25.32421 -7.1291,-27.24324 -0.8493,-1.1773 -1.8156,-5.37956 -2.1488,-9.33814 -0.3331,-3.95858 -1.4162,-8.58549 -2.4058,-10.28202 -0.1233,-0.21016 -0.2332,-0.30805 -0.3333,-0.30538 z m -48.9642,29.16332 c -0.9127,-0.0535 -1.0362,22.65808 -0.1606,29.64903 0.3837,3.06569 3.8317,-1.18634 8.3099,-10.24172 3.7135,-7.50855 3.7698,-8.37183 0.6788,-10.73587 -1.8485,-1.41378 -2.5442,-2.5705 -1.5464,-2.5705 1.8623,0 -5.279,-5.98311 -7.2817,-6.10094 z m 84.6218,0.45384 c 0.4356,-0.12955 1.7677,0.64386 3.8879,2.56249 2.262,2.04715 4.1128,4.04371 4.1128,4.43402 0,1.52811 -1.9051,0.5651 -4.9923,-2.52218 -2.6442,-2.64413 -3.5685,-4.30735 -3.0084,-4.47433 z m -0.2249,9.7599 c 0.1069,-0.10693 0.9395,0.51637 2.5705,1.79525 1.9793,1.55217 3.5987,3.17159 3.5987,3.5987 0,1.69242 -1.6873,0.60212 -4.3738,-2.82344 -1.2789,-1.63073 -1.9015,-2.46419 -1.7954,-2.57051 z m -77.4284,0.16061 c 0.8448,0.0925 1.3414,1.17421 1.3414,3.26927 0,1.88511 -0.6093,2.81686 -1.3535,2.07265 -0.7442,-0.74421 -2.7426,-0.20379 -4.4421,1.20074 -2.7272,2.25279 -2.7518,2.00705 -0.2089,-2.07636 1.9158,-3.07638 3.5767,-4.58598 4.6631,-4.4663 z m -76.2395,9.09321 -3.418,6.68332 c -3.6499,7.1349 -5.3701,8.39198 -5.3701,3.91992 0,-1.52133 1.9773,-4.52882 4.3939,-6.68332 l 4.3942,-3.91992 z m 75.5245,23.76916 c 0.5655,0 2.6762,2.27479 4.6913,5.04457 2.5686,3.53023 3.8473,9.69121 4.2775,20.59612 0.3371,8.5567 -2e-4,15.9343 -0.7391,16.3951 -1.7812,1.1008 -1.1374,15.45 0.8997,20.0499 1.0163,2.2946 0.7117,3.5988 -0.8355,3.5988 -1.3344,0 -6.9759,4.8582 -12.5391,10.7961 -8.2222,8.7755 -10.113,12.1811 -10.1336,18.1903 -0.02,4.6064 -1.4715,8.7091 -3.8798,10.8885 -3.7525,3.3959 -3.806,3.2135 -1.8355,-6.3619 1.8022,-8.756 2.3792,-18.5295 1.7794,-30.0348 -0.1193,-2.2921 -1.1165,-3.1494 -2.5987,-2.2333 -1.7021,1.0519 -1.9226,0.3346 -0.751,-2.45 0.9108,-2.165 1.5415,-6.0181 1.4016,-8.5629 -0.1398,-2.5448 0.814,-4.6269 2.1208,-4.6269 1.3066,0 1.838,-0.5357 1.1808,-1.1929 -0.657,-0.657 -3.1233,-0.1625 -5.4824,1.1006 -4.1909,2.2429 -6.3909,-0.4191 -2.3899,-2.8919 1.0438,-0.6451 2.5503,-4.1731 3.3498,-7.836 0.7996,-3.6628 3.9549,-10.3607 7.0126,-14.8848 3.0579,-4.52413 7.3354,-12.13159 9.5028,-16.90924 2.1675,-4.77764 4.4028,-8.68152 4.9683,-8.67535 z m -114.2067,12.88851 c 0.3195,0.1384 0.2741,1.28073 0.1083,3.53867 -0.1953,2.64577 -1.4382,5.17329 -2.7631,5.6148 -3.2132,1.07121 -3.0513,-1.99121 0.3534,-6.64712 1.2964,-1.77365 1.9818,-2.64289 2.3014,-2.50635 z m 4.8237,16.48748 0,0 c 0.1933,0.1028 0.3253,0.5478 0.4016,1.3375 0.1645,1.6965 0.6866,5.1667 1.1608,7.7115 0.4744,2.5448 -0.1108,4.6269 -1.3013,4.6269 -1.2342,0 -1.4637,1.1049 -0.5301,2.5705 1.9935,3.1292 2.7424,15.9377 0.9318,15.9371 -0.7142,-2e-4 -1.1126,8.0969 -0.8878,17.9936 0.5143,22.626 -0.7596,31.3601 -4.5667,31.3601 -2.1851,0 -2.4999,1.1884 -1.2289,4.6269 2.6008,7.036 0.6073,9.768 -7.1252,9.768 -4.157,0 -7.0247,1.0261 -7.0247,2.5102 0,3.7772 -12.7764,13.9369 -17.5355,13.9369 -2.2931,0 -6.1549,1.3959 -8.5833,3.0967 -3.3024,2.3131 -5.7507,2.5864 -9.7115,1.0805 -3.4456,-1.3022 -7.1395,-1.3048 -10.5712,0 l 0,-0.02 c -2.9012,1.1029 -5.5128,2.0042 -5.7997,2.0042 -0.2875,0 -0.4265,-4.3876 -0.3093,-9.7519 0.2277,-10.4963 4.2264,-13.8737 9.2539,-7.816 1.4483,1.7451 4.1648,3.173 6.0365,3.173 1.872,0 5.3901,1.3908 7.8199,3.0927 3.9878,2.7932 4.483,2.7593 5.0849,-0.3654 0.6241,-3.2311 0.8853,-3.2317 4.1169,0 5.3212,5.3211 6.1501,4.2477 4.884,-6.3179 -0.8267,-6.8989 -0.603,-8.56 0.759,-5.6552 1.4899,3.178 1.9614,1.6589 2.0724,-6.6833 0.08,-5.9378 0.9953,-10.7961 2.0363,-10.7961 1.0411,0 2.503,-2.765 3.2454,-6.1451 0.7424,-3.3802 2.2014,-6.6727 3.2452,-7.318 1.0441,-0.6451 1.8997,-3.7706 1.8997,-6.9442 0,-3.1739 1.8195,-8.0844 4.0446,-10.9126 2.2248,-2.8292 3.4601,-5.7295 2.7432,-6.4464 -0.7171,-0.717 -0.2229,-1.3054 1.0965,-1.3054 1.3196,0 2.3977,-2.3671 2.3977,-5.2615 0,-3.0104 -0.8873,-4.7127 -2.0724,-3.9802 -2.5855,1.5979 -10.266,17.2829 -10.266,20.9657 0,3.1959 -4.3047,11.3222 -7.0448,13.2984 -1.0473,0.7551 -2.2277,3.4919 -2.6227,6.0807 -0.3949,2.5889 -1.7157,5.3226 -2.936,6.0769 -1.2202,0.7541 -2.2877,5.6518 -2.3696,10.8846 -0.082,5.2329 -0.9669,9.5148 -1.964,9.5148 -0.9968,0 -1.3571,-0.7364 -0.7994,-1.6388 0.5577,-0.9021 0.1625,-2.9843 -0.8756,-4.6269 -1.4613,-2.3102 -1.9702,-1.824 -2.2452,2.1528 -0.1953,2.8276 -0.3103,6.2902 -0.2609,7.6916 0.049,1.4027 -0.9622,1.8888 -2.2493,1.0802 -1.2861,-0.8077 -3.7871,-1.234 -5.5587,-0.9436 -5.1317,0.8414 -10.8603,-6.7508 -8.4907,-11.2541 1.0909,-2.0735 2.6678,-8.8218 3.5023,-14.9974 0.8345,-6.1754 2.2244,-12.653 3.0887,-14.3948 0.8643,-1.7416 4.6829,-9.6466 8.4866,-17.5638 6.5476,-13.6282 17.2999,-27.3144 19.6284,-24.9861 0.5883,0.5883 -1.1872,4.1383 -3.9483,7.8884 -2.761,3.7502 -6.0148,9.5919 -7.2295,12.9849 -5.0837,14.2005 -6.3601,19.5359 -4.6712,19.5359 0.9844,0 2.8587,-3.2389 4.1651,-7.1974 1.3064,-3.9586 3.2014,-7.1975 4.2092,-7.1975 1.0079,0 1.2978,-1.388 0.6468,-3.0846 -0.728,-1.8962 -2e-4,-3.0846 1.8997,-3.0846 1.6949,0 3.6828,-2.3932 4.418,-5.3217 1.3882,-5.5316 18.6635,-24.4961 22.3152,-24.4961 1.1457,0 2.8044,-1.8508 3.687,-4.1128 0.6848,-1.7546 1.1795,-2.5374 1.5022,-2.3657 z m -12.0493,1.7631 c 0.07,0.032 0.1044,0.103 0.1044,0.2131 0,0.8861 -2.3134,4.1037 -5.141,7.1532 -2.8275,3.0494 -5.141,4.8218 -5.141,3.9359 0,-0.8861 2.3135,-4.1076 5.141,-7.1571 2.4741,-2.6682 4.5552,-4.3583 5.0366,-4.1451 z m 112.7368,0.8958 c -1.204,0.2651 -0.8001,4.2971 0.2772,18.7406 0.2721,3.6397 3.6263,3.1914 5.1128,-0.6829 2.4743,-6.4477 1.2267,-14.2793 -2.6628,-16.7083 -1.2998,-0.8119 -2.18,-1.4699 -2.7272,-1.3494 z m 100.4346,17.9051 c 0.2455,0.041 0.5163,0.146 0.7991,0.3214 1.131,0.699 2.0564,1.6822 2.0564,2.1808 0,0.4989 -0.9254,0.9038 -2.0564,0.9038 -1.131,0 -2.0564,-0.979 -2.0564,-2.1769 0,-0.8982 0.5194,-1.3529 1.2573,-1.2291 z m 6.623,7.5188 c 0.6192,-0.086 1.5185,0.35 2.6308,1.4619 1.218,1.2182 1.8561,3.9333 1.4177,6.0327 -0.715,3.4256 -1.0704,3.3221 -3.4461,-0.9881 -1.9834,-3.5989 -1.9645,-6.3158 -0.6024,-6.5065 z m -81.6378,13.2462 c 1.8088,-0.025 4.899,0.7598 9.4426,2.3737 11.7199,4.1623 16.9787,10.9915 11.7843,15.3025 -1.6205,1.3451 -2.4394,3.2666 -1.8196,4.2695 2.5122,4.0645 -2.9626,1.4876 -5.9563,-2.8035 -2.567,-3.681 -3.2471,-3.9238 -3.3335,-1.197 -0.06,1.8849 0.8002,3.7356 1.9117,4.1128 1.1115,0.3769 2.3535,3.728 2.7593,7.4505 0.4055,3.7228 1.7173,7.75 2.9159,8.9487 1.2824,1.2826 1.5471,4.4213 0.6427,7.627 -0.8448,2.9958 -1.1407,6.6031 -0.6546,8.0169 0.4855,1.4138 -0.1154,2.5705 -1.3416,2.5705 -1.2252,0 -0.3784,1.8508 1.8837,4.1128 4.5798,4.5798 5.5175,10.69 1.5423,10.049 -2.857,-0.4606 -6.6552,0.8674 -19.5317,6.832 -4.8044,2.2255 -10.2901,4.2757 -12.19,4.5545 -5.0296,0.7383 -15.3451,-4.9168 -13.7321,-7.5266 0.9059,-1.466 -0.3099,-1.7948 -3.5785,-0.9721 -4.878,1.2279 -4.8899,1.1973 -0.8355,-2.2451 3.9958,-3.3929 6.5077,-11.7785 2.8516,-9.5189 -3.2625,2.0163 -1.925,-1.0712 2.2894,-5.2856 4.522,-4.522 5.5056,-9.0315 1.691,-7.7599 -2.7268,0.909 -4.4353,3.5416 -9.033,13.9291 -6.5063,14.6992 -8.7996,17.5095 -13.6798,16.7644 -2.5752,-0.393 -5.9473,-1.7496 -7.4907,-3.0163 -2.1742,-1.7843 -3.8866,-1.0445 -7.6111,3.2855 -5.2233,6.0726 -8.1582,7.3031 -6.3821,2.675 1.3143,-3.4252 -2.7009,-5.3138 -11.3022,-5.3138 -4.0507,0 -5.8605,-0.8836 -5.2654,-2.5705 0.4987,-1.4138 2.4605,-2.4378 4.3577,-2.2733 2.4969,0.2155 2.872,-0.3932 1.3616,-2.2131 -1.3807,-1.6651 -1.4097,-4.8945 -0.088,-9.5549 2.1457,-7.5682 8.5121,-21.0833 10.3544,-21.9778 0.619,-0.3007 0.7665,-3.637 0.3254,-7.4144 -0.5269,-4.5134 0.9334,-10.2843 4.2615,-16.8329 l 5.0647,-9.9647 3.434,6.6432 c 1.8896,3.654 2.8834,7.5414 2.2048,8.6394 -0.6784,1.0977 0.107,1.9961 1.7433,1.9961 5.0591,0 3.7983,20.263 -1.727,27.7615 -2.5002,3.393 -5.4717,9.984 -6.6031,14.6438 -1.8605,7.6622 -1.7054,8.3809 1.6227,7.5106 2.4103,-0.6305 4.1531,-3.7687 5.0526,-9.0932 0.7553,-4.4706 2.759,-9.2388 4.4541,-10.5952 1.6951,-1.3564 5.3498,-4.5481 8.1212,-7.0929 2.7712,-2.5448 5.921,-4.6269 7.0006,-4.6269 1.0796,0 1.9641,-1.4169 1.9641,-3.149 0,-1.7319 1.388,-3.6826 3.0846,-4.3337 1.796,-0.6891 3.0846,-3.7677 3.0846,-7.3701 0,-4.6543 2.1654,-8.1646 8.7397,-14.174 4.8062,-4.3935 9.8175,-7.9885 11.1375,-7.9885 1.32,0 2.7443,-1.0311 3.165,-2.2935 0.1974,-0.5913 0.8226,-0.8974 1.9077,-0.9116 z m 95.1891,6.133 c 1.1798,-0.1275 3.8848,1.5908 9.9286,5.7756 3.1103,2.1537 5.6551,4.7776 5.6551,5.8318 0,2.4205 -1.6087,2.233 -9.061,-1.0562 -4.084,-1.8022 -5.0614,-3.0015 -3.0846,-3.7836 2.1183,-0.8384 1.9283,-1.1863 -0.7069,-1.3052 -1.9793,-0.088 -3.5988,-1.6065 -3.5988,-3.3698 0,-1.2738 0.1604,-2.0157 0.8676,-2.0926 z m -102.7118,7.8721 c -0.9805,0.058 -3.4546,2.0642 -5.9482,4.9 -5.224,5.9408 -6.6094,11.0836 -3.7675,13.9733 0.8483,0.8626 1.8351,-0.8353 2.193,-3.7715 0.358,-2.9359 1.4828,-5.3378 2.4983,-5.3378 2.3042,0 6.833,-8.1843 5.3497,-9.6676 -0.074,-0.074 -0.1851,-0.1046 -0.3253,-0.096 z m 79.6174,16.2022 c -0.589,-0.1727 -0.3523,1.5639 0.8877,4.7957 0.7054,1.8379 1.7157,2.9072 2.2452,2.3777 0.5295,-0.5296 -0.02,-2.6505 -1.217,-4.7154 -0.9089,-1.5626 -1.5626,-2.3546 -1.9159,-2.458 z m -171.9829,1.7874 c 0.4989,0 0.9077,0.9254 0.9077,2.0564 0,1.1311 -0.9792,2.0564 -2.1769,2.0564 -1.1978,0 -1.6066,-0.9253 -0.9077,-2.0564 0.699,-1.131 1.6783,-2.0564 2.1769,-2.0564 z m 132.3971,14.3949 c 1.1977,0 2.1769,0.9253 2.1769,2.0564 0,1.131 -0.4088,2.0564 -0.9077,2.0564 -0.4987,0 -1.4779,-0.9254 -2.1769,-2.0564 -0.699,-1.1311 -0.2901,-2.0564 0.9077,-2.0564 z m 52.7114,4.9281 c -0.5488,0.084 -1.32,0.5034 -2.209,1.2411 -1.6965,1.408 -3.0846,2.882 -3.0846,3.2734 0,0.3915 1.3881,0.1766 3.0846,-0.474 1.6966,-0.6511 3.0846,-2.1208 3.0846,-3.2693 0,-0.6017 -0.3267,-0.8551 -0.8756,-0.7712 z m -88.1081,0.3574 c -0.9145,0.076 -1.4981,0.398 -1.4981,0.9279 0,0.9422 1.6195,2.1335 3.5987,2.6507 1.9793,0.5172 3.8301,1.0496 4.1128,1.1808 0.2828,0.1316 0.5141,-0.5791 0.5141,-1.5783 0,-0.999 -1.8507,-2.3005 -4.1128,-2.8919 -0.5655,-0.1481 -1.1069,-0.2396 -1.5984,-0.2811 -0.3687,-0.031 -0.7113,-0.033 -1.0163,0 l 0,-0.01 z m -87.6622,21.4477 c 2.4981,0 2.5207,-0.1236 -3.0283,16.901 -2.684,8.2349 -5.5416,18.9062 -6.35,23.713 -0.8083,4.8069 -2.1882,8.7397 -3.0646,8.7397 -2.1216,0 -1.1113,-8.2568 2.189,-17.8932 1.471,-4.2952 2.757,-8.2745 2.8557,-8.84 1.5933,-9.2059 5.9799,-22.6205 7.3982,-22.6205 z m 178.1119,3.3616 c 1.6717,0 2.988,0.7305 3.4782,2.0083 1.2168,3.1704 -2.4144,3.7431 -6.6592,1.0523 -2.0982,-1.3299 -1.7656,-1.9929 1.4099,-2.8235 0.6191,-0.1624 1.2139,-0.2395 1.7711,-0.2371 z m -32.4848,5.117 c 0.7144,0.029 1.3293,0.2206 1.6709,0.5624 0.6833,0.6833 -0.5314,1.1689 -2.6991,1.0804 -2.3957,-0.099 -2.8814,-0.5848 -1.241,-1.2412 0.7423,-0.297 1.5548,-0.431 2.2692,-0.4016 z m -106.2462,3.8919 c 3.7415,0.025 4.0368,0.4123 1.5423,2.0244 -3.9869,2.5764 -6.1692,2.5764 -6.1692,0 0,-1.1311 2.0821,-2.0449 4.6269,-2.0244 z m -108.648,2.9602 c 0.4766,0.095 0.5624,0.4888 0.1567,1.1446 -0.691,1.1181 -2.1249,2.0324 -3.1891,2.0324 -2.9579,0 -2.3052,-1.4726 1.2573,-2.8397 0.4575,-0.1748 0.8493,-0.285 1.1727,-0.3334 0.2427,-0.037 0.4434,-0.035 0.6024,0 l 0,0 z m -8.9123,2.1327 c 1.1062,-0.1213 1.8876,0.2867 1.8876,1.1084 0,1.0955 -1.3881,1.9923 -3.0846,1.9923 -1.6966,0 -3.0846,-0.363 -3.0846,-0.8074 0,-0.4446 1.388,-1.3414 3.0846,-1.992 0.4242,-0.1629 0.8283,-0.261 1.197,-0.3013 z m 267.6779,11.8443 c -0.6351,0.064 -1.5734,0.315 -2.8276,0.7551 -6.0839,2.1348 -22.997,2.3398 -24.5243,0.2974 -0.6233,-0.8345 -4.3248,-0.5678 -8.2256,0.5943 -3.9008,1.162 -16.8551,2.524 -28.7855,3.0243 -12.0393,0.5049 -25.3078,2.2834 -29.8179,3.9964 -8.0527,3.0587 -7.9768,3.0768 8.326,1.8555 9.0481,-0.678 19.9214,-1.2215 24.1627,-1.2009 4.2414,0.02 7.7115,-0.9789 7.7115,-2.2129 0,-1.2343 1.3599,-0.4485 3.0205,1.7471 1.6599,2.1954 3.0496,2.9333 3.0846,1.6386 0.045,-1.616 2.2758,-1.8547 7.117,-0.763 9.7363,2.1959 38.4809,-3.6762 41.4415,-8.4666 0.5875,-0.9505 0.3755,-1.3712 -0.6829,-1.2653 z m -153.182,4.2816 c -4.6251,-0.1295 -6.9535,1.0451 -12.2743,4.0886 -4.8529,2.7757 -12.2615,5.6504 -16.4632,6.3861 -4.2016,0.7356 -8.1789,2.2113 -8.84,3.2814 -0.6994,1.1311 1.2075,1.5113 4.5545,0.9038 3.1665,-0.5745 11.3078,-1.4039 18.0939,-1.8435 6.7861,-0.4397 12.3384,-0.9959 12.3384,-1.2331 0,-0.2371 6.7901,-0.7088 15.0897,-1.0483 8.2995,-0.3393 15.5629,-1.0876 16.142,-1.6667 2.7282,-2.7283 -2.5798,-5.0654 -16.6923,-7.3422 -5.5708,-0.898 -9.1738,-1.4477 -11.9487,-1.5261 z m 145.4704,3.6026 c -2.262,-0.062 -5.5008,0.7833 -7.1974,1.8798 -2.7418,1.7714 -2.7418,1.9803 0,1.8796 1.6966,-0.062 4.9354,-0.9075 7.1974,-1.8796 4.1128,-1.7673 4.1128,-1.7667 0,-1.8798 z m -130.4128,2.892 c 1.1061,-0.1214 1.8876,0.2866 1.8876,1.1084 0,1.0954 -1.3881,1.9922 -3.0846,1.9922 -1.6966,0 -3.0847,-0.3629 -3.0847,-0.8073 0,-0.4446 1.3881,-1.3414 3.0847,-1.9921 0.4242,-0.1628 0.8283,-0.2609 1.197,-0.3012 z m 32.1874,0.1766 c -0.4334,0.035 -0.9403,0.1255 -1.5061,0.2731 -2.2637,0.5918 -4.1169,1.4302 -4.1169,1.8637 0,1.6227 5.9741,0.7144 7.081,-1.0765 0.4753,-0.7691 -0.1583,-1.1623 -1.458,-1.0603 z m 19.5118,10.9648 c -5.0966,-0.1337 -10.2073,0.7721 -16.0737,2.6951 -6.6806,2.1896 -15.3845,4.769 -19.3431,5.7353 -3.9586,0.9661 -13.6751,3.587 -21.5923,5.8239 -16.1978,4.5766 -12.8718,5.5581 7.1975,2.1206 25.5436,-4.3752 45.5281,-5.9813 44.0159,-3.5343 -1.4591,2.3605 0.658,2.1884 5.6028,-0.458 2.7834,-1.4905 4.9194,-1.5265 6.6192,-0.1164 1.6219,1.3459 5.3966,1.4169 10.6676,0.2048 4.4854,-1.0319 9.7264,-1.3957 11.6475,-0.8073 1.9211,0.5885 10.4405,-0.3663 18.9335,-2.1206 8.4936,-1.7543 15.9427,-3.1891 16.5557,-3.1891 0.6132,0 1.1164,-0.944 1.1164,-2.0967 0,-1.263 -2.2464,-1.5238 -5.6551,-0.6586 -6.6667,1.693 -39.2428,1.6439 -43.6986,-0.064 -5.8139,-2.2293 -10.8969,-3.4007 -15.9933,-3.5345 z m -126.0191,2.2412 c 1.1976,0 2.1769,0.9254 2.1769,2.0564 0,1.1311 -0.4088,2.0564 -0.9077,2.0564 -0.4987,0 -1.4779,-0.9253 -2.1769,-2.0564 -0.699,-1.131 -0.2902,-2.0564 0.9077,-2.0564 z m 9.4948,4.1128 c 0.4989,0 0.9077,0.9254 0.9077,2.0564 0,1.1311 -0.9792,2.0565 -2.1769,2.0565 -1.1978,0 -1.6067,-0.9254 -0.9077,-2.0565 0.699,-1.131 1.6782,-2.0564 2.1769,-2.0564 z m 27.0144,1.8315 0,0.01 c -1.9575,0.055 -4.0951,0.3183 -6.133,0.8355 -6.7993,1.726 -7.6536,2.4241 -4.4301,3.6187 3.7157,1.3771 15.1098,0.3504 17.2986,-1.5584 1.8158,-1.5832 -0.8351,-2.7103 -4.8477,-2.8837 -0.6019,-0.027 -1.2353,-0.03 -1.8878,-0.02 z m 101.5109,0.2249 c 1.1979,0 1.6067,0.9254 0.9077,2.0565 -0.699,1.131 -1.6782,2.0564 -2.1769,2.0564 -0.4989,0 -0.9077,-0.9254 -0.9077,-2.0564 0,-1.1311 0.9792,-2.0565 2.1769,-2.0565 z m -133.5618,12.3385 c 0.6928,0 -1.9466,8.5598 -5.8641,19.0217 -9.6412,25.7491 -10.58,26.1891 -5.5586,2.5905 1.1162,-5.2455 9.766,-21.6122 11.4227,-21.6122 z m 180.5659,24.8054 c -2.922,-0.07 -5.9908,0.5527 -6.8199,1.3817 -0.8291,0.8291 -4.9148,2.5896 -9.0811,3.9119 -19.659,6.2397 -30.1619,10.8826 -24.7772,10.9567 2.981,0.041 8.0706,-1.3108 11.3102,-3.0003 6.4514,-3.3647 16.6643,-4.454 11.0331,-1.1767 -1.6966,0.9873 -8.0167,3.4042 -14.0455,5.3699 -7.2879,2.3764 -10.0624,4.1288 -8.2817,5.2294 3.014,1.8627 3.2489,1.7443 -13.6599,6.8279 l -10.282,3.0926 15.423,-0.241 c 8.5084,-0.1336 21.2455,-1.9945 28.4121,-4.149 7.145,-2.1483 14.0853,-3.457 15.423,-2.9118 1.3377,0.5451 0.6618,1.0644 -1.5061,1.1528 -2.1676,0.088 -3.4403,0.6642 -2.8275,1.277 1.2426,1.2427 40.6983,-11.2212 40.6983,-12.8564 0,-0.5699 -1.2771,-0.5452 -2.8356,0.052 -1.5588,0.598 -3.6635,0.2564 -4.6792,-0.7592 -1.0911,-1.0911 -7.1951,-0.2305 -14.9208,2.1086 -7.6332,2.311 -18.1733,3.8163 -25.3275,3.6189 l -12.2541,-0.3375 9.298,-3.1529 c 10.7412,-3.6429 14.0413,-6.1649 8.3901,-6.4102 -2.3126,-0.1007 0.3093,-2.1744 6.342,-5.0164 8.5258,-4.0161 9.3731,-4.8634 4.9683,-4.9682 z m -231.4741,15.0374 c -3.4294,-0.1448 -15.0218,2.0655 -23.1545,4.5426 -3.6394,1.1084 -4.5395,0.8427 -3.398,-1.0041 1.1666,-1.8878 -0.2854,-2.164 -5.8478,-1.1206 l -7.2858,1.3655 0,1.1808 7.3019,1.3736 c 4.0787,0.7652 12.1757,0.2869 17.9935,-1.0602 14.8919,-3.4484 16.4346,-3.9568 15.3266,-5.0648 -0.1228,-0.1229 -0.4458,-0.1922 -0.9359,-0.2128 z m 182.4136,1.2853 c -1.1977,0 -2.1769,0.9253 -2.1769,2.0564 0,1.131 0.4088,2.0564 0.9077,2.0564 0.4987,0 1.4779,-0.9254 2.1769,-2.0564 0.699,-1.1311 0.2902,-2.0564 -0.9077,-2.0564 z m -146.0047,12.3384 c 1.1978,0 1.6067,0.9254 0.9077,2.0564 -0.699,1.131 -1.6783,2.0564 -2.1769,2.0564 -0.4989,0 -0.9077,-0.9254 -0.9077,-2.0564 0,-1.131 0.9792,-2.0564 2.1769,-2.0564 z m 18.3871,2.3254 c 0.9318,0 1.8635,0.14 2.5705,0.4259 1.4138,0.5704 0.2571,1.0362 -2.5705,1.0362 -2.8275,0 -3.9843,-0.4658 -2.5705,-1.0362 0.707,-0.2853 1.6388,-0.4259 2.5705,-0.4259 z m -36.3685,14.5515 c -0.5921,0.016 -1.4996,0.2239 -2.7433,0.6186 -4.9419,1.5686 -16.1791,2.7377 -40.5739,4.2211 l -14.7964,0.8997 0,69.4921 0.8596,0 c -0.7806,-23.7395 -1.0151,-57.7253 0.08,-61.2584 0.6846,-2.2086 4.0295,-3.1167 11.7762,-3.201 5.9506,-0.064 14.059,-0.7356 18.0176,-1.4942 7.0748,-1.356 7.1098,-1.3289 2.0564,1.5865 -6.4993,3.7492 -5.6531,3.7486 8.2256,0.024 13.5441,-3.6354 12.8844,-3.5755 11.3102,-1.0282 -0.6989,1.131 0.2264,2.0564 2.0564,2.0564 1.9917,0 2.7379,-0.9528 1.8596,-2.3737 -0.9554,-1.5458 -0.5587,-1.8109 1.1368,-0.7632 1.4323,0.8851 3.194,0.7716 3.916,-0.2529 0.7218,-1.0243 3.6267,-3.0096 6.4543,-4.41 4.7803,-2.3677 4.5833,-2.4619 -2.7754,-1.3535 -5.7546,0.867 -7.5042,0.534 -6.4221,-1.217 0.6605,-1.0689 0.5488,-1.574 -0.4378,-1.5464 z m 100.8962,8.0128 c -1.2821,0.146 -3.8516,1.0535 -9.0048,2.8718 -10.2252,3.6077 -13.0639,3.8656 -11.3102,1.0282 1.6277,-2.6337 2.3819,-2.7414 -14.3948,2.0564 -16.8866,4.829 -16.0406,4.7231 -14.2583,1.8394 0.9819,-1.5888 -0.6905,-1.8538 -5.5346,-0.8756 -12.117,2.4471 -14.1378,3.3581 -14.1378,6.374 0,1.6203 1.6194,2.9327 3.5987,2.9121 3.1085,-0.027 3.1786,-0.3301 0.5141,-2.2333 -2.4189,-1.7275 -1.975,-1.9482 2.0564,-1.024 2.8276,0.6481 5.8889,1.1842 6.8038,1.2048 0.9151,0.021 1.0309,1.0533 0.2571,2.3054 -0.9702,1.5697 0.111,1.7908 3.4782,0.7109 16.7739,-5.3777 24.6756,-6.0487 23.1066,-1.9599 -0.6517,1.6965 -0.072,3.0846 1.2891,3.0846 2.8473,0 14.1255,-6.0356 17.9936,-9.6314 1.4411,-1.3397 4.4642,-3.0235 6.7195,-3.7394 2.2554,-0.7158 4.1007,-2.1623 4.1007,-3.217 0,-1.2334 0,-1.8524 -1.2773,-1.707 z m -111.9977,4.1529 c -0.7144,-0.029 -1.5269,0.1047 -2.2693,0.4016 -1.6404,0.6564 -1.1546,1.1425 1.2411,1.2413 2.1676,0.088 3.3823,-0.3971 2.699,-1.0805 -0.3416,-0.3418 -0.9564,-0.5328 -1.6708,-0.5624 z m 21.765,1.7512 -8.2257,1.217 c -4.524,0.6681 -9.103,2.0657 -10.1775,3.1087 -2.574,2.4987 -1.7735,2.3903 9.1493,-1.2452 l 9.2539,-3.0805 z m 16.0576,0.3574 c -1.5217,0.033 -5.4838,0.9957 -11.9448,2.8878 -7.3079,2.141 -8.3488,2.8113 -3.5987,2.3215 3.6758,-0.3792 6.6833,0.076 6.6833,1.0122 0,0.935 -1.3881,1.699 -3.0846,1.699 -1.6966,0 -3.0846,0.8974 -3.0846,1.992 0,1.15 1.8003,1.3256 4.2654,0.4138 2.3459,-0.8678 3.9653,-2.3012 3.5987,-3.185 -0.3667,-0.884 1.6467,-2.8892 4.4743,-4.4542 3.2941,-1.8232 4.2127,-2.7202 2.691,-2.6871 z m 16.8448,3.8718 c 1.1311,0 3.4445,0.8958 5.141,1.9923 1.6966,1.0964 2.1593,1.9961 1.0282,1.9961 -1.131,0 -3.4444,-0.8997 -5.141,-1.9961 -1.6965,-1.0965 -2.1592,-1.9923 -1.0282,-1.9923 z m -15.2021,0.976 c -0.3725,0 -0.7872,0.097 -1.237,0.2692 -1.6899,0.6484 -2.6106,1.9277 -2.0444,2.8436 0.5659,0.9159 -0.1337,2.1343 -1.5543,2.707 -1.4207,0.5729 -1.9647,1.1167 -1.2089,1.2051 3.3274,0.393 7.8801,-2.572 7.8801,-5.133 0,-1.2312 -0.7183,-1.918 -1.8355,-1.8919 z m -46.024,1.0163 c -2.9493,0 -5.9603,0.9642 -6.6874,2.1407 -0.867,1.4029 0.6841,1.6572 4.5064,0.7391 7.8789,-1.8928 8.627,-2.8798 2.181,-2.8798 z m 217.6817,2.3657 c -1.7327,-0.1358 -6.9227,1.6994 -22.3957,7.2737 -12.8083,4.6141 -15.0979,6.0273 -11.3102,6.9885 2.612,0.6627 6.5982,0.5449 8.8602,-0.2651 2.2621,-0.8098 4.5755,-1.458 5.141,-1.458 6.0183,0.1008 22.6984,-3.4669 26.7333,-5.7193 6.7834,-3.7866 4.0941,-3.7202 -9.4907,0.2289 -6.1345,1.7833 -12.2414,2.8773 -13.5715,2.434 -1.3299,-0.4434 1.9265,-2.0233 7.2375,-3.5103 5.3109,-1.487 9.6555,-3.6154 9.6555,-4.7314 0,-0.7097 -0.072,-1.1791 -0.8594,-1.241 z m -192.4426,2.0362 c -1.6966,0 -4.9354,0.7952 -7.1975,1.7673 -2.5923,1.1139 -2.9725,1.7673 -1.0282,1.7673 1.6966,0 4.9354,-0.7953 7.1975,-1.7673 2.5923,-1.114 2.9725,-1.7673 1.0282,-1.7673 z m 228.807,1.8878 c -2.0484,0.1563 -6.5391,1.3889 -14.0292,3.7753 -6.723,2.142 -15.4608,4.8248 -19.4194,5.9603 -3.9586,1.1356 -5.9624,2.1582 -4.4542,2.2734 4.4139,0.3378 36.1411,-8.1341 38.2804,-10.2218 1.1071,-1.0804 1.2871,-1.6842 0.3535,-1.7872 -0.1954,-0.021 -0.4384,-0.023 -0.7311,0 z m -66.8531,0.6225 c -1.5791,0.029 -3.7842,0.1254 -6.6954,0.265 -6.7861,0.3264 -14.8832,0.698 -17.9936,0.8234 -6.3026,0.2542 -7.6309,3.4961 -2.0564,5.0205 4.9998,1.3673 18.8307,-0.6336 26.2192,-3.7955 4.3668,-1.8686 5.2634,-2.4004 0.5262,-2.3134 z m -197.3064,1.3455 c -1.9125,-0.021 -4.0485,0.8933 -4.7474,2.0243 -1.6085,2.6026 1.1137,2.6026 5.141,0 2.6583,-1.7179 2.6032,-1.9976 -0.3936,-2.0243 z m 270.4133,4.3137 c -1.0227,0 -2.9415,0.6072 -5.7718,1.8234 -3.9651,1.7039 -3.9503,1.772 0.3936,1.9118 2.478,0.08 5.0767,-0.7808 5.7757,-1.9118 0.7516,-1.2162 0.6253,-1.8234 -0.3975,-1.8234 z m 4.7955,4.3135 c -0.51,-0.092 -1.6285,0.1193 -3.3698,0.6387 -8.5884,2.5625 -14.3949,4.9451 -14.3949,5.9081 0,1.5542 15.3015,-3.1256 17.4795,-5.3459 0.6965,-0.71 0.795,-1.1077 0.2852,-1.2009 z m -54.9527,1.8756 c -0.7144,-0.029 -1.5269,0.1047 -2.2692,0.4017 -1.6404,0.6564 -1.1547,1.1425 1.241,1.2412 2.1677,0.088 3.3824,-0.3971 2.699,-1.0804 -0.3415,-0.3418 -0.9564,-0.5328 -1.6708,-0.5625 z m -157.09,20.3112 c -4.6297,0 -3.8092,5.4685 1.3657,9.0932 2.4765,1.7345 4.8147,2.8407 5.1972,2.458 1.7728,-1.7728 -3.7822,-11.5512 -6.5629,-11.5512 z m 132.7547,4.2452 c -1.2095,0.1645 -2.2252,1.8273 -2.2252,4.8759 0,2.3606 -0.3788,4.7226 -0.9638,6.8962 l 39.7745,0 c -0.5063,-1.544 -1.8919,-1.6885 -5.2415,-1.0482 -3.3298,0.6365 -6.6904,-0.1357 -8.5068,-1.9519 -2.1101,-2.1103 -5.28,-2.6139 -10.6715,-1.7031 -6.6002,1.1152 -7.8281,0.7027 -8.7839,-2.952 -0.7699,-2.9443 -2.172,-4.2808 -3.3818,-4.1169 z"
       id="path15648-9"
       inkscape:connector-curvature="0" />
  </g>
</svg>
